<svg version="1.1" id="Layer_1" xmlns="http://www.w3.org/2000/svg" xmlns:xlink="http://www.w3.org/1999/xlink" x="0px" y="0px"
	 width="100%" viewBox="0 0 960 1600" enable-background="new 0 0 960 1600" xml:space="preserve">
<path fill="#FFFFFF" opacity="1.000000" stroke="none" 
	d="
M398.000000,1601.000000 
	C265.333344,1601.000000 133.166672,1601.000000 1.000000,1601.000000 
	C1.000000,1067.666626 1.000000,534.333313 1.000000,1.000000 
	C321.000000,1.000000 641.000000,1.000000 961.000000,1.000000 
	C961.000000,534.333313 961.000000,1067.666626 961.000000,1601.000000 
	C773.500000,1601.000000 586.000000,1601.000000 398.000000,1601.000000 
M584.068420,1186.356689 
	C584.302795,1184.904175 584.537170,1183.451660 585.029236,1181.294556 
	C585.379028,1180.183594 585.690308,1179.058838 586.084656,1177.963989 
	C589.433899,1168.664673 596.751953,1163.922607 606.103333,1164.973755 
	C613.420593,1165.796143 617.467407,1170.132690 618.043030,1180.873901 
	C618.942322,1197.654541 618.776062,1214.492798 619.029602,1231.307129 
	C619.094116,1235.582397 619.039307,1239.859375 619.039307,1244.203369 
	C628.634216,1244.203369 637.688843,1244.203369 646.982910,1244.203369 
	C646.982910,1228.679077 646.524658,1213.506104 647.168884,1198.380127 
	C647.510681,1190.354248 648.908691,1182.129761 651.399719,1174.507812 
	C653.869507,1166.951050 661.600098,1163.822388 670.331970,1164.901978 
	C677.178711,1165.748413 680.601318,1169.556885 682.290710,1178.161255 
	C682.546753,1179.465454 682.915955,1180.747559 683.175842,1182.904053 
	C683.175842,1203.271118 683.175842,1223.638184 683.175842,1244.010986 
	C693.230347,1244.010986 702.112061,1244.010986 710.955200,1244.010986 
	C710.955200,1220.147339 710.955200,1196.584839 711.088074,1172.142700 
	C710.570557,1153.405884 699.941223,1142.012451 682.328857,1141.032471 
	C670.019836,1140.347778 659.885010,1144.665405 651.663330,1153.689087 
	C649.578369,1155.977539 647.680908,1158.436768 645.523621,1161.026001 
	C642.388611,1151.748291 636.827393,1145.405884 627.633423,1142.582764 
	C610.939636,1137.457031 594.686462,1143.304565 584.612305,1158.396118 
	C584.538757,1158.564209 584.465271,1158.732178 583.802368,1158.922852 
	C583.511353,1158.271484 583.220398,1157.620117 583.139282,1156.211548 
	C583.139282,1152.423828 583.139282,1148.636108 583.139282,1144.623291 
	C573.726379,1144.623291 564.697205,1144.623291 555.086121,1144.623291 
	C555.086121,1170.278931 555.086121,1195.649658 554.256531,1221.120361 
	C543.632446,1223.452148 539.604553,1221.685181 535.732971,1212.159180 
	C535.378662,1208.191650 534.723267,1204.224731 534.717529,1200.256592 
	C534.669800,1167.303101 534.745178,1134.349365 534.768921,1101.395752 
	C534.770081,1099.793457 534.636841,1098.191284 534.566650,1096.600586 
	C525.243164,1096.600586 516.377380,1096.600586 507.632965,1096.600586 
	C507.429504,1097.317871 507.261230,1097.634155 507.261169,1097.950439 
	C507.253906,1137.562012 507.180725,1177.173950 507.339508,1216.784912 
	C507.366425,1223.497925 509.049744,1229.970215 513.956909,1235.020996 
	C513.956909,1235.020996 513.850098,1235.105713 514.059509,1235.746460 
	C516.249023,1237.634766 518.438538,1239.522949 520.767822,1241.303223 
	C520.767822,1241.303223 520.687195,1241.460449 521.093750,1241.999878 
	C529.115234,1246.377930 537.567810,1244.632690 545.982361,1243.837524 
	C549.620056,1243.493652 552.902222,1243.073608 556.996826,1244.009399 
	C565.285339,1245.904053 574.310730,1244.574951 582.984863,1244.574951 
	C582.984863,1227.854736 582.984863,1211.925903 583.121826,1195.171631 
	C583.338989,1192.458496 583.556152,1189.745361 584.068420,1186.356689 
M769.146240,1098.131104 
	C772.229553,1094.094727 772.408142,1090.185181 768.162781,1085.866699 
	C763.003113,1082.849854 758.804626,1083.268311 755.786621,1087.100342 
	C753.117432,1090.489380 753.316528,1095.364868 756.251343,1098.482178 
	C759.563110,1101.999878 764.060059,1102.024902 769.146240,1098.131104 
M397.688232,1195.950806 
	C398.455048,1195.625610 399.221863,1195.300537 400.743439,1194.975464 
	C402.451294,1194.596802 404.159149,1194.218140 405.892059,1194.776245 
	C405.986908,1196.938110 405.934143,1199.118408 406.200653,1201.258789 
	C407.855164,1214.546387 411.613464,1227.360474 423.594757,1234.628174 
	C444.019684,1247.017578 465.772919,1247.552612 487.741241,1238.350220 
	C488.898438,1237.865479 490.395264,1236.403564 490.439026,1235.343140 
	C490.694885,1229.143188 490.564484,1222.927490 490.564484,1216.014648 
	C487.761658,1217.207764 486.095306,1217.906860 484.437103,1218.624878 
	C475.567200,1222.465698 466.366272,1224.164917 456.684326,1223.189087 
	C442.990875,1221.809082 434.631226,1213.102417 434.883514,1199.261963 
	C455.925262,1199.261963 476.966980,1199.261963 498.481537,1199.261963 
	C498.592102,1197.873901 498.705414,1196.451294 499.041687,1194.117920 
	C498.971771,1190.959595 499.041626,1187.790894 498.809845,1184.644409 
	C496.899109,1158.703735 479.125336,1141.957520 453.558716,1141.707642 
	C435.622406,1141.532349 422.343079,1149.453369 412.341461,1164.003784 
	C410.648682,1162.239014 408.955902,1160.474243 406.879303,1158.214600 
	C406.328094,1158.255615 405.776917,1158.296753 405.225708,1158.337769 
	C405.622070,1158.751709 406.018402,1159.165527 406.655060,1160.289917 
	C407.296356,1162.175049 408.064911,1164.027588 408.555634,1165.951172 
	C410.178162,1172.311279 407.521149,1177.295044 401.644501,1179.539429 
	C401.644501,1176.188354 401.644501,1172.739624 401.835815,1168.358276 
	C401.212585,1162.092896 400.947052,1155.767578 399.910248,1149.571411 
	C390.498444,1093.323486 327.827423,1061.024292 276.451843,1085.744141 
	C258.070343,1094.588745 244.546066,1108.239502 234.460205,1125.789429 
	C233.216827,1124.227783 231.877991,1122.732056 230.745636,1121.093750 
	C223.587906,1110.737305 227.042740,1101.946167 239.325424,1099.176758 
	C241.513840,1098.683350 243.709137,1098.220581 245.901230,1097.743652 
	C244.957397,1097.191284 244.115799,1097.020508 243.310150,1097.125610 
	C235.915726,1098.089233 228.329163,1098.357178 221.181870,1100.264282 
	C209.073639,1103.495239 205.365997,1111.984619 211.916031,1122.726074 
	C216.593292,1130.396362 223.310013,1136.823120 228.767685,1144.539917 
	C224.331253,1162.310303 225.565140,1179.779663 231.529449,1197.004883 
	C232.104584,1198.665894 232.561325,1200.367798 233.232986,1202.716187 
	C234.479630,1204.823364 235.726273,1206.930542 236.996979,1208.997314 
	C236.996979,1208.997314 236.956268,1209.021729 236.936508,1209.744751 
	C256.752930,1248.814941 305.572662,1266.859375 346.705200,1249.958740 
	C371.589264,1239.734375 388.627441,1221.815186 397.033569,1196.033203 
	C397.033569,1196.033203 397.078552,1196.125122 397.688232,1195.950806 
M873.246643,507.056030 
	C868.993713,455.231964 845.132690,414.703033 802.218323,385.683868 
	C777.536865,368.993988 750.018494,360.224518 719.088684,359.803284 
	C718.089844,359.783203 717.091003,359.745544 716.092163,359.745514 
	C565.386414,359.742493 414.680664,359.741394 263.974915,359.752228 
	C262.315521,359.752350 260.656097,359.909760 258.086090,359.823700 
	C253.771683,360.147186 249.434830,360.289520 245.146194,360.820984 
	C165.544754,370.685455 106.078255,437.443146 106.003448,517.701904 
	C105.835556,697.837646 105.947807,877.973694 105.946007,1058.109619 
	C105.945992,1059.682495 105.946007,1061.255249 105.946007,1063.015747 
	C108.103119,1063.015747 109.428543,1063.015747 110.753967,1063.015747 
	C363.377533,1063.015747 616.001099,1063.017212 868.624634,1062.984741 
	C870.206604,1062.984497 871.788635,1062.514160 873.614868,1061.329834 
	C873.657715,1056.997681 873.737915,1052.665405 873.738037,1048.333252 
	C873.743347,871.689270 873.745117,695.045227 873.713257,518.401245 
	C873.712585,514.917847 873.305359,511.434540 873.246643,507.056030 
M744.123474,1164.500000 
	C744.123474,1157.216553 744.123474,1149.933105 744.123474,1142.379395 
	C734.950867,1142.379395 726.227478,1142.379395 717.591309,1142.379395 
	C717.344055,1142.865356 717.074707,1143.147705 717.074524,1143.430298 
	C717.055115,1168.559692 716.704224,1193.695801 717.192810,1218.815674 
	C717.470642,1233.102661 727.826172,1244.227783 740.711121,1244.582520 
	C747.770630,1244.776733 754.889404,1243.244873 761.956238,1242.302612 
	C763.045471,1242.157227 764.854675,1241.026123 764.881226,1240.298218 
	C765.113037,1233.927979 765.015320,1227.545776 765.015320,1220.973999 
	C763.179871,1221.330688 761.887268,1221.629395 760.579529,1221.828613 
	C751.807678,1223.165527 746.474609,1219.604736 744.664795,1210.856079 
	C744.032166,1207.797974 743.945679,1204.587158 743.942261,1201.445679 
	C743.929199,1189.463745 744.051697,1177.481934 744.123474,1164.500000 
M735.672729,1127.421875 
	C737.937256,1125.776245 740.558716,1124.453125 742.395020,1122.420654 
	C746.796265,1117.549438 747.430115,1109.907104 744.157654,1104.215332 
	C740.676025,1098.159668 735.389160,1095.291626 728.351257,1095.915405 
	C722.050049,1096.473999 716.923645,1101.147949 714.729675,1107.487305 
	C711.390564,1117.135742 720.351257,1131.791870 735.672729,1127.421875 
z"/>
<path fill="#F58634" opacity="1.000000" stroke="none" 
	d="
M720.016785,359.966675 
	C750.018494,360.224518 777.536865,368.993988 802.218323,385.683868 
	C845.132690,414.703033 868.993713,455.231964 872.851318,507.788300 
	C872.303040,509.826569 872.015991,511.132538 872.015869,512.438538 
	C871.996948,694.044617 871.995361,875.650635 872.056702,1057.256714 
	C872.057312,1058.925659 872.913696,1060.594360 873.370605,1062.263184 
	C871.788635,1062.514160 870.206604,1062.984497 868.624634,1062.984741 
	C616.001099,1063.017212 363.377533,1063.015747 110.753967,1063.015747 
	C109.428543,1063.015747 108.103119,1063.015747 105.946007,1063.015747 
	C105.946007,1061.255249 105.945992,1059.682495 105.946007,1058.109619 
	C105.947807,877.973694 105.835556,697.837646 106.003448,517.701904 
	C106.078255,437.443146 165.544754,370.685455 245.146194,360.820984 
	C249.434830,360.289520 253.771683,360.147186 258.832153,360.209900 
	C261.055847,360.730743 262.533508,360.983093 264.011139,360.983276 
	C414.292328,361.001160 564.573486,361.003448 714.854675,360.957153 
	C716.575500,360.956635 718.296082,360.311096 720.016785,359.966675 
M273.560059,454.469116 
	C272.273407,454.794495 270.986786,455.119904 269.211060,455.873718 
	C252.982590,461.473663 245.091782,474.155273 248.415359,489.990051 
	C252.218140,489.990051 256.140137,489.990051 260.455261,489.990051 
	C260.179535,492.835632 260.010620,495.136963 259.726410,497.423981 
	C257.530334,515.095886 255.302246,532.763794 253.102676,550.435242 
	C249.051971,582.978760 244.964508,615.517944 241.051025,648.077942 
	C240.680359,651.161743 239.519028,651.976624 236.666412,651.903503 
	C232.842102,651.805542 228.966156,652.505432 225.186188,652.126526 
	C214.538177,651.059082 207.429153,654.646729 205.243240,665.816650 
	C204.868134,667.733398 203.566116,669.449707 202.963104,671.344849 
	C201.571152,675.719299 199.170349,678.319824 194.355927,679.760681 
	C185.334259,682.460693 183.448120,688.934753 188.509766,696.840088 
	C189.227005,697.960266 189.864380,699.279053 190.887558,700.031738 
	C197.208450,704.682007 198.558792,711.667786 199.994415,718.675354 
	C200.729324,722.262634 202.001907,725.769165 202.408768,729.382324 
	C202.626892,731.319397 202.146942,734.041504 200.878830,735.279053 
	C198.810837,737.297485 197.176300,740.623291 192.588577,738.641602 
	C190.220520,737.618713 186.049454,738.818359 183.604034,740.411865 
	C180.429153,742.480713 180.420074,746.190979 181.739212,749.911560 
	C182.243912,751.335022 181.846893,753.592712 180.991577,754.902710 
	C173.996689,765.615356 166.851440,776.231873 159.581558,786.760010 
	C158.764923,787.942627 156.936417,788.956909 155.495972,789.077148 
	C151.453964,789.414734 148.465546,790.976196 146.884003,794.785889 
	C145.330154,798.528870 146.677994,801.496643 149.299759,804.284241 
	C150.120270,805.156677 150.803177,806.836975 150.560837,807.927917 
	C147.360611,822.334167 143.983765,836.701172 140.459869,851.903015 
	C137.405823,852.756653 133.838913,855.029541 133.741287,860.213562 
	C133.638855,865.653137 137.328812,868.034180 141.061264,869.118408 
	C144.019775,884.192139 146.862808,898.677429 149.857178,913.933716 
	C150.327621,913.411743 150.059189,913.836670 149.681000,914.109436 
	C146.166351,916.644409 144.727692,920.044800 146.161865,924.146851 
	C147.581406,928.207092 150.722107,929.917358 155.087204,930.035522 
	C156.411469,930.071411 158.078262,931.518311 158.929352,932.767761 
	C166.412415,943.752563 173.808502,954.798645 181.041397,965.949158 
	C181.889755,967.257019 182.207428,969.507629 181.722183,970.974121 
	C179.994370,976.195618 181.901306,981.567200 186.923111,982.576477 
	C189.745605,983.143738 192.897766,982.070740 194.778900,981.861511 
	C207.017365,989.688538 218.797928,997.159485 230.472229,1004.793030 
	C231.563217,1005.506348 232.594437,1007.244568 232.600677,1008.512146 
	C232.621170,1012.675354 234.251328,1015.587891 238.068893,1017.180969 
	C241.792206,1018.734802 244.790024,1017.421631 247.596909,1014.817932 
	C248.473877,1014.004333 250.135330,1013.316772 251.220520,1013.556091 
	C265.636932,1016.736206 280.014648,1020.091736 295.221588,1023.592163 
	C296.124603,1026.347656 297.985870,1030.017212 303.062805,1030.280640 
	C308.010895,1030.537231 310.648193,1027.865479 312.255585,1023.433411 
	C312.574402,1022.554321 314.574951,1022.062256 315.882019,1021.799316 
	C328.259003,1019.309143 340.637726,1016.818115 353.062012,1014.583618 
	C354.768402,1014.276672 357.132843,1014.854309 358.486115,1015.919739 
	C361.566498,1018.344849 365.119354,1019.607544 368.118835,1017.485474 
	C370.472504,1015.820312 371.567017,1012.337769 373.131561,1009.611328 
	C373.857513,1008.346313 374.000336,1006.381836 375.037628,1005.715881 
	C387.459351,997.741333 399.999512,989.951233 413.144592,981.714417 
	C415.747955,983.626465 419.633179,984.205566 423.405518,981.020203 
	C426.437408,978.460266 427.472046,974.912964 425.664124,971.582703 
	C424.046631,968.603210 425.270142,967.118652 426.934784,965.129028 
	C429.712494,961.809204 432.544464,958.491943 434.921783,954.888733 
	C440.037445,947.135376 444.878387,939.200745 449.885773,931.254700 
	C454.153381,932.265869 458.194153,931.205872 459.817566,927.016357 
	C460.800232,924.480225 460.855713,919.878174 459.276062,918.406006 
	C455.832092,915.196655 456.909271,912.489197 457.966248,909.134888 
	C459.216156,905.168701 460.403656,901.155273 461.204712,897.080994 
	C462.831482,888.807068 464.180145,880.478516 465.635010,872.220337 
	C470.624664,872.220337 475.523926,872.220337 480.941254,872.220337 
	C480.941254,883.197632 480.941254,893.831604 481.292969,905.139038 
	C482.192810,905.425232 483.092285,905.960022 483.992584,905.961487 
	C511.763214,906.006226 539.533936,906.019348 567.304382,905.932495 
	C568.556885,905.928528 569.806458,904.947266 571.147339,903.434387 
	C571.147339,891.489624 571.147339,879.544861 571.147339,867.433228 
	C582.431335,867.433228 593.138367,867.433228 603.736450,867.433228 
	C589.487488,920.147705 601.856384,963.883179 647.669312,995.057129 
	C684.062683,1019.821350 732.084595,1018.988220 767.793579,992.204529 
	C814.000854,957.546265 823.233582,911.536926 803.916504,858.298767 
	C811.060730,858.298767 818.374451,858.352112 825.686279,858.256958 
	C827.284973,858.236206 829.367920,858.226074 830.393860,857.293457 
	C838.628174,849.808533 847.331909,842.674988 854.516907,834.259888 
	C859.120605,828.867981 858.785156,821.062439 854.946838,814.921387 
	C847.964050,803.749573 838.810669,794.002686 826.968079,788.368835 
	C807.856201,779.276855 788.632690,769.869080 766.950073,768.122009 
	C765.954346,768.041687 764.892212,768.072144 763.992798,767.717102 
	C763.145386,767.382690 762.472229,766.606689 761.722351,766.024902 
	C761.885681,765.588684 762.049011,765.152527 762.212341,764.716309 
	C770.172119,765.748535 778.131897,766.780762 786.066162,767.809692 
	C787.451233,760.115479 785.885925,757.892944 778.792297,756.955078 
	C774.171936,756.344177 769.550598,755.723572 764.954468,754.958557 
	C763.813171,754.768494 762.768005,754.001160 761.678650,753.499146 
	C761.832214,752.945862 761.985718,752.392639 762.139282,751.839355 
	C769.228210,752.755493 776.317078,753.671631 784.730103,754.758911 
	C782.872437,749.357361 781.329529,744.871033 779.694641,740.117065 
	C773.875061,739.166870 767.805359,738.175781 761.735596,737.184692 
	C761.851624,736.412842 761.967590,735.640991 762.083618,734.869141 
	C768.128906,735.558105 774.174133,736.247070 779.814026,736.889832 
	C782.799500,731.606079 778.114075,729.253662 776.630615,725.684814 
	C770.808655,711.678650 760.683105,701.817871 747.222168,695.777893 
	C735.410217,690.477783 723.200256,685.825256 710.796265,682.127075 
	C666.642151,668.963013 621.357666,661.162659 575.784973,654.926819 
	C572.564636,654.486145 571.157471,653.674866 570.653748,649.932739 
	C565.057922,608.360291 559.160950,566.828369 553.340027,525.286255 
	C551.710327,513.656128 550.063416,502.028351 548.350525,489.875214 
	C552.849182,489.875214 556.781006,489.875214 560.833191,489.875214 
	C562.456055,477.859863 559.633423,467.912628 549.903687,460.823914 
	C546.741089,458.519684 542.857483,457.205231 538.863708,454.803070 
	C537.571045,454.880280 536.278320,454.957520 534.059082,455.178558 
	C448.372711,455.189819 362.686340,455.201660 276.999969,455.205078 
	C276.005371,455.205109 275.010742,455.096619 273.560059,454.469116 
z"/>
<path fill="#F58635" opacity="1.000000" stroke="none" 
	d="
M582.929382,1156.968750 
	C583.220398,1157.620117 583.511353,1158.271484 584.330566,1158.898315 
	C585.001709,1158.829224 585.144592,1158.784546 585.287476,1158.739990 
	C585.189087,1158.492676 585.090698,1158.245483 584.992310,1157.998169 
	C594.686462,1143.304565 610.939636,1137.457031 627.633423,1142.582764 
	C636.827393,1145.405884 642.388611,1151.748291 645.523621,1161.026001 
	C647.680908,1158.436768 649.578369,1155.977539 651.663330,1153.689087 
	C659.885010,1144.665405 670.019836,1140.347778 682.328857,1141.032471 
	C699.941223,1142.012451 710.570557,1153.405884 710.730225,1172.878174 
	C710.247009,1175.427246 710.015137,1177.240723 710.012695,1179.054321 
	C709.986450,1198.713135 709.891296,1218.372925 710.083740,1238.029907 
	C710.122681,1242.006104 708.963623,1243.320190 705.007446,1243.070312 
	C700.029297,1242.755981 695.002563,1242.767700 690.022583,1243.067261 
	C686.125183,1243.301636 684.858582,1242.097412 684.910400,1238.061157 
	C685.128357,1221.070801 685.052734,1204.075562 684.926208,1187.083374 
	C684.913696,1185.397949 683.823059,1183.720825 683.232849,1182.039795 
	C682.915955,1180.747559 682.546753,1179.465454 682.290710,1178.161255 
	C680.601318,1169.556885 677.178711,1165.748413 670.331970,1164.901978 
	C661.600098,1163.822388 653.869507,1166.951050 651.399719,1174.507812 
	C648.908691,1182.129761 647.510681,1190.354248 647.168884,1198.380127 
	C646.524658,1213.506104 646.982910,1228.679077 646.982910,1244.203369 
	C637.688843,1244.203369 628.634216,1244.203369 619.039307,1244.203369 
	C619.039307,1239.859375 619.094116,1235.582397 619.029602,1231.307129 
	C618.776062,1214.492798 618.942322,1197.654541 618.043030,1180.873901 
	C617.467407,1170.132690 613.420593,1165.796143 606.103333,1164.973755 
	C596.751953,1163.922607 589.433899,1168.664673 586.084656,1177.963989 
	C585.690308,1179.058838 585.379028,1180.183594 584.551086,1181.739502 
	C583.714478,1183.794434 583.356018,1185.404541 582.703613,1187.290527 
	C582.264648,1190.380859 582.119690,1193.195312 581.579895,1196.100342 
	C580.790100,1197.862427 580.066223,1199.531128 580.052734,1201.205566 
	C579.954773,1213.363647 579.849609,1225.525635 580.084961,1237.679932 
	C580.163025,1241.712158 578.985107,1242.615112 574.895203,1243.222168 
	C564.823181,1244.717163 555.288025,1239.233276 545.153625,1241.855835 
	C540.431091,1243.077881 535.285767,1242.933838 530.334595,1242.908936 
	C527.116455,1242.892700 523.902832,1241.974609 520.687195,1241.460449 
	C520.687195,1241.460449 520.767822,1241.303223 520.712769,1240.996826 
	C518.388489,1238.828857 516.119324,1236.967285 513.850098,1235.105713 
	C513.850098,1235.105713 513.956909,1235.020996 513.951843,1234.692749 
	C507.915405,1223.700806 508.986511,1212.000854 508.993561,1200.454346 
	C509.000610,1188.970215 508.995148,1177.486084 508.995148,1166.001953 
	C508.995148,1145.197388 509.105103,1124.391602 508.903564,1103.588989 
	C508.862610,1099.359131 509.745239,1097.460327 514.365784,1097.910400 
	C518.487610,1098.312134 522.721802,1098.368408 526.829651,1097.901367 
	C532.069031,1097.305786 533.151062,1099.332520 533.118896,1104.284790 
	C532.900696,1137.903564 532.943726,1171.524902 533.123596,1205.144165 
	C533.137634,1207.768433 534.837341,1210.383911 535.753540,1213.003418 
	C539.604553,1221.685181 543.632446,1223.452148 555.058960,1220.959351 
	C556.244141,1219.127930 556.954407,1217.458496 556.960144,1215.786865 
	C557.035034,1194.037476 557.070251,1172.287476 556.947205,1150.538574 
	C556.928040,1147.148804 557.823914,1145.725464 561.409973,1145.948853 
	C565.709961,1146.216675 570.039429,1146.009888 574.356140,1146.010742 
	C581.793579,1146.012207 581.754944,1146.014282 582.035400,1153.267212 
	C582.083374,1154.510742 582.619019,1155.735352 582.929382,1156.968750 
z"/>
<path fill="#F58633" opacity="1.000000" stroke="none" 
	d="
M433.939819,1199.330688 
	C434.631226,1213.102417 442.990875,1221.809082 456.684326,1223.189087 
	C466.366272,1224.164917 475.567200,1222.465698 484.437103,1218.624878 
	C486.095306,1217.906860 487.761658,1217.207764 490.564484,1216.014648 
	C490.564484,1222.927490 490.694885,1229.143188 490.439026,1235.343140 
	C490.395264,1236.403564 488.898438,1237.865479 487.741241,1238.350220 
	C465.772919,1247.552612 444.019684,1247.017578 423.594757,1234.628174 
	C411.613464,1227.360474 407.855164,1214.546387 406.200653,1201.258789 
	C405.934143,1199.118408 405.986908,1196.938110 406.122803,1194.076416 
	C407.956451,1192.539917 409.616730,1191.796387 411.152771,1190.850952 
	C419.442596,1185.748413 421.249542,1178.705078 416.456024,1170.268433 
	C415.324890,1168.277710 414.091431,1166.345215 412.905090,1164.385864 
	C422.343079,1149.453369 435.622406,1141.532349 453.558716,1141.707642 
	C479.125336,1141.957520 496.899109,1158.703735 498.809845,1184.644409 
	C499.041626,1187.790894 498.971771,1190.959595 498.571106,1194.655151 
	C496.072754,1196.125732 494.054626,1197.844482 492.015839,1197.869385 
	C474.300781,1198.085449 456.581879,1197.962524 438.864716,1198.057861 
	C437.220856,1198.066772 435.581360,1198.887085 433.939819,1199.330688 
M444.580078,1164.886597 
	C438.505859,1169.238892 434.918976,1175.062622 433.545013,1182.799805 
	C446.550842,1182.799805 458.967560,1182.799805 471.394135,1182.799805 
	C470.616821,1165.952271 459.016937,1157.918213 444.580078,1164.886597 
z"/>
<path fill="#FBC79D" opacity="1.000000" stroke="none" 
	d="
M233.072998,1202.050781 
	C232.561325,1200.367798 232.104584,1198.665894 231.529449,1197.004883 
	C225.565140,1179.779663 224.331253,1162.310303 229.239563,1144.338623 
	C237.151810,1149.721558 244.592178,1155.305908 252.001541,1161.366211 
	C252.419861,1168.635986 252.058105,1175.600342 253.447372,1182.196167 
	C264.138184,1232.952637 318.074341,1248.460693 356.899353,1227.763062 
	C358.495148,1226.912476 359.890869,1224.257080 360.026947,1222.346191 
	C360.605469,1214.223877 360.673676,1206.065063 361.400391,1197.954712 
	C372.970062,1197.567993 384.067505,1197.146240 395.075470,1197.105103 
	C394.321899,1199.008179 393.705109,1200.553345 392.986847,1202.049683 
	C376.623138,1236.136475 341.664703,1256.113892 304.164368,1251.868164 
	C276.861176,1248.777100 255.563400,1235.119995 240.143753,1212.333374 
	C239.297684,1211.083008 238.028488,1210.119019 236.956253,1209.021729 
	C236.956268,1209.021729 236.996979,1208.997314 237.073547,1208.645874 
	C235.791077,1206.213257 234.432037,1204.131958 233.072998,1202.050781 
z"/>
<path fill="#96989A" opacity="1.000000" stroke="none" 
	d="
M395.164978,1196.724365 
	C384.067505,1197.146240 372.970062,1197.567993 361.268433,1197.737549 
	C360.179871,1197.367432 359.695496,1197.249390 358.768738,1197.064819 
	C357.010071,1196.855103 355.682434,1196.779175 354.379364,1196.558228 
	C343.303894,1194.680908 332.232819,1192.777344 320.894653,1190.619995 
	C307.424652,1185.878174 294.220459,1181.397949 280.776550,1176.677979 
	C271.035431,1171.255493 261.533997,1166.072876 252.032562,1160.890137 
	C244.592178,1155.305908 237.151810,1149.721558 229.414032,1143.970947 
	C223.310013,1136.823120 216.593292,1130.396362 211.916031,1122.726074 
	C205.365997,1111.984619 209.073639,1103.495239 221.181870,1100.264282 
	C228.329163,1098.357178 235.915726,1098.089233 243.310150,1097.125610 
	C244.115799,1097.020508 244.957397,1097.191284 245.901230,1097.743652 
	C243.709137,1098.220581 241.513840,1098.683350 239.325424,1099.176758 
	C227.042740,1101.946167 223.587906,1110.737305 230.745636,1121.093750 
	C231.877991,1122.732056 233.216827,1124.227783 234.908722,1126.239502 
	C239.141922,1129.857056 242.926590,1133.024414 246.920105,1136.460449 
	C249.799515,1138.556030 252.470108,1140.383057 255.349304,1142.448242 
	C263.952484,1147.426392 272.347046,1152.166504 281.065491,1157.078369 
	C303.837372,1168.390625 327.125854,1177.066040 352.263550,1181.500732 
	C366.001282,1183.965454 379.417297,1185.277710 392.998016,1183.116943 
	C397.581726,1182.387695 400.931946,1181.233521 400.296143,1175.488159 
	C400.075745,1173.496460 401.157501,1171.360840 401.644501,1169.290894 
	C401.644501,1172.739624 401.644501,1176.188354 401.644501,1179.539429 
	C407.521149,1177.295044 410.178162,1172.311279 408.555634,1165.951172 
	C408.064911,1164.027588 407.296356,1162.175049 406.754456,1159.724487 
	C406.990295,1159.009155 407.126709,1158.859253 407.263123,1158.709473 
	C408.955902,1160.474243 410.648682,1162.239014 412.623260,1164.194824 
	C414.091431,1166.345215 415.324890,1168.277710 416.456024,1170.268433 
	C421.249542,1178.705078 419.442596,1185.748413 411.152771,1190.850952 
	C409.616730,1191.796387 407.956451,1192.539917 406.110229,1193.608154 
	C404.159149,1194.218140 402.451294,1194.596802 400.160950,1194.720459 
	C398.745178,1195.018677 397.911865,1195.571899 397.078552,1196.125122 
	C397.078552,1196.125122 397.033569,1196.033203 396.800476,1196.041504 
	C396.099884,1196.274658 395.632446,1196.499512 395.164978,1196.724365 
z"/>
<path fill="#F58633" opacity="1.000000" stroke="none" 
	d="
M744.123535,1165.000000 
	C744.051697,1177.481934 743.929199,1189.463745 743.942261,1201.445679 
	C743.945679,1204.587158 744.032166,1207.797974 744.664795,1210.856079 
	C746.474609,1219.604736 751.807678,1223.165527 760.579529,1221.828613 
	C761.887268,1221.629395 763.179871,1221.330688 765.015320,1220.973999 
	C765.015320,1227.545776 765.113037,1233.927979 764.881226,1240.298218 
	C764.854675,1241.026123 763.045471,1242.157227 761.956238,1242.302612 
	C754.889404,1243.244873 747.770630,1244.776733 740.711121,1244.582520 
	C727.826172,1244.227783 717.470642,1233.102661 717.192810,1218.815674 
	C716.704224,1193.695801 717.055115,1168.559692 717.074524,1143.430298 
	C717.074707,1143.147705 717.344055,1142.865356 717.591309,1142.379395 
	C726.227478,1142.379395 734.950867,1142.379395 744.123474,1142.379395 
	C744.123474,1149.933105 744.123474,1157.216553 744.123535,1165.000000 
z"/>
<path fill="#FCC79C" opacity="1.000000" stroke="none" 
	d="
M401.740173,1168.824585 
	C401.157501,1171.360840 400.075745,1173.496460 400.296143,1175.488159 
	C400.931946,1181.233521 397.581726,1182.387695 392.998016,1183.116943 
	C379.417297,1185.277710 366.001282,1183.965454 352.564087,1181.303711 
	C355.533112,1178.825928 358.683167,1176.924927 361.515228,1174.631348 
	C373.683197,1164.777100 380.899658,1152.062500 380.706268,1136.314819 
	C380.499908,1119.508789 372.117767,1106.445679 358.650116,1096.915894 
	C336.690216,1081.376953 312.404572,1078.652710 287.425018,1087.265137 
	C264.471436,1095.179077 248.701019,1110.253418 246.711273,1136.191772 
	C242.926590,1133.024414 239.141922,1129.857056 235.211334,1126.405273 
	C244.546066,1108.239502 258.070343,1094.588745 276.451843,1085.744141 
	C327.827423,1061.024292 390.498444,1093.323486 399.910248,1149.571411 
	C400.947052,1155.767578 401.212585,1162.092896 401.740173,1168.824585 
z"/>
<path fill="#F37618" opacity="1.000000" stroke="none" 
	d="
M873.492676,1061.796509 
	C872.913696,1060.594360 872.057312,1058.925659 872.056702,1057.256714 
	C871.995361,875.650635 871.996948,694.044617 872.015869,512.438538 
	C872.015991,511.132538 872.303040,509.826569 872.771973,508.235901 
	C873.305359,511.434540 873.712585,514.917847 873.713257,518.401245 
	C873.745117,695.045227 873.743347,871.689270 873.738037,1048.333252 
	C873.737915,1052.665405 873.657715,1056.997681 873.492676,1061.796509 
z"/>
<path fill="#F58633" opacity="1.000000" stroke="none" 
	d="
M735.322144,1127.576538 
	C720.351257,1131.791870 711.390564,1117.135742 714.729675,1107.487305 
	C716.923645,1101.147949 722.050049,1096.473999 728.351257,1095.915405 
	C735.389160,1095.291626 740.676025,1098.159668 744.157654,1104.215332 
	C747.430115,1109.907104 746.796265,1117.549438 742.395020,1122.420654 
	C740.558716,1124.453125 737.937256,1125.776245 735.322144,1127.576538 
z"/>
<path fill="#939699" opacity="1.000000" stroke="none" 
	d="
M395.075470,1197.105103 
	C395.632446,1196.499512 396.099884,1196.274658 396.845978,1196.064941 
	C388.627441,1221.815186 371.589264,1239.734375 346.705200,1249.958740 
	C305.572662,1266.859375 256.752930,1248.814941 236.946381,1209.383301 
	C238.028488,1210.119019 239.297684,1211.083008 240.143753,1212.333374 
	C255.563400,1235.119995 276.861176,1248.777100 304.164368,1251.868164 
	C341.664703,1256.113892 376.623138,1236.136475 392.986847,1202.049683 
	C393.705109,1200.553345 394.321899,1199.008179 395.075470,1197.105103 
z"/>
<path fill="#F58938" opacity="1.000000" stroke="none" 
	d="
M535.743286,1212.581299 
	C534.837341,1210.383911 533.137634,1207.768433 533.123596,1205.144165 
	C532.943726,1171.524902 532.900696,1137.903564 533.118896,1104.284790 
	C533.151062,1099.332520 532.069031,1097.305786 526.829651,1097.901367 
	C522.721802,1098.368408 518.487610,1098.312134 514.365784,1097.910400 
	C509.745239,1097.460327 508.862610,1099.359131 508.903564,1103.588989 
	C509.105103,1124.391602 508.995148,1145.197388 508.995148,1166.001953 
	C508.995148,1177.486084 509.000610,1188.970215 508.993561,1200.454346 
	C508.986511,1212.000854 507.915405,1223.700806 513.917419,1234.751587 
	C509.049744,1229.970215 507.366425,1223.497925 507.339508,1216.784912 
	C507.180725,1177.173950 507.253906,1137.562012 507.261169,1097.950439 
	C507.261230,1097.634155 507.429504,1097.317871 507.632965,1096.600586 
	C516.377380,1096.600586 525.243164,1096.600586 534.566650,1096.600586 
	C534.636841,1098.191284 534.770081,1099.793457 534.768921,1101.395752 
	C534.745178,1134.349365 534.669800,1167.303101 534.717529,1200.256592 
	C534.723267,1204.224731 535.378662,1208.191650 535.743286,1212.581299 
z"/>
<path fill="#F37315" opacity="1.000000" stroke="none" 
	d="
M719.552734,359.884949 
	C718.296082,360.311096 716.575500,360.956635 714.854675,360.957153 
	C564.573486,361.003448 414.292328,361.001160 264.011139,360.983276 
	C262.533508,360.983093 261.055847,360.730743 259.287476,360.294922 
	C260.656097,359.909760 262.315521,359.752350 263.974915,359.752228 
	C414.680664,359.741394 565.386414,359.742493 716.092163,359.745514 
	C717.091003,359.745544 718.089844,359.783203 719.552734,359.884949 
z"/>
<path fill="#F58938" opacity="1.000000" stroke="none" 
	d="
M520.890503,1241.730225 
	C523.902832,1241.974609 527.116455,1242.892700 530.334595,1242.908936 
	C535.285767,1242.933838 540.431091,1243.077881 545.153625,1241.855835 
	C555.288025,1239.233276 564.823181,1244.717163 574.895203,1243.222168 
	C578.985107,1242.615112 580.163025,1241.712158 580.084961,1237.679932 
	C579.849609,1225.525635 579.954773,1213.363647 580.052734,1201.205566 
	C580.066223,1199.531128 580.790100,1197.862427 581.832642,1196.102417 
	C582.648438,1196.008301 582.816650,1196.002686 582.984863,1195.997070 
	C582.984863,1211.925903 582.984863,1227.854736 582.984863,1244.574951 
	C574.310730,1244.574951 565.285339,1245.904053 556.996826,1244.009399 
	C552.902222,1243.073608 549.620056,1243.493652 545.982361,1243.837524 
	C537.567810,1244.632690 529.115234,1246.377930 520.890503,1241.730225 
z"/>
<path fill="#F47B22" opacity="1.000000" stroke="none" 
	d="
M583.034302,1156.590088 
	C582.619019,1155.735352 582.083374,1154.510742 582.035400,1153.267212 
	C581.754944,1146.014282 581.793579,1146.012207 574.356140,1146.010742 
	C570.039429,1146.009888 565.709961,1146.216675 561.409973,1145.948853 
	C557.823914,1145.725464 556.928040,1147.148804 556.947205,1150.538574 
	C557.070251,1172.287476 557.035034,1194.037476 556.960144,1215.786865 
	C556.954407,1217.458496 556.244141,1219.127930 555.473755,1220.909424 
	C555.086121,1195.649658 555.086121,1170.278931 555.086121,1144.623291 
	C564.697205,1144.623291 573.726379,1144.623291 583.139282,1144.623291 
	C583.139282,1148.636108 583.139282,1152.423828 583.034302,1156.590088 
z"/>
<path fill="#F37315" opacity="1.000000" stroke="none" 
	d="
M683.204346,1182.471924 
	C683.823059,1183.720825 684.913696,1185.397949 684.926208,1187.083374 
	C685.052734,1204.075562 685.128357,1221.070801 684.910400,1238.061157 
	C684.858582,1242.097412 686.125183,1243.301636 690.022583,1243.067261 
	C695.002563,1242.767700 700.029297,1242.755981 705.007446,1243.070312 
	C708.963623,1243.320190 710.122681,1242.006104 710.083740,1238.029907 
	C709.891296,1218.372925 709.986450,1198.713135 710.012695,1179.054321 
	C710.015137,1177.240723 710.247009,1175.427246 710.663757,1173.318115 
	C710.955200,1196.584839 710.955200,1220.147339 710.955200,1244.010986 
	C702.112061,1244.010986 693.230347,1244.010986 683.175842,1244.010986 
	C683.175842,1223.638184 683.175842,1203.271118 683.204346,1182.471924 
z"/>
<path fill="#F37618" opacity="1.000000" stroke="none" 
	d="
M434.411682,1199.296387 
	C435.581360,1198.887085 437.220856,1198.066772 438.864716,1198.057861 
	C456.581879,1197.962524 474.300781,1198.085449 492.015839,1197.869385 
	C494.054626,1197.844482 496.072754,1196.125732 498.459595,1195.110596 
	C498.705414,1196.451294 498.592102,1197.873901 498.481537,1199.261963 
	C476.966980,1199.261963 455.925262,1199.261963 434.411682,1199.296387 
z"/>
<path fill="#939699" opacity="1.000000" stroke="none" 
	d="
M768.630798,1098.550903 
	C764.060059,1102.024902 759.563110,1101.999878 756.251343,1098.482178 
	C753.316528,1095.364868 753.117432,1090.489380 755.786621,1087.100342 
	C758.804626,1083.268311 763.003113,1082.849854 768.147461,1086.370728 
	C767.975647,1087.029297 767.819092,1087.183838 767.301880,1087.182617 
	C764.082031,1085.748901 761.164734,1084.009644 758.987244,1088.014648 
	C759.002380,1087.999512 759.033691,1087.970337 758.641541,1087.833374 
	C754.645813,1090.278442 754.995117,1093.641968 757.177734,1096.621948 
	C760.063110,1100.561523 763.912415,1099.811279 767.899353,1097.900146 
	C768.298218,1098.269775 768.464478,1098.410278 768.630798,1098.550903 
z"/>
<path fill="#939699" opacity="1.000000" stroke="none" 
	d="
M768.383972,1086.661621 
	C772.408142,1090.185181 772.229553,1094.094727 768.888550,1098.341064 
	C768.464478,1098.410278 768.298218,1098.269775 768.044189,1097.580078 
	C770.622314,1093.716187 769.873352,1090.505127 767.662476,1087.338379 
	C767.819092,1087.183838 767.975647,1087.029297 768.383972,1086.661621 
z"/>
<path fill="#F58938" opacity="1.000000" stroke="none" 
	d="
M513.954834,1235.426025 
	C516.119324,1236.967285 518.388489,1238.828857 520.642883,1241.050781 
	C518.438538,1239.522949 516.249023,1237.634766 513.954834,1235.426025 
z"/>
<path fill="#F37618" opacity="1.000000" stroke="none" 
	d="
M583.053345,1195.584351 
	C582.816650,1196.002686 582.648438,1196.008301 582.227478,1196.011719 
	C582.119690,1193.195312 582.264648,1190.380859 582.897339,1187.301392 
	C583.385132,1187.036377 583.773254,1187.032227 583.773254,1187.032227 
	C583.556152,1189.745361 583.338989,1192.458496 583.053345,1195.584351 
z"/>
<path fill="#939699" opacity="1.000000" stroke="none" 
	d="
M233.152985,1202.383545 
	C234.432037,1204.131958 235.791077,1206.213257 237.061523,1208.666016 
	C235.726273,1206.930542 234.479630,1204.823364 233.152985,1202.383545 
z"/>
<path fill="#F58938" opacity="1.000000" stroke="none" 
	d="
M583.920837,1186.694458 
	C583.773254,1187.032227 583.385132,1187.036377 583.191345,1187.025513 
	C583.356018,1185.404541 583.714478,1183.794434 584.422241,1182.091797 
	C584.537170,1183.451660 584.302795,1184.904175 583.920837,1186.694458 
z"/>
<path fill="#939699" opacity="1.000000" stroke="none" 
	d="
M397.383392,1196.037964 
	C397.911865,1195.571899 398.745178,1195.018677 399.783569,1194.720459 
	C399.221863,1195.300537 398.455048,1195.625610 397.383392,1196.037964 
z"/>
<path fill="#96989A" opacity="1.000000" stroke="none" 
	d="
M406.634308,1159.369263 
	C406.018402,1159.165527 405.622070,1158.751709 405.225708,1158.337769 
	C405.776917,1158.296753 406.328094,1158.255615 407.071228,1158.462036 
	C407.126709,1158.859253 406.990295,1159.009155 406.634308,1159.369263 
z"/>
<path fill="#F47B22" opacity="1.000000" stroke="none" 
	d="
M584.802307,1158.197144 
	C585.090698,1158.245483 585.189087,1158.492676 585.287476,1158.739990 
	C585.144592,1158.784546 585.001709,1158.829224 584.625244,1158.886963 
	C584.465271,1158.732178 584.538757,1158.564209 584.802307,1158.197144 
z"/>
<path fill="#FEF8F4" opacity="1.000000" stroke="none" 
	d="
M539.303589,455.438049 
	C542.857483,457.205231 546.741089,458.519684 549.903687,460.823914 
	C559.633423,467.912628 562.456055,477.859863 560.833191,489.875214 
	C556.781006,489.875214 552.849182,489.875214 548.350525,489.875214 
	C550.063416,502.028351 551.710327,513.656128 553.340027,525.286255 
	C559.160950,566.828369 565.057922,608.360291 570.653748,649.932739 
	C571.157471,653.674866 572.564636,654.486145 575.784973,654.926819 
	C621.357666,661.162659 666.642151,668.963013 710.796265,682.127075 
	C723.200256,685.825256 735.410217,690.477783 747.222168,695.777893 
	C760.683105,701.817871 770.808655,711.678650 776.630615,725.684814 
	C778.114075,729.253662 782.799500,731.606079 779.814026,736.889832 
	C774.174133,736.247070 768.128906,735.558105 762.083618,734.869141 
	C761.967590,735.640991 761.851624,736.412842 761.735596,737.184692 
	C767.805359,738.175781 773.875061,739.166870 779.694641,740.117065 
	C781.329529,744.871033 782.872437,749.357361 784.730103,754.758911 
	C776.317078,753.671631 769.228210,752.755493 762.139282,751.839355 
	C761.985718,752.392639 761.832214,752.945862 761.678650,753.499146 
	C762.768005,754.001160 763.813171,754.768494 764.954468,754.958557 
	C769.550598,755.723572 774.171936,756.344177 778.792297,756.955078 
	C785.885925,757.892944 787.451233,760.115479 786.066162,767.809692 
	C778.131897,766.780762 770.172119,765.748535 762.212341,764.716309 
	C762.049011,765.152527 761.885681,765.588684 761.722351,766.024902 
	C762.472229,766.606689 763.145386,767.382690 763.992798,767.717102 
	C764.892212,768.072144 765.954346,768.041687 766.950073,768.122009 
	C788.632690,769.869080 807.856201,779.276855 826.968079,788.368835 
	C838.810669,794.002686 847.964050,803.749573 854.946838,814.921387 
	C858.785156,821.062439 859.120605,828.867981 854.516907,834.259888 
	C847.331909,842.674988 838.628174,849.808533 830.393860,857.293457 
	C829.367920,858.226074 827.284973,858.236206 825.686279,858.256958 
	C818.374451,858.352112 811.060730,858.298767 803.916504,858.298767 
	C823.233582,911.536926 814.000854,957.546265 767.793579,992.204529 
	C732.084595,1018.988220 684.062683,1019.821350 647.669312,995.057129 
	C601.856384,963.883179 589.487488,920.147705 603.736450,867.433228 
	C593.138367,867.433228 582.431335,867.433228 571.147339,867.433228 
	C571.147339,879.544861 571.147339,891.489624 570.629700,903.933838 
	C540.388489,904.444092 510.664856,904.454834 480.941254,904.465576 
	C480.941254,893.831604 480.941254,883.197632 480.941254,872.220337 
	C475.523926,872.220337 470.624664,872.220337 465.635010,872.220337 
	C464.180145,880.478516 462.831482,888.807068 461.204712,897.080994 
	C460.403656,901.155273 459.216156,905.168701 457.966248,909.134888 
	C456.909271,912.489197 455.832092,915.196655 459.276062,918.406006 
	C460.855713,919.878174 460.800232,924.480225 459.817566,927.016357 
	C458.194153,931.205872 454.153381,932.265869 449.885773,931.254700 
	C444.878387,939.200745 440.037445,947.135376 434.921783,954.888733 
	C432.544464,958.491943 429.712494,961.809204 426.934784,965.129028 
	C425.270142,967.118652 424.046631,968.603210 425.664124,971.582703 
	C427.472046,974.912964 426.437408,978.460266 423.405518,981.020203 
	C419.633179,984.205566 415.747955,983.626465 413.144592,981.714417 
	C399.999512,989.951233 387.459351,997.741333 375.037628,1005.715881 
	C374.000336,1006.381836 373.857513,1008.346313 373.131561,1009.611328 
	C371.567017,1012.337769 370.472504,1015.820312 368.118835,1017.485474 
	C365.119354,1019.607544 361.566498,1018.344849 358.486115,1015.919739 
	C357.132843,1014.854309 354.768402,1014.276672 353.062012,1014.583618 
	C340.637726,1016.818115 328.259003,1019.309143 315.882019,1021.799316 
	C314.574951,1022.062256 312.574402,1022.554321 312.255585,1023.433411 
	C310.648193,1027.865479 308.010895,1030.537231 303.062805,1030.280640 
	C297.985870,1030.017212 296.124603,1026.347656 295.221588,1023.592163 
	C280.014648,1020.091736 265.636932,1016.736206 251.220520,1013.556091 
	C250.135330,1013.316772 248.473877,1014.004333 247.596909,1014.817932 
	C244.790024,1017.421631 241.792206,1018.734802 238.068893,1017.180969 
	C234.251328,1015.587891 232.621170,1012.675354 232.600677,1008.512146 
	C232.594437,1007.244568 231.563217,1005.506348 230.472229,1004.793030 
	C218.797928,997.159485 207.017365,989.688538 194.778900,981.861511 
	C192.897766,982.070740 189.745605,983.143738 186.923111,982.576477 
	C181.901306,981.567200 179.994370,976.195618 181.722183,970.974121 
	C182.207428,969.507629 181.889755,967.257019 181.041397,965.949158 
	C173.808502,954.798645 166.412415,943.752563 158.929352,932.767761 
	C158.078262,931.518311 156.411469,930.071411 155.087204,930.035522 
	C150.722107,929.917358 147.581406,928.207092 146.161865,924.146851 
	C144.727692,920.044800 146.166351,916.644409 149.681000,914.109436 
	C150.059189,913.836670 150.327621,913.411743 149.857178,913.933716 
	C146.862808,898.677429 144.019775,884.192139 141.061264,869.118408 
	C137.328812,868.034180 133.638855,865.653137 133.741287,860.213562 
	C133.838913,855.029541 137.405823,852.756653 140.459869,851.903015 
	C143.983765,836.701172 147.360611,822.334167 150.560837,807.927917 
	C150.803177,806.836975 150.120270,805.156677 149.299759,804.284241 
	C146.677994,801.496643 145.330154,798.528870 146.884003,794.785889 
	C148.465546,790.976196 151.453964,789.414734 155.495972,789.077148 
	C156.936417,788.956909 158.764923,787.942627 159.581558,786.760010 
	C166.851440,776.231873 173.996689,765.615356 180.991577,754.902710 
	C181.846893,753.592712 182.243912,751.335022 181.739212,749.911560 
	C180.420074,746.190979 180.429153,742.480713 183.604034,740.411865 
	C186.049454,738.818359 190.220520,737.618713 192.588577,738.641602 
	C197.176300,740.623291 198.810837,737.297485 200.878830,735.279053 
	C202.146942,734.041504 202.626892,731.319397 202.408768,729.382324 
	C202.001907,725.769165 200.729324,722.262634 199.994415,718.675354 
	C198.558792,711.667786 197.208450,704.682007 190.887558,700.031738 
	C189.864380,699.279053 189.227005,697.960266 188.509766,696.840088 
	C183.448120,688.934753 185.334259,682.460693 194.355927,679.760681 
	C199.170349,678.319824 201.571152,675.719299 202.963104,671.344849 
	C203.566116,669.449707 204.868134,667.733398 205.243240,665.816650 
	C207.429153,654.646729 214.538177,651.059082 225.186188,652.126526 
	C228.966156,652.505432 232.842102,651.805542 236.666412,651.903503 
	C239.519028,651.976624 240.680359,651.161743 241.051025,648.077942 
	C244.964508,615.517944 249.051971,582.978760 253.102676,550.435242 
	C255.302246,532.763794 257.530334,515.095886 259.726410,497.423981 
	C260.010620,495.136963 260.179535,492.835632 260.455261,489.990051 
	C256.140137,489.990051 252.218140,489.990051 248.415359,489.990051 
	C245.091782,474.155273 252.982590,461.473663 269.896484,455.714325 
	C271.726624,455.382904 272.871399,455.210846 274.016144,455.038818 
	C275.010742,455.096619 276.005371,455.205109 276.999969,455.205078 
	C362.686340,455.201660 448.372711,455.189819 534.940430,455.217926 
	C536.982361,455.317535 538.143005,455.377808 539.303589,455.438049 
M264.718445,628.733643 
	C264.532104,631.489624 264.345734,634.245667 264.145325,637.209595 
	C295.585144,637.209595 326.489960,637.209595 357.600555,637.209595 
	C357.600555,588.097046 357.600555,539.236633 357.600555,490.121521 
	C330.602264,490.121521 303.878082,490.121521 276.924408,490.121521 
	C276.676758,491.970825 276.391632,493.599823 276.248718,495.241211 
	C274.012177,520.928345 271.750488,546.613464 269.586304,572.306702 
	C268.051239,590.531250 266.653625,608.767395 265.003204,627.487854 
	C265.013275,627.662781 265.023346,627.837708 264.718445,628.733643 
M546.063538,640.131714 
	C545.940613,638.638916 545.930054,637.126892 545.678284,635.656128 
	C540.005737,602.517517 534.397888,569.367371 528.571838,536.255615 
	C525.867065,520.883179 522.728333,505.587067 519.774597,490.195618 
	C472.352814,490.195618 425.300201,490.195618 377.825623,490.195618 
	C377.825623,492.466064 377.825592,494.430298 377.825592,496.394531 
	C377.825592,537.546387 377.820312,578.698303 377.831879,619.850159 
	C377.833435,625.343628 376.021820,632.010742 378.492035,636.006348 
	C381.052216,640.147522 387.767029,641.762756 392.721985,644.374084 
	C426.884796,662.378357 454.825195,686.662842 471.651703,722.251770 
	C472.228485,723.471680 473.489410,724.669983 474.725372,725.231750 
	C497.451904,735.561646 520.223328,745.792664 543.511169,756.534851 
	C544.805908,757.018372 546.100647,757.501892 547.630432,758.073242 
	C547.731628,756.755005 547.826172,756.096741 547.826355,755.438477 
	C547.833618,723.705811 547.932068,691.972534 547.750000,660.240906 
	C547.713135,653.823914 546.612244,647.413086 546.063538,640.131714 
M359.715363,805.789429 
	C341.396820,787.602600 319.399200,779.728210 293.762726,782.856812 
	C251.103088,788.062927 221.830917,825.769470 225.989929,869.811523 
	C229.803635,910.196960 267.614685,941.635010 309.066742,938.278992 
	C341.707886,935.636353 364.920288,918.669128 376.568909,888.313354 
	C388.138947,858.162170 381.964294,830.385376 359.715363,805.789429 
M651.202637,912.927979 
	C655.268677,939.403992 677.117065,957.243530 699.382080,959.233032 
	C722.630188,961.310486 741.078735,952.640930 752.924988,932.608215 
	C764.864990,912.416870 764.025208,891.569397 750.290955,872.513855 
	C736.714172,853.676697 717.576721,846.455994 694.625793,850.673340 
	C670.174744,855.166260 647.198608,878.719482 651.202637,912.927979 
M529.480957,849.605774 
	C533.879639,849.605774 538.278381,849.605774 543.153503,849.605774 
	C543.153503,842.767883 543.153503,836.862244 543.153503,830.986572 
	C545.278687,830.759216 546.896301,830.586182 548.654663,830.398071 
	C548.654663,827.259216 548.654663,824.373901 548.654663,821.374268 
	C531.631287,821.374268 514.917725,821.374268 498.171539,821.374268 
	C498.171539,824.581482 498.171539,827.459229 498.171539,830.363098 
	C500.254425,830.650574 501.981476,830.888977 504.125732,831.184937 
	C504.125732,837.411926 504.125732,843.313354 504.125732,849.605286 
	C512.561584,849.605286 520.523926,849.605286 529.480957,849.605774 
M504.792328,894.950073 
	C517.336975,894.950073 529.881653,894.950073 542.915344,894.950073 
	C542.915344,888.657593 542.915344,882.756775 542.915344,876.754333 
	C545.109070,876.446289 546.832520,876.204285 548.540527,875.964417 
	C548.540527,872.899902 548.540527,870.170288 548.540527,867.420532 
	C531.536072,867.420532 514.860352,867.420532 498.161255,867.420532 
	C498.161255,870.549744 498.161255,873.311951 498.161255,876.330261 
	C500.139618,876.440491 501.892242,876.538086 504.199585,876.666626 
	C504.199585,882.638672 504.199585,888.419556 504.792328,894.950073 
M617.676208,765.951965 
	C618.489014,756.786560 617.096680,747.997620 612.762085,739.840454 
	C608.535706,731.887146 599.431824,725.632874 591.713928,725.449463 
	C604.537659,736.346680 608.344360,750.588501 608.081604,766.501648 
	C611.388977,766.501648 614.183777,766.501648 617.676208,765.951965 
M627.892517,728.003662 
	C627.571350,728.028259 627.250244,728.052856 626.929077,728.077454 
	C626.966492,728.459595 626.852600,729.014709 627.063171,729.198975 
	C635.056091,736.193298 639.409485,745.103333 640.783752,755.511230 
	C641.253967,759.071777 641.299255,762.688477 641.548828,766.431519 
	C644.620300,766.431519 647.357544,766.431519 650.047852,766.431519 
	C653.078491,749.266602 644.796692,734.653015 627.892517,728.003662 
M673.363586,759.513977 
	C673.363586,761.781494 673.363586,764.049072 673.363586,766.395630 
	C676.620850,766.395630 679.044800,766.395630 681.423218,766.395630 
	C683.887451,749.510681 673.554443,732.580444 660.428223,732.601501 
	C668.365662,739.732239 672.515503,748.371948 673.363586,759.513977 
M807.405029,827.736084 
	C809.808044,827.736084 812.211121,827.736084 814.572510,827.736084 
	C814.572510,824.548767 814.572510,822.139648 814.572510,819.647461 
	C807.625244,819.647461 800.970337,819.647461 794.363159,819.647461 
	C794.363159,822.448425 794.363159,824.855957 794.363159,827.735779 
	C798.571472,827.735779 802.505432,827.735779 807.405029,827.736084 
M840.080933,804.446899 
	C839.411743,803.953613 838.808899,803.261475 838.058655,803.010986 
	C836.744446,802.572327 835.339722,802.404602 833.972961,802.123352 
	C834.050354,803.665710 833.564514,805.590820 834.306030,806.681885 
	C836.995789,810.640076 839.888672,814.511292 843.132019,818.020569 
	C844.732849,819.752747 847.267151,820.622131 849.379089,821.881897 
	C849.807556,821.404358 850.236084,820.926758 850.664551,820.449158 
	C849.663574,813.897766 845.271667,809.321167 840.080933,804.446899 
z"/>
<path fill="#F37618" opacity="1.000000" stroke="none" 
	d="
M481.117126,904.802307 
	C510.664856,904.454834 540.388489,904.444092 570.584717,904.427307 
	C569.806458,904.947266 568.556885,905.928528 567.304382,905.932495 
	C539.533936,906.019348 511.763214,906.006226 483.992584,905.961487 
	C483.092285,905.960022 482.192810,905.425232 481.117126,904.802307 
z"/>
<path fill="#F47B22" opacity="1.000000" stroke="none" 
	d="
M539.083618,455.120544 
	C538.143005,455.377808 536.982361,455.317535 535.403687,455.146027 
	C536.278320,454.957520 537.571045,454.880280 539.083618,455.120544 
z"/>
<path fill="#F47B22" opacity="1.000000" stroke="none" 
	d="
M273.788086,454.753967 
	C272.871399,455.210846 271.726624,455.382904 270.140991,455.500122 
	C270.986786,455.119904 272.273407,454.794495 273.788086,454.753967 
z"/>
<path fill="#FEFDFD" opacity="1.000000" stroke="none" 
	d="
M444.887146,1164.674194 
	C459.016937,1157.918213 470.616821,1165.952271 471.394135,1182.799805 
	C458.967560,1182.799805 446.550842,1182.799805 433.545013,1182.799805 
	C434.918976,1175.062622 438.505859,1169.238892 444.887146,1164.674194 
z"/>
<path fill="#F58633" opacity="1.000000" stroke="none" 
	d="
M359.211121,1197.131470 
	C359.695496,1197.249390 360.179871,1197.367432 360.796234,1197.702637 
	C360.673676,1206.065063 360.605469,1214.223877 360.026947,1222.346191 
	C359.890869,1224.257080 358.495148,1226.912476 356.899353,1227.763062 
	C318.074341,1248.460693 264.138184,1232.952637 253.447372,1182.196167 
	C252.058105,1175.600342 252.419861,1168.635986 252.001556,1161.366211 
	C261.533997,1166.072876 271.035431,1171.255493 280.796936,1177.069580 
	C282.013275,1180.491089 282.969543,1183.281250 283.911316,1186.445312 
	C287.596771,1192.216309 290.342438,1198.748169 295.168304,1202.806396 
	C312.485870,1217.369629 343.499176,1214.238403 359.211121,1197.131470 
z"/>
<path fill="#FEFDFD" opacity="1.000000" stroke="none" 
	d="
M246.920105,1136.460449 
	C248.701019,1110.253418 264.471436,1095.179077 287.425018,1087.265137 
	C312.404572,1078.652710 336.690216,1081.376953 358.650116,1096.915894 
	C372.117767,1106.445679 380.499908,1119.508789 380.706268,1136.314819 
	C380.899658,1152.062500 373.683197,1164.777100 361.515228,1174.631348 
	C358.683167,1176.924927 355.533112,1178.825928 352.228790,1181.104370 
	C327.125854,1177.066040 303.837372,1168.390625 281.124695,1156.682861 
	C284.295319,1121.334351 329.562927,1103.996948 361.607025,1133.804443 
	C361.607025,1125.987549 361.595703,1119.249390 361.609772,1112.511230 
	C361.628601,1103.466919 363.824463,1105.227173 354.412903,1101.580566 
	C315.806824,1086.622314 270.362946,1098.113403 255.140686,1142.209961 
	C252.470108,1140.383057 249.799515,1138.556030 246.920105,1136.460449 
z"/>
<path fill="#F58633" opacity="1.000000" stroke="none" 
	d="
M255.349304,1142.448242 
	C270.362946,1098.113403 315.806824,1086.622314 354.412903,1101.580566 
	C363.824463,1105.227173 361.628601,1103.466919 361.609772,1112.511230 
	C361.595703,1119.249390 361.607025,1125.987549 361.607025,1133.804443 
	C329.562927,1103.996948 284.295319,1121.334351 280.800842,1156.510986 
	C272.347046,1152.166504 263.952484,1147.426392 255.349304,1142.448242 
z"/>
<path fill="#FBC79D" opacity="1.000000" stroke="none" 
	d="
M358.768738,1197.064819 
	C343.499176,1214.238403 312.485870,1217.369629 295.168304,1202.806396 
	C290.342438,1198.748169 287.596771,1192.216309 284.308411,1186.412109 
	C296.540619,1190.067993 308.667694,1191.841187 321.160461,1190.881592 
	C332.232819,1192.777344 343.303894,1194.680908 354.379364,1196.558228 
	C355.682434,1196.779175 357.010071,1196.855103 358.768738,1197.064819 
z"/>
<path fill="#FEF8F4" opacity="1.000000" stroke="none" 
	d="
M320.894653,1190.619995 
	C308.667694,1191.841187 296.540619,1190.067993 284.322937,1186.038086 
	C282.969543,1183.281250 282.013275,1180.491089 281.036652,1177.309326 
	C294.220459,1181.397949 307.424652,1185.878174 320.894653,1190.619995 
z"/>
<path fill="#FEF8F4" opacity="1.000000" stroke="none" 
	d="
M767.301880,1087.182617 
	C769.873352,1090.505127 770.622314,1093.716187 767.811646,1097.350830 
	C763.912415,1099.811279 760.063110,1100.561523 757.177734,1096.621948 
	C754.995117,1093.641968 754.645813,1090.278442 758.578613,1088.279541 
	C758.907837,1091.434082 758.907837,1094.005249 758.907837,1096.499512 
	C760.327942,1095.564941 761.556396,1094.919678 762.582703,1094.039062 
	C763.811279,1092.984619 764.867126,1091.728882 765.997803,1090.560425 
	C764.643616,1089.683716 763.366150,1088.628906 761.905273,1088.000000 
	C761.083923,1087.646606 759.959839,1087.996582 758.972107,1088.029663 
	C761.164734,1084.009644 764.082031,1085.748901 767.301880,1087.182617 
M765.962463,1096.436401 
	C765.510986,1095.863037 765.059570,1095.289673 764.608154,1094.716309 
	C764.393799,1094.886841 764.179504,1095.057373 763.965149,1095.227905 
	C764.458191,1095.821899 764.951233,1096.415771 765.962463,1096.436401 
z"/>
<path fill="#F58634" opacity="1.000000" stroke="none" 
	d="
M542.985291,756.044617 
	C520.223328,745.792664 497.451904,735.561646 474.725372,725.231750 
	C473.489410,724.669983 472.228485,723.471680 471.651703,722.251770 
	C454.825195,686.662842 426.884796,662.378357 392.721985,644.374084 
	C387.767029,641.762756 381.052216,640.147522 378.492035,636.006348 
	C376.021820,632.010742 377.833435,625.343628 377.831879,619.850159 
	C377.820312,578.698303 377.825592,537.546387 377.825592,496.394531 
	C377.825592,494.430298 377.825623,492.466064 377.825623,490.195618 
	C425.300201,490.195618 472.352814,490.195618 519.774597,490.195618 
	C522.728333,505.587067 525.867065,520.883179 528.571838,536.255615 
	C534.397888,569.367371 540.005737,602.517517 545.678284,635.656128 
	C545.930054,637.126892 545.940613,638.638916 545.748901,640.855469 
	C545.632446,645.835022 545.995972,650.090637 546.002258,654.346802 
	C546.049988,686.428467 546.077148,718.510559 545.897034,750.591309 
	C545.886780,752.414429 543.999146,754.227112 542.985291,756.044617 
z"/>
<path fill="#F58634" opacity="1.000000" stroke="none" 
	d="
M359.965302,806.040161 
	C381.964294,830.385376 388.138947,858.162170 376.568909,888.313354 
	C364.920288,918.669128 341.707886,935.636353 309.066742,938.278992 
	C267.614685,941.635010 229.803635,910.196960 225.989929,869.811523 
	C221.830917,825.769470 251.103088,788.062927 293.762726,782.856812 
	C319.399200,779.728210 341.396820,787.602600 359.965302,806.040161 
z"/>
<path fill="#F58634" opacity="1.000000" stroke="none" 
	d="
M265.033386,628.012573 
	C265.023346,627.837708 265.013275,627.662781 265.471619,627.137451 
	C266.292542,625.423157 266.838379,624.076782 266.963013,622.692444 
	C267.422882,617.584106 267.672028,612.456909 268.130066,607.348389 
	C269.384094,593.362305 270.737122,579.385010 271.985718,565.398438 
	C272.765045,556.668579 273.375854,547.923584 274.151672,539.193359 
	C275.394684,525.206543 276.938751,511.241180 277.855804,497.234039 
	C278.122040,493.167603 279.028595,491.871857 283.209106,491.907776 
	C305.686249,492.100830 328.167480,492.134155 350.643585,491.887329 
	C355.248138,491.836792 356.103180,493.382294 356.089691,497.599609 
	C355.948120,541.890808 355.942291,586.182800 356.096802,630.473938 
	C356.111908,634.806580 355.065765,636.145081 350.571198,636.108521 
	C324.097870,635.892761 297.621918,636.007507 271.146851,635.989807 
	C269.552429,635.988708 267.958130,635.806396 266.632751,635.724976 
	C266.016846,632.754944 265.525116,630.383789 265.033386,628.012573 
z"/>
<path fill="#F58634" opacity="1.000000" stroke="none" 
	d="
M651.149170,912.477905 
	C647.198608,878.719482 670.174744,855.166260 694.625793,850.673340 
	C717.576721,846.455994 736.714172,853.676697 750.290955,872.513855 
	C764.025208,891.569397 764.864990,912.416870 752.924988,932.608215 
	C741.078735,952.640930 722.630188,961.310486 699.382080,959.233032 
	C677.117065,957.243530 655.268677,939.403992 651.149170,912.477905 
z"/>
<path fill="#F58634" opacity="1.000000" stroke="none" 
	d="
M528.983582,849.605530 
	C520.523926,849.605286 512.561584,849.605286 504.125732,849.605286 
	C504.125732,843.313354 504.125732,837.411926 504.125732,831.184937 
	C501.981476,830.888977 500.254425,830.650574 498.171539,830.363098 
	C498.171539,827.459229 498.171539,824.581482 498.171539,821.374268 
	C514.917725,821.374268 531.631287,821.374268 548.654663,821.374268 
	C548.654663,824.373901 548.654663,827.259216 548.654663,830.398071 
	C546.896301,830.586182 545.278687,830.759216 543.153503,830.986572 
	C543.153503,836.862244 543.153503,842.767883 543.153503,849.605774 
	C538.278381,849.605774 533.879639,849.605774 528.983582,849.605530 
z"/>
<path fill="#F58634" opacity="1.000000" stroke="none" 
	d="
M504.495972,894.575256 
	C504.199585,888.419556 504.199585,882.638672 504.199585,876.666626 
	C501.892242,876.538086 500.139618,876.440491 498.161255,876.330261 
	C498.161255,873.311951 498.161255,870.549744 498.161255,867.420532 
	C514.860352,867.420532 531.536072,867.420532 548.540527,867.420532 
	C548.540527,870.170288 548.540527,872.899902 548.540527,875.964417 
	C546.832520,876.204285 545.109070,876.446289 542.915344,876.754333 
	C542.915344,882.756775 542.915344,888.657593 542.915344,894.950073 
	C529.881653,894.950073 517.336975,894.950073 504.495972,894.575256 
z"/>
<path fill="#F58736" opacity="1.000000" stroke="none" 
	d="
M264.875916,628.373108 
	C265.525116,630.383789 266.016846,632.754944 266.632751,635.724976 
	C267.958130,635.806396 269.552429,635.988708 271.146851,635.989807 
	C297.621918,636.007507 324.097870,635.892761 350.571198,636.108521 
	C355.065765,636.145081 356.111908,634.806580 356.096802,630.473938 
	C355.942291,586.182800 355.948120,541.890808 356.089691,497.599609 
	C356.103180,493.382294 355.248138,491.836792 350.643585,491.887329 
	C328.167480,492.134155 305.686249,492.100830 283.209106,491.907776 
	C279.028595,491.871857 278.122040,493.167603 277.855804,497.234039 
	C276.938751,511.241180 275.394684,525.206543 274.151672,539.193359 
	C273.375854,547.923584 272.765045,556.668579 271.985718,565.398438 
	C270.737122,579.385010 269.384094,593.362305 268.130066,607.348389 
	C267.672028,612.456909 267.422882,617.584106 266.963013,622.692444 
	C266.838379,624.076782 266.292542,625.423157 265.567352,626.892700 
	C266.653625,608.767395 268.051239,590.531250 269.586304,572.306702 
	C271.750488,546.613464 274.012177,520.928345 276.248718,495.241211 
	C276.391632,493.599823 276.676758,491.970825 276.924408,490.121521 
	C303.878082,490.121521 330.602264,490.121521 357.600555,490.121521 
	C357.600555,539.236633 357.600555,588.097046 357.600555,637.209595 
	C326.489960,637.209595 295.585144,637.209595 264.145325,637.209595 
	C264.345734,634.245667 264.532104,631.489624 264.875916,628.373108 
z"/>
<path fill="#F58736" opacity="1.000000" stroke="none" 
	d="
M617.327393,766.226807 
	C614.183777,766.501648 611.388977,766.501648 608.081604,766.501648 
	C608.344360,750.588501 604.537659,736.346680 591.713928,725.449463 
	C599.431824,725.632874 608.535706,731.887146 612.762085,739.840454 
	C617.096680,747.997620 618.489014,756.786560 617.327393,766.226807 
z"/>
<path fill="#F58938" opacity="1.000000" stroke="none" 
	d="
M628.230591,728.101562 
	C644.796692,734.653015 653.078491,749.266602 650.047852,766.431519 
	C647.357544,766.431519 644.620300,766.431519 641.548828,766.431519 
	C641.299255,762.688477 641.253967,759.071777 640.783752,755.511230 
	C639.409485,745.103333 635.056091,736.193298 627.063171,729.198975 
	C626.852600,729.014709 626.966492,728.459595 626.929077,728.077393 
	C627.250244,728.052856 627.571350,728.028259 628.230591,728.101562 
z"/>
<path fill="#F58736" opacity="1.000000" stroke="none" 
	d="
M673.314697,759.063477 
	C672.515503,748.371948 668.365662,739.732239 660.428223,732.601501 
	C673.554443,732.580444 683.887451,749.510681 681.423218,766.395630 
	C679.044800,766.395630 676.620850,766.395630 673.363586,766.395630 
	C673.363586,764.049072 673.363586,761.781494 673.314697,759.063477 
z"/>
<path fill="#F69046" opacity="1.000000" stroke="none" 
	d="
M543.248230,756.289734 
	C543.999146,754.227112 545.886780,752.414429 545.897034,750.591309 
	C546.077148,718.510559 546.049988,686.428467 546.002258,654.346802 
	C545.995972,650.090637 545.632446,645.835022 545.718140,641.289307 
	C546.612244,647.413086 547.713135,653.823914 547.750000,660.240906 
	C547.932068,691.972534 547.833618,723.705811 547.826355,755.438477 
	C547.826172,756.096741 547.731628,756.755005 547.630432,758.073242 
	C546.100647,757.501892 544.805908,757.018372 543.248230,756.289734 
z"/>
<path fill="#F58938" opacity="1.000000" stroke="none" 
	d="
M806.922180,827.735962 
	C802.505432,827.735779 798.571472,827.735779 794.363159,827.735779 
	C794.363159,824.855957 794.363159,822.448425 794.363159,819.647461 
	C800.970337,819.647461 807.625244,819.647461 814.572510,819.647461 
	C814.572510,822.139648 814.572510,824.548767 814.572510,827.736084 
	C812.211121,827.736084 809.808044,827.736084 806.922180,827.735962 
z"/>
<path fill="#F58633" opacity="1.000000" stroke="none" 
	d="
M840.352722,804.670044 
	C845.271667,809.321167 849.663574,813.897766 850.664551,820.449158 
	C850.236084,820.926758 849.807556,821.404358 849.379089,821.881897 
	C847.267151,820.622131 844.732849,819.752747 843.132019,818.020569 
	C839.888672,814.511292 836.995789,810.640076 834.306030,806.681885 
	C833.564514,805.590820 834.050354,803.665710 833.972961,802.123352 
	C835.339722,802.404602 836.744446,802.572327 838.058655,803.010986 
	C838.808899,803.261475 839.411743,803.953613 840.352722,804.670044 
z"/>
<path fill="#939699" opacity="1.000000" stroke="none" 
	d="
M758.987244,1088.014648 
	C759.959839,1087.996582 761.083923,1087.646606 761.905273,1088.000000 
	C763.366150,1088.628906 764.643616,1089.683716 765.997803,1090.560425 
	C764.867126,1091.728882 763.811279,1092.984619 762.582703,1094.039062 
	C761.556396,1094.919678 760.327942,1095.564941 758.907837,1096.499512 
	C758.907837,1094.005249 758.907837,1091.434082 758.970764,1088.416504 
	C759.033691,1087.970337 759.002380,1087.999512 758.987244,1088.014648 
z"/>
<path fill="#939699" opacity="1.000000" stroke="none" 
	d="
M765.703369,1096.723145 
	C764.951233,1096.415771 764.458191,1095.821899 763.965149,1095.227905 
	C764.179504,1095.057373 764.393799,1094.886841 764.608154,1094.716309 
	C765.059570,1095.289673 765.510986,1095.863037 765.703369,1096.723145 
z"/>
</svg>