<svg version="1.1" id="Layer_1" xmlns="http://www.w3.org/2000/svg" xmlns:xlink="http://www.w3.org/1999/xlink" x="0px" y="0px"
	 width="100%" viewBox="0 0 1024 1024" enable-background="new 0 0 1024 1024" xml:space="preserve">
<path fill="#FFFFFF" opacity="1.000000" stroke="none" 
	d="
M1.000000,358.000000 
	C1.000000,238.666687 1.000000,119.833359 1.000000,1.000032 
	C342.333282,1.000021 683.666565,1.000021 1025.000000,1.000011 
	C1025.000000,342.333252 1025.000000,683.666504 1025.000000,1024.999756 
	C683.666809,1024.999878 342.333618,1024.999878 1.000205,1025.000000 
	C1.000000,802.833313 1.000000,580.666687 1.000000,358.000000 
M253.999542,918.000061 
	C253.999542,918.000061 253.944077,918.012451 253.682846,918.676941 
	C254.108109,919.131836 254.533371,919.586731 254.999512,920.000000 
	C254.999512,920.000000 254.945190,920.021179 254.707016,920.752014 
	C255.487335,922.393921 256.145264,924.108154 257.065979,925.667175 
	C278.853699,962.561035 325.585388,978.322876 365.190002,961.788818 
	C389.835510,951.499939 406.710571,933.638733 415.047089,908.039062 
	C415.047089,908.039062 415.086395,908.137085 415.815338,907.928589 
	C418.506897,907.224609 421.198425,906.520630 423.914703,906.748535 
	C423.996338,908.742798 423.938019,910.754395 424.181519,912.728699 
	C426.315918,930.034302 432.584503,944.600891 450.309052,951.331970 
	C466.403229,957.443909 482.736938,958.165771 499.205841,952.983704 
	C509.017120,949.896545 508.979492,949.795837 508.400299,939.386658 
	C508.307922,937.726807 508.278137,936.062927 508.246857,934.400391 
	C508.145172,929.000366 507.534607,928.561829 502.373016,930.711914 
	C493.304413,934.489624 483.954468,936.254639 474.119385,935.136292 
	C462.648499,933.831787 453.869232,926.187866 452.365631,915.740845 
	C452.154266,914.272095 453.415344,912.591431 454.773987,911.212341 
	C475.277740,911.212341 495.781464,911.212341 516.535828,911.212341 
	C516.610168,909.653503 516.671631,908.364746 517.022888,906.302429 
	C516.953247,902.973999 517.054504,899.631714 516.786926,896.319275 
	C514.703430,870.520935 497.035126,853.977661 471.635406,853.706299 
	C453.669647,853.514282 440.376343,861.441772 430.355804,876.007751 
	C428.662964,874.236816 426.970123,872.465881 424.883667,870.208435 
	C424.330994,870.254089 423.778320,870.299744 423.225647,870.345459 
	C423.627411,870.755859 424.029175,871.166260 424.678741,872.281799 
	C425.426270,874.624573 426.440002,876.919800 426.868378,879.319519 
	C427.901306,885.105774 424.796661,889.926392 419.683899,891.365662 
	C419.683899,888.361267 419.683899,885.266174 419.862915,881.252197 
	C419.217560,874.493225 419.015717,867.657166 417.856964,860.987366 
	C408.146973,805.096802 345.628387,773.124207 294.536469,797.734070 
	C276.178009,806.576904 262.797852,820.422302 252.513214,837.765503 
	C251.372910,836.339294 250.164810,834.961609 249.103241,833.479004 
	C241.492432,822.850037 245.083527,813.697144 257.854980,811.085938 
	C259.883881,810.671082 261.899750,810.192566 263.921661,809.743469 
	C263.806152,809.164001 263.690643,808.584534 263.575104,808.005066 
	C254.666779,809.651917 245.543686,810.575867 236.908218,813.141235 
	C227.567307,815.916199 224.897598,823.034180 228.654053,832.065674 
	C229.981400,835.256897 231.565842,838.507080 233.743759,841.143066 
	C237.952271,846.237061 242.665802,850.913696 246.817902,856.515198 
	C245.907913,862.882080 244.236496,869.250244 244.246796,875.615662 
	C244.268097,888.785706 245.580109,901.873535 251.430664,914.190186 
	C251.944473,914.809814 252.458282,915.429382 253.001755,916.002380 
	C253.001755,916.002380 252.946564,916.005310 252.731598,916.676025 
	C253.142120,917.131958 253.552628,917.587891 253.999542,918.000061 
M606.204651,865.824585 
	C606.036194,866.151489 605.867737,866.478394 605.804504,866.749756 
	C605.804504,866.749756 605.702637,866.688171 605.144714,866.934387 
	C604.680603,867.596375 604.216492,868.258301 603.259888,869.179565 
	C602.834290,869.457642 602.408752,869.735779 601.286316,869.459045 
	C601.286316,865.204407 601.286316,860.949768 601.286316,856.749878 
	C591.433105,856.749878 582.407471,856.749878 573.062866,856.749878 
	C573.062866,882.456970 573.062866,907.736450 572.236511,933.119446 
	C561.622925,935.455750 557.589355,933.685181 553.713806,924.166870 
	C553.357971,920.200928 552.699463,916.235352 552.694031,912.268921 
	C552.648621,879.150635 552.726746,846.032104 552.750549,812.913696 
	C552.751587,811.476135 552.585938,810.038452 552.498291,808.605957 
	C543.239990,808.605957 534.374939,808.605957 525.630676,808.605957 
	C525.427673,809.322998 525.259766,809.639282 525.259766,809.955627 
	C525.253296,849.565369 525.173096,889.175537 525.348267,928.784546 
	C525.377869,935.477356 527.012268,941.984070 531.955627,947.022766 
	C531.955627,947.022766 531.849976,947.104675 532.059937,947.744995 
	C536.751343,954.141418 543.218872,957.006409 550.983215,956.775635 
	C555.936462,956.628479 560.917603,956.197021 565.801941,955.385681 
	C569.062866,954.843933 572.156067,953.659302 575.982117,956.293274 
	C584.021851,956.256531 592.061584,956.219788 600.846069,955.957642 
	C600.981079,954.326111 601.228271,952.695007 601.233582,951.063049 
	C601.279419,936.956543 600.742981,922.820618 601.506653,908.754578 
	C601.938904,900.792053 604.484253,892.944275 606.001465,885.015015 
	C606.001465,885.015015 606.053284,885.078674 606.576477,884.681519 
	C608.419983,882.813782 610.263489,880.946045 612.018677,879.023071 
	C612.018677,879.023071 612.068726,879.114502 612.847656,878.965210 
	C622.697693,875.255676 628.113342,876.321350 633.974854,883.021057 
	C633.974854,883.021057 633.880798,883.071960 633.999878,883.854797 
	C634.709167,886.745361 635.960571,889.621277 636.038757,892.528809 
	C636.507874,909.960693 636.717957,927.399719 636.988220,944.836731 
	C637.046631,948.605896 636.996765,952.376770 636.996765,956.573486 
	C646.161804,956.573486 654.774414,956.598694 663.385681,956.505249 
	C663.855286,956.500183 664.314148,955.506409 664.861938,954.042664 
	C664.852417,938.036865 664.842834,922.031006 665.052734,905.292542 
	C665.043091,904.531738 665.033447,903.770874 665.224609,902.283447 
	C665.399048,900.533569 665.573486,898.783752 666.043030,896.312317 
	C666.946777,893.293701 667.576965,890.158203 668.806763,887.278809 
	C672.187866,879.362305 679.208252,875.747131 688.336853,876.907043 
	C695.287842,877.790283 698.603149,881.606201 700.325439,890.669128 
	C700.604126,892.135864 700.961975,893.587463 701.203674,895.907471 
	C701.203674,915.939270 701.203674,935.971069 701.203674,956.005066 
	C711.175354,956.005066 720.053467,956.005066 728.977295,956.005066 
	C728.977295,932.803040 728.977295,909.907349 729.139648,886.121460 
	C729.078369,884.460876 729.076233,882.795654 728.946777,881.140442 
	C727.660828,864.704224 716.946350,854.121826 700.763672,853.060608 
	C687.884033,852.216064 677.370117,856.809265 668.938354,866.425293 
	C667.119568,868.499390 665.416870,870.675415 663.550232,872.938354 
	C655.295959,852.666870 629.932556,846.223267 612.339050,859.958374 
	C611.784241,860.531250 611.229370,861.104187 610.747986,861.781494 
	C610.747986,861.781494 610.788635,861.660461 610.217957,861.773071 
	C609.820801,862.184570 609.423645,862.596008 608.562927,863.202454 
	C608.376953,863.474121 608.190918,863.745789 607.493408,864.300720 
	C607.213013,864.792297 606.932678,865.283875 606.788330,865.827637 
	C606.788330,865.827637 606.756104,865.685608 606.204651,865.824585 
M151.927689,140.969360 
	C151.927689,140.969360 151.865204,140.840744 151.334106,141.175262 
	C150.830124,142.076767 150.326126,142.978287 149.928894,143.970184 
	C149.928894,143.970184 149.868317,143.844116 149.343430,144.189850 
	C148.856903,145.103119 148.370377,146.016403 147.976028,146.980759 
	C147.976028,146.980759 147.919907,146.891541 147.385773,147.282028 
	C146.553070,148.840897 145.720367,150.399750 144.414581,152.346756 
	C143.900543,153.448090 143.386505,154.549423 142.358444,156.122482 
	C141.275894,158.414948 140.193359,160.707413 138.747101,163.538376 
	C138.445877,164.338135 138.144669,165.137878 137.358444,166.428741 
	C129.014893,185.405457 124.164612,205.257812 124.142876,225.979233 
	C124.004829,357.577789 124.020004,489.176636 124.200928,620.775085 
	C124.212486,629.182190 126.037498,637.586731 126.999451,646.808228 
	C136.123138,691.277649 159.825546,725.886536 197.878922,750.466125 
	C218.871597,764.025940 241.925308,772.131958 267.813751,774.212891 
	C272.633240,774.465820 277.452637,774.938599 282.272186,774.939880 
	C432.712006,774.978271 583.151855,774.979187 733.591675,774.931458 
	C738.401855,774.929932 743.211914,774.358276 748.894775,774.155701 
	C789.414429,769.997375 823.429565,752.754211 850.732544,722.671631 
	C872.566650,698.614685 885.858032,670.373108 890.345398,637.285889 
	C890.832825,631.154175 891.741760,625.022705 891.745667,618.890686 
	C891.827637,488.526978 891.832520,358.163208 891.733154,227.799530 
	C891.728394,221.527802 890.631042,215.256912 890.056885,208.142593 
	C882.976624,161.287292 859.783875,124.440727 820.597168,97.979996 
	C795.764648,81.211899 768.178223,72.273933 737.088623,71.805023 
	C736.089722,71.784950 735.090881,71.747322 734.091980,71.747299 
	C583.547668,71.743340 433.003387,71.741470 282.459106,71.749771 
	C280.965210,71.749855 279.471344,71.886284 277.064392,71.790138 
	C271.767395,72.195457 266.432953,72.328842 261.179718,73.052017 
	C235.039871,76.650497 211.110016,85.837257 189.283600,101.913834 
	C188.480438,102.593124 187.677277,103.272415 186.441986,104.051781 
	C186.148743,104.180588 185.964325,104.400620 185.294601,104.918640 
	C184.526047,105.611092 183.757492,106.303535 182.460587,107.178123 
	C181.938965,107.696754 181.417343,108.215385 180.282333,108.980995 
	C178.852921,110.319954 177.423523,111.658913 175.395386,113.288673 
	C171.933716,116.869102 168.472046,120.449532 164.460983,124.360031 
	C163.536713,125.533180 162.612442,126.706322 161.204636,128.143311 
	C160.794907,128.740356 160.385178,129.337402 159.428436,130.277939 
	C158.555008,131.493881 157.681595,132.709824 156.390167,134.147125 
	C156.145294,134.373398 156.013535,134.652985 155.490768,135.340729 
	C154.951126,136.200211 154.411484,137.059692 153.968842,137.977066 
	C153.968842,137.977066 153.910095,137.880600 153.382843,138.216644 
	C152.861649,139.103149 152.340454,139.989639 151.927689,140.969360 
M786.069092,797.897339 
	C780.916565,794.899109 776.772034,795.312683 773.762573,799.125610 
	C771.117310,802.477051 771.313232,807.344666 774.217957,810.443359 
	C777.510437,813.955688 781.925354,813.985229 787.079712,810.059631 
	C790.055908,806.047119 790.066833,802.176208 786.069092,797.897339 
M744.538818,854.102539 
	C741.434692,854.102539 738.330627,854.102539 735.090271,854.102539 
	C735.090271,880.529602 734.608887,906.317444 735.288025,932.074707 
	C735.641663,945.484497 745.807617,955.997131 757.921448,956.492798 
	C765.293396,956.794495 772.760010,955.196350 780.149292,954.194458 
	C781.203613,954.051453 782.842468,952.487183 782.881958,951.526123 
	C783.132385,945.429138 783.009277,939.316772 783.009277,933.088257 
	C781.990112,933.198425 781.330261,933.222717 780.689575,933.346191 
	C768.711060,935.654480 762.553955,930.858643 761.906860,918.673706 
	C761.818726,917.013184 761.849121,915.345398 761.855286,913.681030 
	C761.922974,895.371460 762.003479,877.061890 762.056213,858.752258 
	C762.060364,857.319336 761.882080,855.885925 761.765808,854.102356 
	C756.120605,854.102356 750.823059,854.102356 744.538818,854.102539 
M738.022888,811.398804 
	C732.705688,816.189087 730.636108,822.021545 732.861267,828.941833 
	C734.715942,834.709778 738.573181,838.713562 744.637512,840.009277 
	C752.106018,841.604980 759.146729,838.018494 762.462036,831.217651 
	C765.734436,824.504761 764.116821,816.710022 758.406372,811.675659 
	C752.864746,806.790039 745.594421,806.520386 738.022888,811.398804 
z"/>
<path fill="#F58634" opacity="1.000000" stroke="none" 
	d="
M267.000549,773.999634 
	C241.925308,772.131958 218.871597,764.025940 197.878922,750.466125 
	C159.825546,725.886536 136.123138,691.277649 127.292282,646.126892 
	C127.628624,643.811829 127.836555,642.162659 127.685410,640.547119 
	C127.193306,635.287659 126.073318,630.040833 126.069717,624.788452 
	C125.977730,490.672638 125.984520,356.556763 126.045784,222.440903 
	C126.048119,217.322144 126.054749,212.025803 127.285240,207.119690 
	C130.501236,194.297058 134.417313,181.650589 137.982010,168.913651 
	C138.236130,168.005676 137.903336,166.933472 137.843445,165.937622 
	C138.144669,165.137878 138.445877,164.338135 139.272552,163.205780 
	C140.822830,160.465714 141.847641,158.058243 142.872467,155.650757 
	C143.386505,154.549423 143.900543,153.448090 145.012009,152.114014 
	C146.379593,150.218033 147.149750,148.554794 147.919922,146.891541 
	C147.919907,146.891541 147.976028,146.980759 148.294739,146.923828 
	C149.031754,145.859314 149.450043,144.851715 149.868317,143.844116 
	C149.868317,143.844116 149.928894,143.970184 150.246368,143.912201 
	C150.997620,142.849731 151.431412,141.845230 151.865204,140.840744 
	C151.865204,140.840744 151.927689,140.969360 152.242172,140.912292 
	C153.007812,139.863693 153.458954,138.872147 153.910095,137.880600 
	C153.910095,137.880600 153.968842,137.977066 154.277679,137.924866 
	C155.055969,136.910416 155.525421,135.948135 155.994888,134.985870 
	C156.013535,134.652985 156.145294,134.373398 156.972504,134.023712 
	C158.361725,132.578339 159.168594,131.256409 159.975433,129.934464 
	C160.385178,129.337402 160.794907,128.740356 161.823547,128.016418 
	C163.298431,126.603004 164.154404,125.316483 165.010376,124.029953 
	C168.472046,120.449532 171.933716,116.869102 176.068207,113.139069 
	C178.125931,111.570984 179.510818,110.152504 180.895721,108.734016 
	C181.417343,108.215385 181.938965,107.696754 183.097717,107.080498 
	C184.452835,106.225868 185.170792,105.468872 185.888748,104.711868 
	C185.964325,104.400620 186.148743,104.180588 187.039505,104.008812 
	C188.388779,103.217430 189.140518,102.469017 189.892273,101.720596 
	C211.110016,85.837257 235.039871,76.650497 261.179718,73.052017 
	C266.432953,72.328842 271.767395,72.195457 277.808105,72.183022 
	C280.027679,72.717369 281.503571,72.982544 282.979492,72.982727 
	C432.937714,73.001526 582.895935,73.003761 732.854126,72.957451 
	C734.575256,72.956924 736.296082,72.310913 738.017090,71.966217 
	C768.178223,72.273933 795.764648,81.211899 820.597168,97.979996 
	C859.783875,124.440727 882.976624,161.287292 889.763428,208.857513 
	C889.662048,214.997910 890.020447,220.423355 890.021729,225.848892 
	C890.052429,354.215515 890.058960,482.582153 890.001892,610.948792 
	C889.999023,617.398254 889.261719,623.844666 889.116821,630.298096 
	C889.059326,632.857544 889.685303,635.432251 890.000122,638.000000 
	C885.858032,670.373108 872.566650,698.614685 850.732544,722.671631 
	C823.429565,752.754211 789.414429,769.997375 748.173096,773.793091 
	C745.643860,773.285339 743.836304,773.013306 742.028687,773.013062 
	C585.578125,772.993347 429.127563,772.990967 272.677002,773.036011 
	C270.784760,773.036560 268.892700,773.664551 267.000549,773.999634 
M580.940247,107.521980 
	C581.269775,107.703224 581.599304,107.884476 582.228943,108.679085 
	C607.964905,125.358459 632.609436,143.500793 655.444092,164.000519 
	C671.728943,178.620163 686.846191,194.328873 697.453735,213.736771 
	C704.922913,227.402679 708.984436,241.789856 704.193909,257.356781 
	C700.397339,269.693665 691.894714,278.484589 681.678284,285.786957 
	C663.448547,298.816925 642.614502,306.245026 621.624939,313.238739 
	C620.197266,313.714386 617.555542,312.583954 616.364746,311.347107 
	C612.915588,307.764496 610.081543,303.592651 606.663940,299.975311 
	C605.303528,298.535431 603.083679,297.178131 601.188965,297.081604 
	C571.650940,295.577393 542.108704,293.428223 512.553650,293.196655 
	C485.150665,292.981934 457.737000,295.165771 430.316467,295.699860 
	C417.373871,295.951935 405.856598,297.772949 399.593323,310.909393 
	C399.524261,311.054260 399.359344,311.150665 399.273407,311.290649 
	C397.567108,314.069458 395.273529,314.202332 392.431641,313.112457 
	C385.918030,310.614502 379.288849,308.414795 372.795990,305.866241 
	C356.959656,299.650299 341.483398,292.714355 328.325134,281.601868 
	C315.069580,270.407196 307.655060,256.677063 309.602997,238.732819 
	C311.032257,225.566696 316.778442,214.246552 324.111725,203.629730 
	C339.212616,181.767380 358.492004,163.877869 379.303986,147.712738 
	C396.885925,134.056427 415.199188,121.341629 433.762726,108.083389 
	C434.163269,107.713737 434.563782,107.344086 435.301208,106.887230 
	C435.221649,106.942101 435.142090,106.996971 434.457550,106.732330 
	C433.877808,107.052780 433.298035,107.373230 431.914001,107.687866 
	C428.249512,108.750633 424.586334,109.817932 420.920319,110.875450 
	C388.405334,120.254868 356.775391,131.947403 326.698578,147.549210 
	C300.958221,160.901535 277.008026,176.716461 258.316620,199.397186 
	C232.462143,230.769836 227.355484,265.464661 242.093552,303.141937 
	C252.719040,330.305603 270.176788,352.831451 290.536926,373.316833 
	C291.872833,374.661011 293.150757,376.062866 295.074738,378.090210 
	C267.740936,384.932373 241.554321,391.901703 215.305099,402.616394 
	C218.117065,405.301483 219.853577,407.255676 221.877106,408.844208 
	C235.919189,419.867706 251.944397,427.046265 268.595581,433.121979 
	C281.653137,437.886414 294.729340,438.850372 308.189392,435.218842 
	C317.316650,432.756317 326.518616,430.568909 335.700531,428.312836 
	C336.982758,427.997803 338.341553,427.994415 340.455292,427.758606 
	C338.391113,432.144531 337.019135,435.730286 335.082214,438.979279 
	C333.285583,441.992889 333.641327,444.153412 335.707397,446.955017 
	C346.225555,461.217346 354.714203,476.662231 361.438232,493.050476 
	C375.751709,527.936218 384.747284,563.929871 384.076111,601.953674 
	C383.904846,611.654297 381.695679,620.252136 373.753662,626.705811 
	C370.015869,629.743164 366.488312,633.098450 363.249359,636.658875 
	C362.091431,637.931763 361.178467,640.512451 361.654877,642.022705 
	C367.805786,661.521851 374.293793,680.914368 380.522400,700.389587 
	C381.672607,703.985962 383.880005,705.805786 387.299042,706.917236 
	C397.090820,710.100098 406.726379,713.807251 416.619904,716.616028 
	C422.229645,718.208679 426.044952,720.944458 428.133453,726.380310 
	C432.270935,737.148987 439.825195,743.589172 451.194977,746.842651 
	C487.916595,757.350830 524.456604,757.792236 561.317932,747.604431 
	C573.233521,744.311157 582.731628,739.084717 587.000244,726.823730 
	C587.323486,725.895447 588.060303,725.116333 588.427063,724.196960 
	C589.894348,720.519836 592.671692,718.594788 596.380859,717.411377 
	C606.980652,714.029358 617.499756,710.395203 628.074097,706.932068 
	C631.635010,705.765808 633.823181,703.729065 635.025391,699.939636 
	C640.603333,682.357605 646.170471,664.758911 652.412415,647.407532 
	C654.735840,640.948730 654.092468,636.804626 648.300110,632.845154 
	C634.688049,623.540466 630.111938,610.205078 630.906982,594.026489 
	C631.939270,573.018555 635.242432,552.446472 640.562317,532.167725 
	C648.739014,500.999237 661.493103,471.918427 680.350830,445.628601 
	C681.238098,444.391693 681.298706,441.940552 680.748474,440.413757 
	C679.275879,436.327576 677.261169,432.436737 674.896301,427.220978 
	C684.661255,429.742432 692.876770,432.169952 701.231079,433.943115 
	C711.572510,436.138062 721.923157,439.223083 732.686829,436.855865 
	C753.235352,432.336670 772.062073,423.785950 789.415100,412.003571 
	C793.009094,409.563293 796.052429,406.312042 800.173584,402.715393 
	C773.698730,391.802979 747.330688,384.895020 720.593140,377.444733 
	C721.676880,375.796906 723.167297,374.983551 724.318237,373.831146 
	C744.468323,353.656219 761.841919,331.487671 772.668518,304.816559 
	C785.212952,273.913635 785.104248,243.550629 767.634399,214.321777 
	C754.149780,191.760696 734.590515,175.356934 712.766052,161.407745 
	C682.126404,141.824341 648.692627,128.359055 614.332336,117.037895 
	C603.778503,113.560600 592.987488,110.803482 582.007019,107.255028 
	C581.658142,107.182465 581.309265,107.109901 580.872009,106.658600 
	C580.706116,106.695992 580.540161,106.733383 580.374268,106.770782 
	C580.600708,106.830582 580.827087,106.890381 580.940247,107.521980 
z"/>
<path fill="#F58735" opacity="1.000000" stroke="none" 
	d="
M553.740601,925.000549 
	C557.589355,933.685181 561.622925,935.455750 573.040161,932.962280 
	C574.232422,931.131653 574.953491,929.459412 574.959351,927.784607 
	C575.035461,906.131653 575.084045,884.477844 574.936768,862.825623 
	C574.912170,859.206665 575.776855,857.696411 579.650940,857.937073 
	C584.628601,858.246338 589.651367,858.218750 594.633118,857.944153 
	C598.292725,857.742371 599.331360,859.255737 599.043396,862.602905 
	C598.844360,864.917419 598.911133,867.269043 599.045105,869.593445 
	C599.158569,871.561401 599.745178,873.114258 602.084717,870.851135 
	C602.094971,870.350342 602.051880,870.150879 602.017334,869.973511 
	C602.026001,869.995605 601.983154,870.013916 601.983154,870.013916 
	C602.408752,869.735779 602.834290,869.457642 603.872803,869.038330 
	C604.891357,868.160828 605.296997,867.424500 605.702637,866.688171 
	C605.702637,866.688171 605.804504,866.749756 606.046753,866.728027 
	C606.444763,866.366089 606.600464,866.025879 606.756104,865.685608 
	C606.756104,865.685608 606.788330,865.827637 607.036743,865.753052 
	C607.525085,865.124756 607.764954,864.571106 608.004883,864.017456 
	C608.190918,863.745789 608.376953,863.474121 609.108398,863.069702 
	C610.032166,862.511475 610.410400,862.085938 610.788574,861.660400 
	C610.788635,861.660461 610.747986,861.781494 611.080444,861.800720 
	C611.914978,861.130005 612.417053,860.440002 612.919189,859.750061 
	C629.932556,846.223267 655.295959,852.666870 663.550232,872.938354 
	C665.416870,870.675415 667.119568,868.499390 668.938354,866.425293 
	C677.370117,856.809265 687.884033,852.216064 700.763672,853.060608 
	C716.946350,854.121826 727.660828,864.704224 728.946777,881.140442 
	C729.076233,882.795654 729.078369,884.460876 728.762329,886.859619 
	C728.256714,889.409912 728.019409,891.221741 728.016846,893.033997 
	C727.989502,912.188843 727.926941,931.344238 728.066223,950.498047 
	C728.091431,953.959473 727.080017,955.239807 723.543823,955.057495 
	C718.560120,954.800476 713.533752,954.719299 708.562317,955.075439 
	C704.251343,955.384216 702.815369,954.149231 702.893433,949.598816 
	C703.176270,933.113831 703.054260,916.620667 702.928589,900.131775 
	C702.915649,898.432434 701.856812,896.741150 701.283264,895.046082 
	C700.961975,893.587463 700.604126,892.135864 700.325439,890.669128 
	C698.603149,881.606201 695.287842,877.790283 688.336853,876.907043 
	C679.208252,875.747131 672.187866,879.362305 668.806763,887.278809 
	C667.576965,890.158203 666.946777,893.293701 665.550171,896.760559 
	C665.046143,899.142578 665.034973,901.076294 665.023804,903.010071 
	C665.033447,903.770874 665.043091,904.531738 664.561035,905.761841 
	C663.713196,907.915344 663.060730,909.597229 663.047424,911.284058 
	C662.932434,925.854187 662.932495,940.425110 662.435974,954.998291 
	C655.497375,954.999878 649.014709,955.146484 642.550354,954.867676 
	C641.333069,954.815125 639.174927,953.080200 639.162231,952.099365 
	C638.950989,935.828369 638.958069,919.553345 639.090881,903.280640 
	C639.105896,901.439453 640.970825,899.422241 640.596619,897.806641 
	C639.669678,893.804932 638.046509,889.945801 636.473877,886.123657 
	C635.990784,884.949524 634.765991,884.080627 633.880798,883.071960 
	C633.880798,883.071960 633.974854,883.021057 633.967529,882.686035 
	C632.891541,877.108154 628.443481,875.900208 624.327393,875.208252 
	C619.859924,874.457275 615.163452,874.733459 612.068726,879.114502 
	C612.068726,879.114502 612.018677,879.023071 611.683594,879.030396 
	C607.876770,879.555420 606.029236,881.496704 606.053284,885.078674 
	C606.053284,885.078674 606.001465,885.015015 605.677856,885.070312 
	C602.573486,892.962463 597.942688,900.675354 597.407654,908.662720 
	C596.379578,924.010010 597.672852,939.512756 597.534424,954.966553 
	C589.649780,954.992493 582.233887,955.002930 574.583252,954.755798 
	C573.025452,953.909790 571.641113,952.714294 570.389954,952.840393 
	C565.505676,953.332458 560.686768,954.501953 555.800537,954.938965 
	C547.824036,955.652405 540.226868,954.784668 534.503235,948.124573 
	C533.959473,947.491882 532.750244,947.431030 531.849976,947.104675 
	C531.849976,947.104675 531.955627,947.022766 531.952026,946.693604 
	C525.917419,935.701355 526.989441,924.001892 526.996155,912.456299 
	C527.002625,901.305664 526.997498,890.155090 526.997498,879.004456 
	C526.997498,858.034607 527.133728,837.063232 526.892090,816.096191 
	C526.838440,811.440186 527.865662,809.399963 532.860168,809.915466 
	C536.812317,810.323486 540.883179,810.366150 544.823914,809.906738 
	C550.052734,809.297180 551.149658,811.320190 551.117249,816.281372 
	C550.897400,849.898254 550.941467,883.517517 551.120728,917.134888 
	C551.134766,919.761353 552.827881,922.378845 553.740601,925.000549 
z"/>
<path fill="#F58633" opacity="1.000000" stroke="none" 
	d="
M453.994873,911.008911 
	C453.415344,912.591431 452.154266,914.272095 452.365631,915.740845 
	C453.869232,926.187866 462.648499,933.831787 474.119385,935.136292 
	C483.954468,936.254639 493.304413,934.489624 502.373016,930.711914 
	C507.534607,928.561829 508.145172,929.000366 508.246857,934.400391 
	C508.278137,936.062927 508.307922,937.726807 508.400299,939.386658 
	C508.979492,949.795837 509.017120,949.896545 499.205841,952.983704 
	C482.736938,958.165771 466.403229,957.443909 450.309052,951.331970 
	C432.584503,944.600891 426.315918,930.034302 424.181519,912.728699 
	C423.938019,910.754395 423.996338,908.742798 424.111084,906.080444 
	C424.958221,904.973816 425.609039,904.535339 426.564240,904.052307 
	C427.581604,903.610596 428.294556,903.213379 429.272186,902.727478 
	C430.059601,902.124023 430.582336,901.609192 431.077820,901.050049 
	C431.050507,901.005615 431.061798,901.109253 431.318268,901.033936 
	C431.751678,900.665894 431.928589,900.373169 432.051514,900.058960 
	C431.997528,900.037537 432.086334,900.112549 432.346375,900.048401 
	C432.774139,899.684082 432.941895,899.383850 433.080994,899.040894 
	C433.052368,898.998108 433.070557,899.099426 433.349304,899.034302 
	C433.875305,898.681641 434.122559,898.394043 434.611694,897.925171 
	C435.290009,896.857422 435.726471,895.971069 436.369476,894.851685 
	C436.368622,891.751892 436.161224,888.885193 435.919922,885.666687 
	C434.231049,882.340210 432.576111,879.365417 430.921204,876.390686 
	C440.376343,861.441772 453.669647,853.514282 471.635406,853.706299 
	C497.035126,853.977661 514.703430,870.520935 516.786926,896.319275 
	C517.054504,899.631714 516.953247,902.973999 516.476685,906.810913 
	C514.034363,908.211365 512.147278,909.854675 510.240753,909.877563 
	C493.206482,910.081604 476.168640,909.971375 459.132263,910.046326 
	C457.418427,910.053894 455.707275,910.673401 453.994873,911.008911 
M458.677887,880.175049 
	C455.058655,884.321045 452.343811,888.868225 451.730377,894.784546 
	C464.690948,894.784546 477.098389,894.784546 489.660583,894.784546 
	C488.890259,886.366150 486.803650,879.009094 478.367920,875.537354 
	C471.113037,872.551636 464.709442,874.235046 458.677887,880.175049 
z"/>
<path fill="#FBC79D" opacity="1.000000" stroke="none" 
	d="
M251.893341,913.866272 
	C245.580109,901.873535 244.268097,888.785706 244.246796,875.615662 
	C244.236496,869.250244 245.907913,862.882080 247.312042,856.258301 
	C255.228149,861.633972 262.650085,867.266541 270.038757,873.374023 
	C270.298676,879.322937 270.179688,884.855591 270.949005,890.261841 
	C278.275757,941.749329 333.330627,962.004211 375.040375,939.719482 
	C376.546936,938.914673 377.941437,936.476685 378.048767,934.718079 
	C378.565460,926.252625 378.622009,917.759155 379.274536,909.223022 
	C390.864868,909.012878 402.022583,908.855347 413.089935,909.081787 
	C407.282593,923.432556 398.558411,935.066345 386.946686,944.802124 
	C354.273590,972.196594 302.416748,970.550720 272.061981,940.531128 
	C265.759430,934.298157 260.620422,926.888550 254.945190,920.021179 
	C254.945190,920.021179 254.999512,920.000000 255.018707,919.703979 
	C254.673279,918.942871 254.308670,918.477661 253.944061,918.012451 
	C253.944077,918.012451 253.999542,918.000061 254.009979,917.705688 
	C253.662460,916.942627 253.304504,916.473999 252.946548,916.005310 
	C252.946564,916.005310 253.001755,916.002380 253.003601,915.694946 
	C252.634750,914.880432 252.264038,914.373352 251.893341,913.866272 
z"/>
<path fill="#96989A" opacity="1.000000" stroke="none" 
	d="
M270.072021,872.899170 
	C262.650085,867.266541 255.228149,861.633972 247.488098,855.882324 
	C242.665802,850.913696 237.952271,846.237061 233.743759,841.143066 
	C231.565842,838.507080 229.981400,835.256897 228.654053,832.065674 
	C224.897598,823.034180 227.567307,815.916199 236.908218,813.141235 
	C245.543686,810.575867 254.666779,809.651917 263.575104,808.005066 
	C263.690643,808.584534 263.806152,809.164001 263.921661,809.743469 
	C261.899750,810.192566 259.883881,810.671082 257.854980,811.085938 
	C245.083527,813.697144 241.492432,822.850037 249.103241,833.479004 
	C250.164810,834.961609 251.372910,836.339294 252.949707,838.224487 
	C257.178192,841.848206 260.970215,845.012939 264.961609,848.447937 
	C267.939789,850.495972 270.718628,852.273743 273.697083,854.351440 
	C282.196045,859.401978 290.495422,864.152527 299.114807,869.076294 
	C321.873108,880.387268 345.152405,889.059814 370.277435,893.501038 
	C384.211975,896.014526 397.830963,897.306641 411.597809,895.041260 
	C415.848602,894.341797 418.758636,893.030334 418.256561,887.861633 
	C418.078491,886.028259 419.171265,884.071472 419.683899,882.171021 
	C419.683899,885.266174 419.683899,888.361267 419.683899,891.365662 
	C424.796661,889.926392 427.901306,885.105774 426.868378,879.319519 
	C426.440002,876.919800 425.426270,874.624573 424.772705,871.714844 
	C425.003540,870.997009 425.140381,870.846008 425.277283,870.695007 
	C426.970123,872.465881 428.662964,874.236816 430.638489,876.199219 
	C432.576111,879.365417 434.231049,882.340210 435.640686,885.946533 
	C435.651215,889.413574 435.907074,892.249146 436.162933,895.084656 
	C435.726471,895.971069 435.290009,896.857422 434.322266,897.982910 
	C433.550873,898.514526 433.310730,898.807007 433.070557,899.099426 
	C433.070557,899.099426 433.052368,898.998108 432.837158,899.128174 
	C432.443420,899.542969 432.264862,899.827759 432.086304,900.112549 
	C432.086334,900.112549 431.997528,900.037537 431.806946,900.147766 
	C431.431458,900.541748 431.246613,900.825500 431.061768,901.109253 
	C431.061798,901.109253 431.050507,901.005615 430.760071,901.051453 
	C429.982239,901.670227 429.494873,902.243225 429.007507,902.816162 
	C428.294556,903.213379 427.581604,903.610596 426.135284,904.022949 
	C421.963409,905.404419 418.524902,906.770752 415.086395,908.137085 
	C415.086395,908.137085 415.047089,908.039062 414.815613,908.046143 
	C414.116180,908.268127 413.648224,908.483032 413.180267,908.697876 
	C402.022583,908.855347 390.864868,909.012878 379.012360,909.156372 
	C377.956238,909.138733 377.594910,909.135071 376.794678,909.064453 
	C372.421661,908.448914 368.471863,907.993530 364.556702,907.332703 
	C356.074646,905.901062 347.610352,904.364136 338.874176,902.610840 
	C325.437408,897.884888 312.265259,893.418274 298.850952,888.706116 
	C289.096558,883.273376 279.584290,878.086243 270.072021,872.899170 
z"/>
<path fill="#F58633" opacity="1.000000" stroke="none" 
	d="
M745.032104,854.102417 
	C750.823059,854.102356 756.120605,854.102356 761.765808,854.102356 
	C761.882080,855.885925 762.060364,857.319336 762.056213,858.752258 
	C762.003479,877.061890 761.922974,895.371460 761.855286,913.681030 
	C761.849121,915.345398 761.818726,917.013184 761.906860,918.673706 
	C762.553955,930.858643 768.711060,935.654480 780.689575,933.346191 
	C781.330261,933.222717 781.990112,933.198425 783.009277,933.088257 
	C783.009277,939.316772 783.132385,945.429138 782.881958,951.526123 
	C782.842468,952.487183 781.203613,954.051453 780.149292,954.194458 
	C772.760010,955.196350 765.293396,956.794495 757.921448,956.492798 
	C745.807617,955.997131 735.641663,945.484497 735.288025,932.074707 
	C734.608887,906.317444 735.090271,880.529602 735.090271,854.102539 
	C738.330627,854.102539 741.434692,854.102539 745.032104,854.102417 
z"/>
<path fill="#FCC79C" opacity="1.000000" stroke="none" 
	d="
M419.773376,881.711609 
	C419.171265,884.071472 418.078491,886.028259 418.256561,887.861633 
	C418.758636,893.030334 415.848602,894.341797 411.597809,895.041260 
	C397.830963,897.306641 384.211975,896.014526 370.576416,893.303711 
	C373.033630,891.252441 375.642700,889.746826 377.999878,887.916809 
	C391.238678,877.638855 399.214203,864.310730 398.711060,847.333801 
	C398.225342,830.944824 389.917511,818.083374 376.670685,808.953430 
	C351.358276,791.507751 324.217712,789.969788 296.766357,802.925659 
	C278.036346,811.765442 266.080872,826.484863 264.762238,848.177673 
	C260.970215,845.012939 257.178192,841.848206 253.248993,838.396667 
	C262.797852,820.422302 276.178009,806.576904 294.536469,797.734070 
	C345.628387,773.124207 408.146973,805.096802 417.856964,860.987366 
	C419.015717,867.657166 419.217560,874.493225 419.773376,881.711609 
z"/>
<path fill="#F47E26" opacity="1.000000" stroke="none" 
	d="
M267.407166,774.106262 
	C268.892700,773.664551 270.784760,773.036560 272.677002,773.036011 
	C429.127563,772.990967 585.578125,772.993347 742.028687,773.013062 
	C743.836304,773.013306 745.643860,773.285339 747.736755,773.741455 
	C743.211914,774.358276 738.401855,774.929932 733.591675,774.931458 
	C583.151855,774.979187 432.712006,774.978271 282.272186,774.939880 
	C277.452637,774.938599 272.633240,774.465820 267.407166,774.106262 
z"/>
<path fill="#F68837" opacity="1.000000" stroke="none" 
	d="
M137.600952,166.183182 
	C137.903336,166.933472 138.236130,168.005676 137.982010,168.913651 
	C134.417313,181.650589 130.501236,194.297058 127.285240,207.119690 
	C126.054749,212.025803 126.048119,217.322144 126.045784,222.440903 
	C125.984520,356.556763 125.977730,490.672638 126.069717,624.788452 
	C126.073318,630.040833 127.193306,635.287659 127.685410,640.547119 
	C127.836555,642.162659 127.628624,643.811829 127.302002,645.718994 
	C126.037498,637.586731 124.212486,629.182190 124.200928,620.775085 
	C124.020004,489.176636 124.004829,357.577789 124.142876,225.979233 
	C124.164612,205.257812 129.014893,185.405457 137.600952,166.183182 
z"/>
<path fill="#F6944B" opacity="1.000000" stroke="none" 
	d="
M890.172729,637.642944 
	C889.685303,635.432251 889.059326,632.857544 889.116821,630.298096 
	C889.261719,623.844666 889.999023,617.398254 890.001892,610.948792 
	C890.058960,482.582153 890.052429,354.215515 890.021729,225.848892 
	C890.020447,220.423355 889.662048,214.997910 889.756287,209.279022 
	C890.631042,215.256912 891.728394,221.527802 891.733154,227.799530 
	C891.832520,358.163208 891.827637,488.526978 891.745667,618.890686 
	C891.741760,625.022705 890.832825,631.154175 890.172729,637.642944 
z"/>
<path fill="#F58633" opacity="1.000000" stroke="none" 
	d="
M738.317383,811.170166 
	C745.594421,806.520386 752.864746,806.790039 758.406372,811.675659 
	C764.116821,816.710022 765.734436,824.504761 762.462036,831.217651 
	C759.146729,838.018494 752.106018,841.604980 744.637512,840.009277 
	C738.573181,838.713562 734.715942,834.709778 732.861267,828.941833 
	C730.636108,822.021545 732.705688,816.189087 738.317383,811.170166 
z"/>
<path fill="#939699" opacity="1.000000" stroke="none" 
	d="
M413.089935,909.081787 
	C413.648224,908.483032 414.116180,908.268127 414.861206,908.072754 
	C406.710571,933.638733 389.835510,951.499939 365.190002,961.788818 
	C325.585388,978.322876 278.853699,962.561035 257.065979,925.667175 
	C256.145264,924.108154 255.487335,922.393921 254.826096,920.386597 
	C260.620422,926.888550 265.759430,934.298157 272.061981,940.531128 
	C302.416748,970.550720 354.273590,972.196594 386.946686,944.802124 
	C398.558411,935.066345 407.282593,923.432556 413.089935,909.081787 
z"/>
<path fill="#F68837" opacity="1.000000" stroke="none" 
	d="
M553.727173,924.583740 
	C552.827881,922.378845 551.134766,919.761353 551.120728,917.134888 
	C550.941467,883.517517 550.897400,849.898254 551.117249,816.281372 
	C551.149658,811.320190 550.052734,809.297180 544.823914,809.906738 
	C540.883179,810.366150 536.812317,810.323486 532.860168,809.915466 
	C527.865662,809.399963 526.838440,811.440186 526.892090,816.096191 
	C527.133728,837.063232 526.997498,858.034607 526.997498,879.004456 
	C526.997498,890.155090 527.002625,901.305664 526.996155,912.456299 
	C526.989441,924.001892 525.917419,935.701355 531.918823,946.751648 
	C527.012268,941.984070 525.377869,935.477356 525.348267,928.784546 
	C525.173096,889.175537 525.253296,849.565369 525.259766,809.955627 
	C525.259766,809.639282 525.427673,809.322998 525.630676,808.605957 
	C534.374939,808.605957 543.239990,808.605957 552.498291,808.605957 
	C552.585938,810.038452 552.751587,811.476135 552.750549,812.913696 
	C552.726746,846.032104 552.648621,879.150635 552.694031,912.268921 
	C552.699463,916.235352 553.357971,920.200928 553.727173,924.583740 
z"/>
<path fill="#F37315" opacity="1.000000" stroke="none" 
	d="
M737.552856,71.885620 
	C736.296082,72.310913 734.575256,72.956924 732.854126,72.957451 
	C582.895935,73.003761 432.937714,73.001526 282.979492,72.982727 
	C281.503571,72.982544 280.027679,72.717369 278.264618,72.267487 
	C279.471344,71.886284 280.965210,71.749855 282.459106,71.749771 
	C433.003387,71.741470 583.547668,71.743340 734.091980,71.747299 
	C735.090881,71.747322 736.089722,71.784950 737.552856,71.885620 
z"/>
<path fill="#F68837" opacity="1.000000" stroke="none" 
	d="
M598.003235,954.951050 
	C597.672852,939.512756 596.379578,924.010010 597.407654,908.662720 
	C597.942688,900.675354 602.573486,892.962463 605.716003,885.085205 
	C604.484253,892.944275 601.938904,900.792053 601.506653,908.754578 
	C600.742981,922.820618 601.279419,936.956543 601.233582,951.063049 
	C601.228271,952.695007 600.981079,954.326111 600.316406,955.785034 
	C599.192261,955.392029 598.597717,955.171570 598.003235,954.951050 
z"/>
<path fill="#F47E26" opacity="1.000000" stroke="none" 
	d="
M602.031372,871.152466 
	C599.745178,873.114258 599.158569,871.561401 599.045105,869.593445 
	C598.911133,867.269043 598.844360,864.917419 599.043396,862.602905 
	C599.331360,859.255737 598.292725,857.742371 594.633118,857.944153 
	C589.651367,858.218750 584.628601,858.246338 579.650940,857.937073 
	C575.776855,857.696411 574.912170,859.206665 574.936768,862.825623 
	C575.084045,884.477844 575.035461,906.131653 574.959351,927.784607 
	C574.953491,929.459412 574.232422,931.131653 573.453308,932.910522 
	C573.062866,907.736450 573.062866,882.456970 573.062866,856.749878 
	C582.407471,856.749878 591.433105,856.749878 601.286316,856.749878 
	C601.286316,860.949768 601.286316,865.204407 601.634766,869.736450 
	C601.983154,870.013916 602.026001,869.995605 601.696167,869.888916 
	C601.588013,870.238953 601.809692,870.695740 602.031372,871.152466 
z"/>
<path fill="#F68837" opacity="1.000000" stroke="none" 
	d="
M633.940308,883.463379 
	C634.765991,884.080627 635.990784,884.949524 636.473877,886.123657 
	C638.046509,889.945801 639.669678,893.804932 640.596619,897.806641 
	C640.970825,899.422241 639.105896,901.439453 639.090881,903.280640 
	C638.958069,919.553345 638.950989,935.828369 639.162231,952.099365 
	C639.174927,953.080200 641.333069,954.815125 642.550354,954.867676 
	C649.014709,955.146484 655.497375,954.999878 662.750610,955.010315 
	C663.944397,955.004272 664.361206,954.988586 664.777954,954.972900 
	C664.314148,955.506409 663.855286,956.500183 663.385681,956.505249 
	C654.774414,956.598694 646.161804,956.573486 636.996765,956.573486 
	C636.996765,952.376770 637.046631,948.605896 636.988220,944.836731 
	C636.717957,927.399719 636.507874,909.960693 636.038757,892.528809 
	C635.960571,889.621277 634.709167,886.745361 633.940308,883.463379 
z"/>
<path fill="#F37315" opacity="1.000000" stroke="none" 
	d="
M701.243469,895.476807 
	C701.856812,896.741150 702.915649,898.432434 702.928589,900.131775 
	C703.054260,916.620667 703.176270,933.113831 702.893433,949.598816 
	C702.815369,954.149231 704.251343,955.384216 708.562317,955.075439 
	C713.533752,954.719299 718.560120,954.800476 723.543823,955.057495 
	C727.080017,955.239807 728.091431,953.959473 728.066223,950.498047 
	C727.926941,931.344238 727.989502,912.188843 728.016846,893.033997 
	C728.019409,891.221741 728.256714,889.409912 728.681152,887.304749 
	C728.977295,909.907349 728.977295,932.803040 728.977295,956.005066 
	C720.053467,956.005066 711.175354,956.005066 701.203674,956.005066 
	C701.203674,935.971069 701.203674,915.939270 701.243469,895.476807 
z"/>
<path fill="#F37315" opacity="1.000000" stroke="none" 
	d="
M454.384430,911.110596 
	C455.707275,910.673401 457.418427,910.053894 459.132263,910.046326 
	C476.168640,909.971375 493.206482,910.081604 510.240753,909.877563 
	C512.147278,909.854675 514.034363,908.211365 516.331787,907.197754 
	C516.671631,908.364746 516.610168,909.653503 516.535828,911.212341 
	C495.781464,911.212341 475.277740,911.212341 454.384430,911.110596 
z"/>
<path fill="#F68837" opacity="1.000000" stroke="none" 
	d="
M531.954956,947.424805 
	C532.750244,947.431030 533.959473,947.491882 534.503235,948.124573 
	C540.226868,954.784668 547.824036,955.652405 555.800537,954.938965 
	C560.686768,954.501953 565.505676,953.332458 570.389954,952.840393 
	C571.641113,952.714294 573.025452,953.909790 574.651978,955.050964 
	C574.988831,955.802734 575.022278,956.001770 575.055786,956.200867 
	C572.156067,953.659302 569.062866,954.843933 565.801941,955.385681 
	C560.917603,956.197021 555.936462,956.628479 550.983215,956.775635 
	C543.218872,957.006409 536.751343,954.141418 531.954956,947.424805 
z"/>
<path fill="#F4791D" opacity="1.000000" stroke="none" 
	d="
M664.819946,954.507812 
	C664.361206,954.988586 663.944397,955.004272 663.212891,955.007935 
	C662.932495,940.425110 662.932434,925.854187 663.047424,911.284058 
	C663.060730,909.597229 663.713196,907.915344 664.451294,906.128174 
	C664.842834,922.031006 664.852417,938.036865 664.819946,954.507812 
z"/>
<path fill="#87898B" opacity="1.000000" stroke="none" 
	d="
M786.519531,810.525513 
	C781.925354,813.985229 777.510437,813.955688 774.217957,810.443359 
	C771.313232,807.344666 771.117310,802.477051 773.762573,799.125610 
	C776.772034,795.312683 780.916565,794.899109 786.077271,798.400757 
	C785.942139,799.051086 785.798828,799.197937 785.295166,799.182068 
	C782.096191,797.909851 779.099792,795.558533 776.987000,800.013672 
	C777.004333,799.996704 777.040039,799.964050 776.654541,799.761902 
	C772.494690,802.106018 772.768311,805.514587 775.018555,808.601013 
	C777.951355,812.623535 781.842163,811.949829 785.874512,809.884705 
	C786.230652,810.242859 786.375061,810.384216 786.519531,810.525513 
z"/>
<path fill="#F68837" opacity="1.000000" stroke="none" 
	d="
M612.458191,879.039856 
	C615.163452,874.733459 619.859924,874.457275 624.327393,875.208252 
	C628.443481,875.900208 632.891541,877.108154 633.938721,882.731079 
	C628.113342,876.321350 622.697693,875.255676 612.458191,879.039856 
z"/>
<path fill="#F37315" opacity="1.000000" stroke="none" 
	d="
M575.518921,956.247070 
	C575.022278,956.001770 574.988831,955.802734 574.886719,955.308594 
	C582.233887,955.002930 589.649780,954.992493 597.534424,954.966553 
	C598.597717,955.171570 599.192261,955.392029 599.944031,955.897766 
	C592.061584,956.219788 584.021851,956.256531 575.518921,956.247070 
z"/>
<path fill="#87898B" opacity="1.000000" stroke="none" 
	d="
M786.306030,798.689514 
	C790.066833,802.176208 790.055908,806.047119 786.799622,810.292603 
	C786.375061,810.384216 786.230652,810.242859 786.014099,809.562988 
	C788.589355,805.716736 787.843262,802.509460 785.655457,799.344849 
	C785.798828,799.197937 785.942139,799.051086 786.306030,798.689514 
z"/>
<path fill="#939699" opacity="1.000000" stroke="none" 
	d="
M415.450867,908.032837 
	C418.524902,906.770752 421.963409,905.404419 425.830872,904.067505 
	C425.609039,904.535339 424.958221,904.973816 424.098694,905.614441 
	C421.198425,906.520630 418.506897,907.224609 415.450867,908.032837 
z"/>
<path fill="#F68837" opacity="1.000000" stroke="none" 
	d="
M606.314880,884.880127 
	C606.029236,881.496704 607.876770,879.555420 611.727783,879.058044 
	C610.263489,880.946045 608.419983,882.813782 606.314880,884.880127 
z"/>
<path fill="#F68837" opacity="1.000000" stroke="none" 
	d="
M142.615448,155.886627 
	C141.847641,158.058243 140.822830,160.465714 139.454407,162.936539 
	C140.193359,160.707413 141.275894,158.414948 142.615448,155.886627 
z"/>
<path fill="#F68837" opacity="1.000000" stroke="none" 
	d="
M180.589020,108.857506 
	C179.510818,110.152504 178.125931,111.570984 176.367569,112.993668 
	C177.423523,111.658913 178.852921,110.319954 180.589020,108.857506 
z"/>
<path fill="#F4791D" opacity="1.000000" stroke="none" 
	d="
M665.124207,902.646729 
	C665.034973,901.076294 665.046143,899.142578 665.402588,897.121338 
	C665.573486,898.783752 665.399048,900.533569 665.124207,902.646729 
z"/>
<path fill="#F68837" opacity="1.000000" stroke="none" 
	d="
M147.652847,147.086792 
	C147.149750,148.554794 146.379593,150.218033 145.248550,151.919952 
	C145.720367,150.399750 146.553070,148.840897 147.652847,147.086792 
z"/>
<path fill="#F68837" opacity="1.000000" stroke="none" 
	d="
M159.701935,130.106201 
	C159.168594,131.256409 158.361725,132.578339 157.181519,133.913025 
	C157.681595,132.709824 158.555008,131.493881 159.701935,130.106201 
z"/>
<path fill="#F68837" opacity="1.000000" stroke="none" 
	d="
M164.735687,124.194992 
	C164.154404,125.316483 163.298431,126.603004 162.065308,127.884499 
	C162.612442,126.706322 163.536713,125.533180 164.735687,124.194992 
z"/>
<path fill="#F68837" opacity="1.000000" stroke="none" 
	d="
M189.587936,101.817215 
	C189.140518,102.469017 188.388779,103.217430 187.255569,103.958771 
	C187.677277,103.272415 188.480438,102.593124 189.587936,101.817215 
z"/>
<path fill="#F68837" opacity="1.000000" stroke="none" 
	d="
M185.591675,104.815254 
	C185.170792,105.468872 184.452835,106.225868 183.361908,106.989426 
	C183.757492,106.303535 184.526047,105.611092 185.591675,104.815254 
z"/>
<path fill="#F68837" opacity="1.000000" stroke="none" 
	d="
M149.605881,144.016983 
	C149.450043,144.851715 149.031754,145.859314 148.248657,146.898285 
	C148.370377,146.016403 148.856903,145.103119 149.605881,144.016983 
z"/>
<path fill="#F68837" opacity="1.000000" stroke="none" 
	d="
M155.742828,135.163300 
	C155.525421,135.948135 155.055969,136.910416 154.229187,137.895935 
	C154.411484,137.059692 154.951126,136.200211 155.742828,135.163300 
z"/>
<path fill="#F68837" opacity="1.000000" stroke="none" 
	d="
M151.599655,141.007996 
	C151.431412,141.845230 150.997620,142.849731 150.192993,143.867004 
	C150.326126,142.978287 150.830124,142.076767 151.599655,141.007996 
z"/>
<path fill="#F68837" opacity="1.000000" stroke="none" 
	d="
M153.646469,138.048615 
	C153.458954,138.872147 153.007812,139.863693 152.187958,140.865692 
	C152.340454,139.989639 152.861649,139.103149 153.646469,138.048615 
z"/>
<path fill="#F47E26" opacity="1.000000" stroke="none" 
	d="
M605.423706,866.811279 
	C605.296997,867.424500 604.891357,868.160828 604.119019,868.908691 
	C604.216492,868.258301 604.680603,867.596375 605.423706,866.811279 
z"/>
<path fill="#F47E26" opacity="1.000000" stroke="none" 
	d="
M612.629150,859.854248 
	C612.417053,860.440002 611.914978,861.130005 611.043701,861.748535 
	C611.229370,861.104187 611.784241,860.531250 612.629150,859.854248 
z"/>
<path fill="#939699" opacity="1.000000" stroke="none" 
	d="
M251.662003,914.028198 
	C252.264038,914.373352 252.634750,914.880432 252.988770,915.718262 
	C252.458282,915.429382 251.944473,914.809814 251.662003,914.028198 
z"/>
<path fill="#F47E26" opacity="1.000000" stroke="none" 
	d="
M610.503296,861.716736 
	C610.410400,862.085938 610.032166,862.511475 609.340210,862.972229 
	C609.423645,862.596008 609.820801,862.184570 610.503296,861.716736 
z"/>
<path fill="#F47E26" opacity="1.000000" stroke="none" 
	d="
M607.749146,864.159058 
	C607.764954,864.571106 607.525085,865.124756 606.968750,865.726929 
	C606.932678,865.283875 607.213013,864.792297 607.749146,864.159058 
z"/>
<path fill="#96989A" opacity="1.000000" stroke="none" 
	d="
M424.648834,871.362305 
	C424.029175,871.166260 423.627411,870.755859 423.225647,870.345459 
	C423.778320,870.299744 424.330994,870.254089 425.080444,870.451721 
	C425.140381,870.846008 425.003540,870.997009 424.648834,871.362305 
z"/>
<path fill="#939699" opacity="1.000000" stroke="none" 
	d="
M253.813446,918.344727 
	C254.308670,918.477661 254.673279,918.942871 254.998260,919.724854 
	C254.533371,919.586731 254.108109,919.131836 253.813446,918.344727 
z"/>
<path fill="#939699" opacity="1.000000" stroke="none" 
	d="
M252.839066,916.340698 
	C253.304504,916.473999 253.662460,916.942627 253.991791,917.727539 
	C253.552628,917.587891 253.142120,917.131958 252.839066,916.340698 
z"/>
<path fill="#F47E26" opacity="1.000000" stroke="none" 
	d="
M606.480408,865.755127 
	C606.600464,866.025879 606.444763,866.366089 605.994141,866.755737 
	C605.867737,866.478394 606.036194,866.151489 606.480408,865.755127 
z"/>
<path fill="#FEF8F4" opacity="1.000000" stroke="none" 
	d="
M433.188782,108.210136 
	C415.199188,121.341629 396.885925,134.056427 379.303986,147.712738 
	C358.492004,163.877869 339.212616,181.767380 324.111725,203.629730 
	C316.778442,214.246552 311.032257,225.566696 309.602997,238.732819 
	C307.655060,256.677063 315.069580,270.407196 328.325134,281.601868 
	C341.483398,292.714355 356.959656,299.650299 372.795990,305.866241 
	C379.288849,308.414795 385.918030,310.614502 392.431641,313.112457 
	C395.273529,314.202332 397.567108,314.069458 399.273407,311.290649 
	C399.359344,311.150665 399.524261,311.054260 399.593323,310.909393 
	C405.856598,297.772949 417.373871,295.951935 430.316467,295.699860 
	C457.737000,295.165771 485.150665,292.981934 512.553650,293.196655 
	C542.108704,293.428223 571.650940,295.577393 601.188965,297.081604 
	C603.083679,297.178131 605.303528,298.535431 606.663940,299.975311 
	C610.081543,303.592651 612.915588,307.764496 616.364746,311.347107 
	C617.555542,312.583954 620.197266,313.714386 621.624939,313.238739 
	C642.614502,306.245026 663.448547,298.816925 681.678284,285.786957 
	C691.894714,278.484589 700.397339,269.693665 704.193909,257.356781 
	C708.984436,241.789856 704.922913,227.402679 697.453735,213.736771 
	C686.846191,194.328873 671.728943,178.620163 655.444092,164.000519 
	C632.609436,143.500793 607.964905,125.358459 582.172546,108.284683 
	C582.116150,107.890282 582.305054,107.716576 582.305054,107.716583 
	C592.987488,110.803482 603.778503,113.560600 614.332336,117.037895 
	C648.692627,128.359055 682.126404,141.824341 712.766052,161.407745 
	C734.590515,175.356934 754.149780,191.760696 767.634399,214.321777 
	C785.104248,243.550629 785.212952,273.913635 772.668518,304.816559 
	C761.841919,331.487671 744.468323,353.656219 724.318237,373.831146 
	C723.167297,374.983551 721.676880,375.796906 720.593140,377.444733 
	C747.330688,384.895020 773.698730,391.802979 800.173584,402.715393 
	C796.052429,406.312042 793.009094,409.563293 789.415100,412.003571 
	C772.062073,423.785950 753.235352,432.336670 732.686829,436.855865 
	C721.923157,439.223083 711.572510,436.138062 701.231079,433.943115 
	C692.876770,432.169952 684.661255,429.742432 674.896301,427.220978 
	C677.261169,432.436737 679.275879,436.327576 680.748474,440.413757 
	C681.298706,441.940552 681.238098,444.391693 680.350830,445.628601 
	C661.493103,471.918427 648.739014,500.999237 640.562317,532.167725 
	C635.242432,552.446472 631.939270,573.018555 630.906982,594.026489 
	C630.111938,610.205078 634.688049,623.540466 648.300110,632.845154 
	C654.092468,636.804626 654.735840,640.948730 652.412415,647.407532 
	C646.170471,664.758911 640.603333,682.357605 635.025391,699.939636 
	C633.823181,703.729065 631.635010,705.765808 628.074097,706.932068 
	C617.499756,710.395203 606.980652,714.029358 596.380859,717.411377 
	C592.671692,718.594788 589.894348,720.519836 588.427063,724.196960 
	C588.060303,725.116333 587.323486,725.895447 587.000244,726.823730 
	C582.731628,739.084717 573.233521,744.311157 561.317932,747.604431 
	C524.456604,757.792236 487.916595,757.350830 451.194977,746.842651 
	C439.825195,743.589172 432.270935,737.148987 428.133453,726.380310 
	C426.044952,720.944458 422.229645,718.208679 416.619904,716.616028 
	C406.726379,713.807251 397.090820,710.100098 387.299042,706.917236 
	C383.880005,705.805786 381.672607,703.985962 380.522400,700.389587 
	C374.293793,680.914368 367.805786,661.521851 361.654877,642.022705 
	C361.178467,640.512451 362.091431,637.931763 363.249359,636.658875 
	C366.488312,633.098450 370.015869,629.743164 373.753662,626.705811 
	C381.695679,620.252136 383.904846,611.654297 384.076111,601.953674 
	C384.747284,563.929871 375.751709,527.936218 361.438232,493.050476 
	C354.714203,476.662231 346.225555,461.217346 335.707397,446.955017 
	C333.641327,444.153412 333.285583,441.992889 335.082214,438.979279 
	C337.019135,435.730286 338.391113,432.144531 340.455292,427.758606 
	C338.341553,427.994415 336.982758,427.997803 335.700531,428.312836 
	C326.518616,430.568909 317.316650,432.756317 308.189392,435.218842 
	C294.729340,438.850372 281.653137,437.886414 268.595581,433.121979 
	C251.944397,427.046265 235.919189,419.867706 221.877106,408.844208 
	C219.853577,407.255676 218.117065,405.301483 215.305099,402.616394 
	C241.554321,391.901703 267.740936,384.932373 295.074738,378.090210 
	C293.150757,376.062866 291.872833,374.661011 290.536926,373.316833 
	C270.176788,352.831451 252.719040,330.305603 242.093552,303.141937 
	C227.355484,265.464661 232.462143,230.769836 258.316620,199.397186 
	C277.008026,176.716461 300.958221,160.901535 326.698578,147.549210 
	C356.775391,131.947403 388.405334,120.254868 420.920319,110.875450 
	C424.586334,109.817932 428.249512,108.750633 432.434204,107.819489 
	C432.954437,107.951118 433.188782,108.210136 433.188782,108.210136 
z"/>
<path fill="#FEF8F4" opacity="1.000000" stroke="none" 
	d="
M432.836365,107.822403 
	C433.298035,107.373230 433.877808,107.052780 434.735413,106.872810 
	C435.013306,107.013290 434.964325,106.974434 434.964325,106.974434 
	C434.563782,107.344086 434.163269,107.713737 433.475769,108.146759 
	C433.188782,108.210136 432.954437,107.951118 432.836365,107.822403 
z"/>
<path fill="#FEF8F4" opacity="1.000000" stroke="none" 
	d="
M581.053528,106.950188 
	C580.827087,106.890381 580.600708,106.830582 580.374268,106.770782 
	C580.540161,106.733383 580.706116,106.695992 580.939331,106.825943 
	C581.006653,106.993294 581.053528,106.950188 581.053528,106.950188 
z"/>
<path fill="#FEF8F4" opacity="1.000000" stroke="none" 
	d="
M435.037903,107.032562 
	C435.142090,106.996971 435.221649,106.942101 435.132751,106.930832 
	C434.964325,106.974434 435.013306,107.013290 435.037903,107.032562 
z"/>
<path fill="#FEF8F4" opacity="1.000000" stroke="none" 
	d="
M582.022461,107.978004 
	C581.599304,107.884476 581.269775,107.703224 580.996887,107.236084 
	C581.053528,106.950188 581.006653,106.993294 580.983521,107.015320 
	C581.309265,107.109901 581.658142,107.182465 582.156006,107.485802 
	C582.305054,107.716576 582.116150,107.890282 582.022461,107.978004 
z"/>
<path fill="#FFFFFF" opacity="1.000000" stroke="none" 
	d="
M602.084717,870.851135 
	C601.809692,870.695740 601.588013,870.238953 601.687500,869.866821 
	C602.051880,870.150879 602.094971,870.350342 602.084717,870.851135 
z"/>
<path fill="#FFFDFB" opacity="1.000000" stroke="none" 
	d="
M458.932129,879.918457 
	C464.709442,874.235046 471.113037,872.551636 478.367920,875.537354 
	C486.803650,879.009094 488.890259,886.366150 489.660583,894.784546 
	C477.098389,894.784546 464.690948,894.784546 451.730377,894.784546 
	C452.343811,888.868225 455.058655,884.321045 458.932129,879.918457 
z"/>
<path fill="#939699" opacity="1.000000" stroke="none" 
	d="
M436.369476,894.851685 
	C435.907074,892.249146 435.651215,889.413574 435.674622,886.298218 
	C436.161224,888.885193 436.368622,891.751892 436.369476,894.851685 
z"/>
<path fill="#939699" opacity="1.000000" stroke="none" 
	d="
M429.272156,902.727478 
	C429.494873,902.243225 429.982239,901.670227 430.787354,901.095825 
	C430.582336,901.609192 430.059601,902.124023 429.272156,902.727478 
z"/>
<path fill="#939699" opacity="1.000000" stroke="none" 
	d="
M431.318237,901.033936 
	C431.246613,900.825500 431.431458,900.541748 431.860901,900.169189 
	C431.928589,900.373169 431.751678,900.665894 431.318237,901.033936 
z"/>
<path fill="#939699" opacity="1.000000" stroke="none" 
	d="
M432.346375,900.048401 
	C432.264862,899.827759 432.443420,899.542969 432.865784,899.170959 
	C432.941895,899.383850 432.774139,899.684082 432.346375,900.048401 
z"/>
<path fill="#939699" opacity="1.000000" stroke="none" 
	d="
M433.349304,899.034302 
	C433.310730,898.807007 433.550873,898.514526 434.080414,898.164246 
	C434.122559,898.394043 433.875305,898.681641 433.349304,899.034302 
z"/>
<path fill="#F58633" opacity="1.000000" stroke="none" 
	d="
M270.038757,873.374023 
	C279.584290,878.086243 289.096558,883.273376 298.876282,889.095459 
	C300.043732,892.556335 300.943665,895.382202 301.877930,898.570251 
	C305.646332,904.309387 308.440155,910.810852 313.283661,914.861206 
	C330.622345,929.360779 361.589172,926.205933 377.233612,909.131348 
	C377.594910,909.135071 377.956238,909.138733 378.579712,909.208984 
	C378.622009,917.759155 378.565460,926.252625 378.048767,934.718079 
	C377.941437,936.476685 376.546936,938.914673 375.040375,939.719482 
	C333.330627,962.004211 278.275757,941.749329 270.949005,890.261841 
	C270.179688,884.855591 270.298676,879.322937 270.038757,873.374023 
z"/>
<path fill="#FEFDFD" opacity="1.000000" stroke="none" 
	d="
M264.961609,848.447937 
	C266.080872,826.484863 278.036346,811.765442 296.766357,802.925659 
	C324.217712,789.969788 351.358276,791.507751 376.670685,808.953430 
	C389.917511,818.083374 398.225342,830.944824 398.711060,847.333801 
	C399.214203,864.310730 391.238678,877.638855 377.999878,887.916809 
	C375.642700,889.746826 373.033630,891.252441 370.241882,893.105103 
	C345.152405,889.059814 321.873108,880.387268 299.170044,868.681641 
	C302.639893,847.245239 315.157257,834.007751 334.716888,831.448181 
	C341.350952,830.580017 348.247742,831.719421 355.335938,832.113831 
	C359.350647,833.648987 363.053955,835.011780 366.783478,836.255249 
	C366.809723,836.135925 366.696899,836.352600 366.851379,836.627380 
	C368.313324,837.644287 369.620819,838.386353 370.948914,839.084656 
	C370.969543,839.040833 370.880310,839.078491 371.067902,839.358643 
	C373.419952,841.362183 375.584381,843.085510 377.934540,844.956726 
	C378.294434,842.119568 378.618774,839.562927 379.034241,836.612854 
	C379.086548,835.147583 379.047668,834.075684 379.127991,832.618774 
	C379.394592,828.923279 379.190552,825.549500 379.771576,822.316895 
	C380.645874,817.452209 378.387085,815.300964 373.800781,814.212402 
	C359.417053,808.076538 344.712921,806.079163 329.605530,808.186340 
	C301.689636,812.080200 282.857697,827.334290 273.497498,854.051514 
	C270.718628,852.273743 267.939789,850.495972 264.961609,848.447937 
z"/>
<path fill="#F58633" opacity="1.000000" stroke="none" 
	d="
M355.024475,831.941406 
	C348.247742,831.719421 341.350952,830.580017 334.716888,831.448181 
	C315.157257,834.007751 302.639893,847.245239 298.850037,868.508545 
	C290.495422,864.152527 282.196045,859.401978 273.697083,854.351440 
	C282.857697,827.334290 301.689636,812.080200 329.605530,808.186340 
	C344.712921,806.079163 359.417053,808.076538 373.912018,814.591431 
	C377.501251,816.791199 378.266510,819.390930 378.097351,822.889832 
	C377.935455,826.238586 378.668884,829.630737 379.008789,833.003784 
	C379.047668,834.075684 379.086548,835.147583 378.690186,836.674988 
	C377.639069,838.484009 377.023132,839.837585 376.543518,840.891541 
	C374.683411,840.296021 372.781860,839.687256 370.880310,839.078491 
	C370.880310,839.078491 370.969543,839.040833 370.930145,838.723022 
	C369.492798,837.721069 368.094849,837.036804 366.696899,836.352600 
	C366.696899,836.352600 366.809723,836.135925 366.748047,835.878906 
	C362.799072,834.395020 358.911774,833.168213 355.024475,831.941406 
z"/>
<path fill="#FBC79D" opacity="1.000000" stroke="none" 
	d="
M376.794678,909.064392 
	C361.589172,926.205933 330.622345,929.360779 313.283661,914.861206 
	C308.440155,910.810852 305.646332,904.309387 302.276123,898.480408 
	C314.545502,901.608337 326.616821,903.937805 339.138794,902.870239 
	C347.610352,904.364136 356.074646,905.901062 364.556702,907.332703 
	C368.471863,907.993530 372.421661,908.448914 376.794678,909.064392 
z"/>
<path fill="#FFFDFB" opacity="1.000000" stroke="none" 
	d="
M338.874176,902.610840 
	C326.616821,903.937805 314.545502,901.608337 302.241821,898.118286 
	C300.943665,895.382202 300.043732,892.556335 299.118408,889.341064 
	C312.265259,893.418274 325.437408,897.884888 338.874176,902.610840 
z"/>
<path fill="#FEF8F4" opacity="1.000000" stroke="none" 
	d="
M785.295166,799.182068 
	C787.843262,802.509460 788.589355,805.716736 785.802368,809.346191 
	C781.842163,811.949829 777.951355,812.623535 775.018555,808.601013 
	C772.768311,805.514587 772.494690,802.106018 776.580688,800.206421 
	C776.892334,803.416016 776.892334,805.978943 776.892334,807.250366 
	C778.733459,807.250366 780.239075,807.250366 781.810547,807.507446 
	C782.093689,808.035095 782.311096,808.305603 782.754639,808.755371 
	C783.248108,808.882019 783.515381,808.829468 783.782593,808.776978 
	C783.638184,808.403687 783.493713,808.030396 783.272095,807.433960 
	C783.064697,806.915710 782.866272,806.677429 782.464233,806.191772 
	C784.824280,801.192505 784.195801,800.101807 778.911499,799.980896 
	C778.264954,799.966064 777.617004,800.012512 776.969666,800.030640 
	C779.099792,795.558533 782.096191,797.909851 785.295166,799.182068 
z"/>
<path fill="#F47E26" opacity="1.000000" stroke="none" 
	d="
M379.128021,832.618774 
	C378.668884,829.630737 377.935455,826.238586 378.097351,822.889832 
	C378.266510,819.390930 377.501251,816.791199 374.188232,814.777649 
	C378.387085,815.300964 380.645874,817.452209 379.771576,822.316895 
	C379.190552,825.549500 379.394592,828.923279 379.128021,832.618774 
z"/>
<path fill="#F47E26" opacity="1.000000" stroke="none" 
	d="
M371.067902,839.358704 
	C372.781860,839.687256 374.683411,840.296021 376.543518,840.891541 
	C377.023132,839.837585 377.639069,838.484009 378.599060,837.068359 
	C378.618774,839.562927 378.294434,842.119568 377.934540,844.956726 
	C375.584381,843.085510 373.419952,841.362183 371.067902,839.358704 
z"/>
<path fill="#F47E26" opacity="1.000000" stroke="none" 
	d="
M355.335938,832.113831 
	C358.911774,833.168213 362.799072,834.395020 366.721802,835.998169 
	C363.053955,835.011780 359.350647,833.648987 355.335938,832.113831 
z"/>
<path fill="#F47E26" opacity="1.000000" stroke="none" 
	d="
M366.851379,836.627380 
	C368.094849,837.036804 369.492798,837.721069 370.909546,838.766846 
	C369.620819,838.386353 368.313324,837.644287 366.851379,836.627380 
z"/>
<path fill="#87898B" opacity="1.000000" stroke="none" 
	d="
M776.987000,800.013672 
	C777.617004,800.012512 778.264954,799.966064 778.911499,799.980896 
	C784.195801,800.101807 784.824280,801.192505 782.241943,806.373047 
	C782.018372,806.989197 781.881531,807.119812 781.744690,807.250366 
	C780.239075,807.250366 778.733459,807.250366 776.892334,807.250366 
	C776.892334,805.978943 776.892334,803.416016 776.966187,800.408569 
	C777.040039,799.964050 777.004333,799.996704 776.987000,800.013672 
z"/>
<path fill="#87898B" opacity="1.000000" stroke="none" 
	d="
M782.528442,808.576172 
	C782.311096,808.305603 782.093689,808.035095 781.810547,807.507446 
	C781.881531,807.119812 782.018372,806.989197 782.377441,806.677368 
	C782.866272,806.677429 783.064697,806.915710 783.058716,807.656494 
	C782.791199,808.260193 782.659790,808.418152 782.528442,808.576172 
z"/>
<path fill="#87898B" opacity="1.000000" stroke="none" 
	d="
M783.135986,807.879639 
	C783.493713,808.030396 783.638184,808.403687 783.782593,808.776978 
	C783.515381,808.829468 783.248108,808.882019 782.754639,808.755371 
	C782.659790,808.418152 782.791199,808.260193 783.135986,807.879639 
z"/>
</svg>