<svg version="1.1" id="Layer_1" xmlns="http://www.w3.org/2000/svg" xmlns:xlink="http://www.w3.org/1999/xlink" x="0px" y="0px"
	 width="100%" viewBox="0 0 1024 1024" enable-background="new 0 0 1024 1024" xml:space="preserve">
<path fill="#FFFFFF" opacity="1.000000" stroke="none" 
	d="
M1025.000000,392.000000 
	C1025.000000,603.333313 1025.000000,814.166687 1025.000000,1025.000000 
	C683.666687,1025.000000 342.333344,1025.000000 1.000000,1025.000000 
	C1.000000,683.666687 1.000000,342.333344 1.000000,1.000000 
	C342.333344,1.000000 683.666687,1.000000 1025.000000,1.000000 
	C1025.000000,131.166672 1025.000000,261.333344 1025.000000,392.000000 
M253.999619,918.000000 
	C253.999619,918.000000 253.944077,918.012451 253.682831,918.676880 
	C254.108093,919.131836 254.533356,919.586731 254.999390,920.000000 
	C254.999390,920.000000 254.945190,920.021179 254.707016,920.752075 
	C255.487335,922.393982 256.145203,924.108276 257.065887,925.667297 
	C278.854034,962.561096 325.584656,978.322449 365.189941,961.788696 
	C389.835602,951.500061 406.710602,933.638794 415.046997,908.039062 
	C415.046997,908.039062 415.086395,908.137085 415.815338,907.928467 
	C418.506897,907.224487 421.198425,906.520569 423.914703,906.748596 
	C423.996307,908.742859 423.937958,910.754395 424.181488,912.728699 
	C426.316010,930.034119 432.584381,944.600769 450.308838,951.331787 
	C466.402802,957.443726 482.736420,958.165833 499.205261,952.983887 
	C509.016968,949.896606 508.979401,949.795837 508.400391,939.387329 
	C508.308044,937.727478 508.278076,936.063660 508.246796,934.401123 
	C508.145111,929.000183 507.535004,928.561707 502.373810,930.711731 
	C493.305267,934.489319 483.955505,936.254456 474.120453,935.136230 
	C462.649445,933.831970 453.870392,926.189392 452.365784,915.742188 
	C452.154297,914.273743 453.414795,912.593262 454.772858,911.215637 
	C475.277222,911.215637 495.781586,911.215637 516.536377,911.215637 
	C516.611511,909.656677 516.673584,908.367859 517.023254,906.304382 
	C516.953552,902.975891 517.054321,899.633667 516.787048,896.321106 
	C514.705078,870.523010 497.035980,853.977905 471.636108,853.706299 
	C453.670135,853.514160 440.376465,861.441467 430.355774,876.007812 
	C428.662933,874.236938 426.970093,872.466003 424.883728,870.208496 
	C424.331055,870.254150 423.778381,870.299805 423.225708,870.345459 
	C423.627472,870.755859 424.029236,871.166260 424.678802,872.281799 
	C425.426331,874.624573 426.440002,876.919800 426.868378,879.319519 
	C427.901276,885.105896 424.796692,889.926453 419.683838,891.365662 
	C419.683838,888.361267 419.683838,885.266174 419.862885,881.252197 
	C419.217499,874.493225 419.015656,867.657227 417.856964,860.987427 
	C408.147430,805.097290 345.628998,773.124573 294.536499,797.734009 
	C276.177979,806.576660 262.797729,820.422119 252.513214,837.765503 
	C251.372910,836.339294 250.164749,834.961609 249.103149,833.479065 
	C241.492355,822.850281 245.083588,813.697205 257.854889,811.086060 
	C259.883820,810.671204 261.899719,810.192566 263.921631,809.743408 
	C263.806122,809.163940 263.690582,808.584473 263.575073,808.005005 
	C254.666733,809.651917 245.543625,810.575867 236.908173,813.141296 
	C227.567215,815.916321 224.897629,823.034119 228.654114,832.065674 
	C229.981430,835.256897 231.565979,838.507019 233.743866,841.143066 
	C237.952316,846.237000 242.665848,850.913696 246.817963,856.515198 
	C245.907959,862.882080 244.236542,869.250244 244.246841,875.615662 
	C244.268158,888.785706 245.580078,901.873535 251.430695,914.190186 
	C251.944504,914.809814 252.458298,915.429443 253.001755,916.002380 
	C253.001755,916.002380 252.946564,916.005310 252.731598,916.676025 
	C253.142120,917.131958 253.552643,917.587891 253.999619,918.000000 
M606.219360,865.826660 
	C606.050720,866.160217 605.882141,866.493774 605.825684,866.768188 
	C605.825684,866.768188 605.722046,866.695190 605.159058,866.935181 
	C604.692017,867.598450 604.225037,868.261780 603.259888,869.181824 
	C602.830444,869.457520 602.401001,869.733154 601.273621,869.455811 
	C601.273621,865.203796 601.273621,860.951782 601.273621,856.591797 
	C591.540039,856.591797 582.631226,856.591797 573.074768,856.591797 
	C573.074768,882.234802 573.074768,907.626465 572.246643,933.118835 
	C561.617981,935.453369 557.590454,933.686523 553.713074,924.166565 
	C553.357178,920.200684 552.698669,916.235168 552.693237,912.268799 
	C552.647827,879.150818 552.726013,846.032593 552.749817,812.914490 
	C552.750854,811.476929 552.585388,810.039185 552.497864,808.606689 
	C543.239868,808.606689 534.375000,808.606689 525.630615,808.606689 
	C525.427917,809.323792 525.260193,809.640198 525.260132,809.956543 
	C525.253845,849.565918 525.173889,889.175720 525.349182,928.784363 
	C525.378784,935.477173 527.012939,941.983826 531.955688,947.023071 
	C531.955688,947.023071 531.850220,947.104370 532.060242,947.744690 
	C536.751831,954.140991 543.219482,957.005737 550.983704,956.774963 
	C555.936951,956.627747 560.917847,956.195312 565.802490,955.385193 
	C569.063477,954.844421 572.158081,953.655579 575.983154,956.295959 
	C584.022278,956.258850 592.061340,956.221741 600.845154,955.958374 
	C600.980225,954.326843 601.227478,952.695740 601.232788,951.063782 
	C601.278687,936.957031 600.742310,922.820923 601.505920,908.754639 
	C601.938293,900.792053 604.483887,892.944153 606.001404,885.015076 
	C606.001404,885.015076 606.053040,885.078552 606.576111,884.681152 
	C608.419678,882.813416 610.263245,880.945679 612.018616,879.023254 
	C612.018616,879.023254 612.068481,879.114319 612.847351,878.964661 
	C622.698364,875.254761 628.114136,876.320496 633.974976,883.020996 
	C633.974976,883.020996 633.881042,883.071655 634.000244,883.854431 
	C634.709534,886.744751 635.960876,889.620544 636.039124,892.527832 
	C636.508240,909.958679 636.718384,927.396606 636.988770,944.832581 
	C637.047241,948.601929 636.997314,952.372986 636.997314,956.573425 
	C646.157776,956.573425 654.769470,956.598694 663.380066,956.505432 
	C663.854065,956.500366 664.317505,955.510132 664.872803,954.047729 
	C664.862427,938.038635 664.851990,922.029541 665.054443,905.288574 
	C665.047058,904.530029 665.039612,903.771423 665.235657,902.285583 
	C665.409424,900.532959 665.583252,898.780396 666.045959,896.304871 
	C666.949524,893.286804 667.579102,890.151611 668.809265,887.273071 
	C672.190796,879.360291 679.213013,875.746338 688.339050,876.907227 
	C695.288635,877.791321 698.603394,881.606873 700.325134,890.667969 
	C700.603760,892.134460 700.960632,893.586121 701.200867,895.906189 
	C701.200867,915.939209 701.200867,935.972229 701.200867,956.007935 
	C711.174866,956.007935 720.053650,956.007935 728.979248,956.007935 
	C728.979248,932.804565 728.979248,909.907593 729.140015,886.120239 
	C729.078613,884.459656 729.076294,882.794495 728.946716,881.139282 
	C727.660156,864.703369 716.945007,854.121277 700.762451,853.060547 
	C687.882751,852.216370 677.369080,856.810181 668.937500,866.426270 
	C667.119141,868.500061 665.416626,870.675354 663.550049,872.938232 
	C655.296570,852.667175 629.875916,846.211670 612.342834,859.966797 
	C611.789307,860.544128 611.235840,861.121460 610.768250,861.803162 
	C610.768250,861.803162 610.811768,861.675232 610.235901,861.774170 
	C609.835693,862.185913 609.435486,862.597595 608.566040,863.202209 
	C608.379639,863.476807 608.193237,863.751404 607.493896,864.312683 
	C607.218750,864.808777 606.943604,865.304810 606.811279,865.848816 
	C606.811279,865.848816 606.784851,865.700562 606.219360,865.826660 
M891.469482,773.302368 
	C891.520203,770.137390 891.615112,766.972351 891.615234,763.807373 
	C891.622314,587.018433 891.625488,410.229462 891.597351,233.440521 
	C891.596680,229.285721 891.236206,225.130981 891.192200,220.077042 
	C887.248230,168.054749 863.550842,127.275871 820.590210,97.999039 
	C795.830872,81.126045 768.185547,72.258217 737.089417,71.802307 
	C736.090515,71.782196 735.091675,71.744499 734.092773,71.744469 
	C583.547791,71.740501 433.002869,71.738617 282.457916,71.746925 
	C280.964050,71.747009 279.470154,71.883682 277.063080,71.789314 
	C267.002899,73.059677 256.743073,73.466438 246.914383,75.738327 
	C174.510391,92.474472 124.127449,155.900665 124.084938,230.371368 
	C123.982285,410.199432 124.049751,590.027588 124.058533,769.855713 
	C124.058617,771.462463 124.194794,773.069214 124.282791,775.015625 
	C126.165359,775.015625 127.638733,775.015625 129.112106,775.015625 
	C381.604797,775.015686 634.097473,775.017212 886.590149,774.980652 
	C888.145874,774.980469 889.701538,774.450378 891.469482,773.302368 
M734.908325,918.497253 
	C734.944336,922.657898 734.780640,926.831665 735.052612,930.976807 
	C735.971680,944.981812 745.624329,956.095337 758.311584,956.539795 
	C765.526611,956.792603 772.822021,955.226746 780.046143,954.226196 
	C781.132263,954.075745 782.837646,952.569824 782.877014,951.632996 
	C783.133240,945.530945 783.008667,939.412842 783.008667,933.139343 
	C782.066833,933.212219 781.418701,933.202759 780.794189,933.319580 
	C768.522705,935.614502 762.425232,930.778076 761.884949,918.284546 
	C761.820312,916.788879 761.847595,915.288696 761.853699,913.790710 
	C761.922913,896.813660 761.997925,879.836609 762.067017,862.859558 
	C762.078308,860.083923 762.068604,857.308167 762.068604,854.395508 
	C752.769165,854.395508 744.043945,854.395508 734.908508,854.395508 
	C734.908508,875.624207 734.908508,896.561279 734.908325,918.497253 
M746.067627,840.221191 
	C755.869324,840.538513 763.100891,834.798035 763.947815,826.027771 
	C764.819885,816.997314 758.920898,809.115417 750.444702,807.985840 
	C741.707886,806.821472 733.746094,812.609863 732.203369,821.247620 
	C730.667114,829.849182 736.224915,837.860168 746.067627,840.221191 
z"/>
<path fill="#F58634" opacity="1.000000" stroke="none" 
	d="
M738.018066,71.963730 
	C768.185547,72.258217 795.830872,81.126045 820.590210,97.999039 
	C863.550842,127.275871 887.248230,168.054749 890.809814,220.814362 
	C890.284119,222.859940 890.015442,224.168182 890.015320,225.476471 
	C889.997437,406.690796 889.995728,587.905151 890.052002,769.119446 
	C890.052551,770.802307 890.838135,772.484924 891.257202,774.167664 
	C889.701538,774.450378 888.145874,774.980469 886.590149,774.980652 
	C634.097473,775.017212 381.604797,775.015686 129.112106,775.015625 
	C127.638733,775.015625 126.165359,775.015625 124.282791,775.015625 
	C124.194794,773.069214 124.058617,771.462463 124.058533,769.855713 
	C124.049751,590.027588 123.982285,410.199432 124.084938,230.371368 
	C124.127449,155.900665 174.510391,92.474472 246.914383,75.738327 
	C256.743073,73.466438 267.002899,73.059677 277.806396,72.182076 
	C280.025452,72.717056 281.501129,72.983650 282.976868,72.983833 
	C432.936920,73.002724 582.896973,73.004974 732.857056,72.958511 
	C734.577515,72.957977 736.297729,72.309662 738.018066,71.963730 
M589.983032,615.780762 
	C590.322815,614.250427 590.926270,612.725220 590.955750,611.188904 
	C591.070374,605.227417 591.002502,599.262390 591.002502,593.298706 
	C591.002502,581.002441 591.003906,580.889404 603.520874,581.052124 
	C609.419678,581.128723 615.311646,581.735046 621.162598,582.890747 
	C616.375793,598.538086 614.736389,614.433167 616.826538,630.741516 
	C623.173035,680.258545 664.487244,719.964417 713.941711,723.905823 
	C765.646606,728.026489 812.621826,696.191711 826.904968,647.207520 
	C834.377014,621.582031 832.298645,596.513367 822.863342,572.026550 
	C829.471313,572.018555 836.081238,572.093933 842.685608,571.936279 
	C844.108887,571.902344 845.512085,571.028381 847.485413,570.088928 
	C855.339783,562.908386 863.546143,556.068726 870.935669,548.437988 
	C876.710693,542.474426 876.817749,531.908325 871.780396,525.365112 
	C867.835144,520.240234 863.788574,514.983032 858.896729,510.834229 
	C839.100708,494.044678 815.207703,486.297485 790.342896,480.967560 
	C787.584900,480.376404 784.716064,480.306702 781.952393,479.735229 
	C781.069336,479.552673 780.359924,478.530182 779.571106,477.891968 
	C779.779236,477.484528 779.987427,477.077087 780.195557,476.669647 
	C788.141785,477.673706 796.088074,478.677765 803.994995,479.676880 
	C805.187500,471.928467 803.607544,469.839020 796.640076,468.948425 
	C791.853210,468.336578 787.069031,467.685394 782.308960,466.898254 
	C781.340637,466.738098 780.485779,465.891571 779.578613,465.361420 
	C779.747009,464.874603 779.915405,464.387817 780.083801,463.901001 
	C787.168152,464.757355 794.252563,465.613708 801.586853,466.500275 
	C801.586853,463.961914 801.964966,460.715515 801.528931,460.602173 
	C796.679932,459.342072 799.235535,454.982666 797.849365,452.152893 
	C791.780945,451.167877 785.722778,450.184509 779.664551,449.201172 
	C779.782410,448.427490 779.900208,447.653809 780.018005,446.880096 
	C786.030518,447.548981 792.043030,448.217865 797.253357,448.797485 
	C801.150330,443.070801 795.635559,440.879700 794.184692,437.248993 
	C788.843506,423.882294 779.183533,414.312073 766.438599,408.442322 
	C754.534180,402.959717 742.204956,398.122711 729.652893,394.373322 
	C685.361206,381.143097 639.936279,373.246063 594.209961,366.982574 
	C590.952087,366.536316 589.143616,366.043152 588.588867,361.892242 
	C583.011841,320.162506 577.085144,278.479431 571.250366,236.784164 
	C569.646301,225.321915 568.020508,213.862717 566.331055,201.880005 
	C570.827209,201.880005 574.759766,201.880005 578.818298,201.880005 
	C580.489807,189.440781 577.339905,179.334320 567.093445,172.242081 
	C564.138306,170.196564 560.584290,169.016281 556.864624,166.804016 
	C555.571411,166.881470 554.278198,166.958923 552.058411,167.179367 
	C466.372925,167.190414 380.687408,167.202042 295.001923,167.205460 
	C294.007202,167.205490 293.012451,167.099197 291.561920,166.471588 
	C290.273743,166.796844 288.985565,167.122101 287.217804,167.879807 
	C270.978455,173.569656 263.069489,186.357574 266.550049,202.130203 
	C270.430939,202.130203 274.464417,202.130203 278.649445,202.130203 
	C276.395020,220.425797 274.234985,238.097153 272.036865,255.763794 
	C267.700012,290.619995 263.302399,325.468689 259.066101,360.337067 
	C258.717285,363.207916 257.596344,363.850555 254.974808,363.904877 
	C247.819244,364.053070 240.670776,364.655731 233.516602,364.711914 
	C229.987595,364.739685 228.150238,366.017365 226.983353,369.346954 
	C225.445312,373.735565 223.144897,377.854340 221.555252,382.228333 
	C219.774979,387.126923 217.354218,390.435730 211.744675,392.105438 
	C203.458145,394.571930 201.632294,400.941406 206.264313,408.194794 
	C208.126877,411.111481 210.730316,413.546631 212.884384,416.289093 
	C213.962463,417.661682 215.225769,419.116760 215.652924,420.733337 
	C217.524063,427.814911 219.343903,434.928375 220.654419,442.126434 
	C220.972168,443.871582 219.750793,446.446472 218.400208,447.812164 
	C216.548645,449.684479 214.887421,452.793701 210.944733,450.543396 
	C207.601105,448.634918 204.089218,449.594666 201.395355,452.443115 
	C198.859772,455.124176 198.549591,458.168457 199.741379,461.705139 
	C200.241943,463.190552 200.064407,465.468414 199.225464,466.752563 
	C192.228256,477.462799 185.055771,488.060486 177.780121,498.584229 
	C176.943649,499.794159 175.188553,500.994263 173.794159,501.075287 
	C169.712769,501.312317 166.717926,502.879517 165.065750,506.620941 
	C163.439514,510.303619 164.770370,513.279663 167.264816,516.186829 
	C168.192368,517.267822 168.671814,519.324341 168.398239,520.752625 
	C165.930801,533.635132 163.222885,546.471313 160.657440,559.335449 
	C160.177856,561.740295 160.036865,563.596680 156.994507,564.918091 
	C154.666809,565.929077 152.251419,569.551880 152.156876,572.097778 
	C152.062683,574.634216 154.245117,578.661072 156.442200,579.560547 
	C160.105194,581.060242 160.229401,583.455505 160.787170,586.367065 
	C163.068512,598.275391 165.556656,610.144531 167.756073,622.067322 
	C168.036179,623.585693 167.556030,625.760925 166.575592,626.894531 
	C164.036194,629.830750 162.917450,632.914307 164.380142,636.525574 
	C165.833954,640.114929 168.796692,641.540771 172.602097,642.080444 
	C174.265167,642.316284 176.193970,643.726746 177.185135,645.166260 
	C184.629288,655.977783 191.758453,667.007324 199.268814,677.771362 
	C200.741974,679.882751 200.887589,681.179993 199.838348,683.434204 
	C197.937485,687.518005 199.493607,692.532654 203.645294,693.891846 
	C206.751785,694.908752 210.458389,694.092468 213.255035,694.092468 
	C225.061432,701.654297 236.834015,709.132324 248.502243,716.769775 
	C249.599747,717.488098 250.668381,719.208740 250.670959,720.466248 
	C250.679474,724.627686 252.290146,727.549866 256.098877,729.164124 
	C259.815002,730.739014 262.820496,729.425659 265.648071,726.858398 
	C266.547028,726.042175 268.201874,725.321960 269.289703,725.561523 
	C283.707581,728.737549 298.086060,732.092651 313.298096,735.592529 
	C314.094788,738.461121 316.098602,742.008911 321.142548,742.273193 
	C326.068115,742.531311 328.781097,739.911560 330.290527,735.409851 
	C330.561096,734.602966 332.305328,734.047974 333.457550,733.816101 
	C346.156982,731.260437 358.859161,728.710388 371.605255,726.405823 
	C373.141937,726.127930 375.307434,726.865845 376.547241,727.896118 
	C379.579254,730.415710 383.168427,731.596985 386.162872,729.485046 
	C388.512878,727.827759 389.599396,724.341431 391.158691,721.617004 
	C391.883148,720.351196 392.026428,718.387329 393.063446,717.721497 
	C405.483917,709.746582 418.022888,701.956116 431.172516,693.715332 
	C433.767822,695.624817 437.653717,696.206787 441.424805,693.019653 
	C444.453979,690.459534 445.489197,686.915771 443.684052,683.581238 
	C442.073456,680.606201 443.285278,679.120483 444.955078,677.128235 
	C447.735474,673.810913 450.561493,670.488892 452.938538,666.885254 
	C458.052612,659.132202 462.893250,651.198792 467.948425,643.176331 
	C471.995270,644.375793 475.812103,643.243469 477.610107,639.441528 
	C478.725250,637.083435 479.197937,632.547363 477.818390,631.229248 
	C473.382690,626.990845 475.252350,623.103088 476.736145,618.746094 
	C477.806732,615.602600 478.610687,612.341858 479.228027,609.075623 
	C480.794159,600.789429 482.188354,592.470764 483.640930,584.224731 
	C488.640198,584.224731 493.538239,584.224731 498.943604,584.224731 
	C498.943604,595.208618 498.943604,605.843262 499.300964,617.146118 
	C500.202301,617.429199 501.103241,617.958191 502.005035,617.959595 
	C529.780212,618.003784 557.555542,618.017151 585.330505,617.928894 
	C586.579590,617.924927 587.825500,616.927185 589.013550,616.151367 
	C589.013550,616.151367 589.246521,616.065918 589.983032,615.780762 
z"/>
<path fill="#F58735" opacity="1.000000" stroke="none" 
	d="
M612.924438,859.755737 
	C629.875916,846.211670 655.296570,852.667175 663.550049,872.938232 
	C665.416626,870.675354 667.119141,868.500061 668.937500,866.426270 
	C677.369080,856.810181 687.882751,852.216370 700.762451,853.060547 
	C716.945007,854.121277 727.660156,864.703369 728.946716,881.139282 
	C729.076294,882.794495 729.078613,884.459656 728.762939,886.858154 
	C728.256409,889.407959 728.017090,891.219666 728.014465,893.031799 
	C727.987122,912.186890 727.924316,931.342590 728.064270,950.496643 
	C728.089600,953.958679 727.078979,955.238953 723.543091,955.057129 
	C718.559326,954.800781 713.532898,954.719116 708.561462,955.075439 
	C704.247681,955.384460 702.817444,954.143921 702.895386,949.595947 
	C703.177795,933.110718 703.055298,916.617371 702.929016,900.128235 
	C702.915955,898.429626 701.855652,896.738953 701.281311,895.044617 
	C700.960632,893.586121 700.603760,892.134460 700.325134,890.667969 
	C698.603394,881.606873 695.288635,877.791321 688.339050,876.907227 
	C679.213013,875.746338 672.190796,879.360291 668.809265,887.273071 
	C667.579102,890.151611 666.949524,893.286804 665.554993,896.753296 
	C665.053467,899.138733 665.042847,901.075806 665.032227,903.012878 
	C665.039612,903.771423 665.047058,904.530029 664.564819,905.756470 
	C663.716064,907.907166 663.057434,909.587585 663.044678,911.272949 
	C662.934509,925.843689 662.940613,940.415344 662.448975,954.992004 
	C655.508728,954.997681 649.025330,955.145203 642.560120,954.867981 
	C641.340027,954.815674 639.175598,953.086243 639.162903,952.108337 
	C638.951294,935.835327 638.958191,919.558411 639.091003,903.283691 
	C639.106018,901.442200 640.971191,899.424744 640.596985,897.808777 
	C639.670166,893.806519 638.046936,889.946777 636.474304,886.124084 
	C635.991211,884.949707 634.766296,884.080566 633.881042,883.071655 
	C633.881042,883.071655 633.974976,883.020996 633.967651,882.685913 
	C632.891602,877.107849 628.443298,875.900208 624.327271,875.208252 
	C619.859802,874.457092 615.163513,874.733887 612.068481,879.114319 
	C612.068481,879.114319 612.018616,879.023254 611.683472,879.030396 
	C607.876160,879.554810 606.029297,881.496826 606.053040,885.078552 
	C606.053040,885.078552 606.001404,885.015076 605.677673,885.070129 
	C602.573303,892.962158 597.942688,900.675171 597.407593,908.662598 
	C596.379456,924.009766 597.672546,939.512390 597.534058,954.965942 
	C589.651367,954.992676 582.237427,955.003967 574.587830,954.758179 
	C573.028870,953.911316 571.644287,952.713135 570.393127,952.839111 
	C565.508484,953.331177 560.689209,954.501709 555.802612,954.938782 
	C547.825623,955.652344 540.227661,954.785400 534.503418,948.124695 
	C533.959656,947.491882 532.750488,947.430847 531.850220,947.104370 
	C531.850220,947.104370 531.955688,947.023071 531.952148,946.693726 
	C525.918457,935.701233 526.988525,924.002075 526.995972,912.456238 
	C527.003113,901.305664 526.997498,890.155090 526.997498,879.004517 
	C526.997498,858.034790 527.133728,837.063477 526.892151,816.096558 
	C526.838501,811.440674 527.865662,809.400024 532.860229,809.915466 
	C536.812378,810.323364 540.883179,810.366089 544.823853,809.906616 
	C550.053162,809.296875 551.149658,811.321106 551.117249,816.281616 
	C550.897583,849.898376 550.941467,883.517456 551.120728,917.134705 
	C551.134705,919.761108 552.827576,922.378540 553.740173,925.000183 
	C557.590454,933.686523 561.617981,935.453369 573.049500,932.959473 
	C574.238159,931.125854 574.953918,929.452881 574.959717,927.777344 
	C575.035278,906.128723 575.083496,884.479370 574.937195,862.831482 
	C574.912781,859.222778 575.758240,857.694336 579.641663,857.936768 
	C584.618164,858.247559 589.639832,858.216309 594.620850,857.945007 
	C598.256714,857.747009 599.343506,859.215271 599.046997,862.585693 
	C598.843506,864.898926 598.918762,867.250244 599.046753,869.574829 
	C599.155212,871.544495 599.739868,873.078735 602.083618,870.858521 
	C602.091309,870.351501 602.047119,870.149841 602.011292,869.971924 
	C602.019653,869.995728 601.971558,870.008850 601.971558,870.008850 
	C602.401001,869.733154 602.830444,869.457520 603.874756,869.041687 
	C604.900391,868.166077 605.311218,867.430603 605.722046,866.695190 
	C605.722046,866.695190 605.825684,866.768188 606.062378,866.741699 
	C606.461060,866.377014 606.622986,866.038818 606.784912,865.700562 
	C606.784851,865.700562 606.811279,865.848816 607.053467,865.768066 
	C607.532715,865.133545 607.769775,864.579773 608.006836,864.026001 
	C608.193237,863.751404 608.379639,863.476807 609.112915,863.068787 
	C610.043762,862.515320 610.427734,862.095215 610.811768,861.675171 
	C610.811768,861.675232 610.768250,861.803162 611.094727,861.816284 
	C611.922241,861.138245 612.423340,860.446960 612.924438,859.755737 
z"/>
<path fill="#F58633" opacity="1.000000" stroke="none" 
	d="
M430.921204,876.390747 
	C440.376465,861.441467 453.670135,853.514160 471.636108,853.706299 
	C497.035980,853.977905 514.705078,870.523010 516.787048,896.321106 
	C517.054321,899.633667 516.953552,902.975891 516.477417,906.811707 
	C514.035034,908.211060 512.147400,909.854736 510.240479,909.877563 
	C493.205505,910.081238 476.166962,909.970337 459.129883,910.045044 
	C457.416534,910.052551 455.705872,910.674255 453.993958,911.010925 
	C453.414795,912.593262 452.154297,914.273743 452.365784,915.742188 
	C453.870392,926.189392 462.649445,933.831970 474.120453,935.136230 
	C483.955505,936.254456 493.305267,934.489319 502.373810,930.711731 
	C507.535004,928.561707 508.145111,929.000183 508.246796,934.401123 
	C508.278076,936.063660 508.308044,937.727478 508.400391,939.387329 
	C508.979401,949.795837 509.016968,949.896606 499.205261,952.983887 
	C482.736420,958.165833 466.402802,957.443726 450.308838,951.331787 
	C432.584381,944.600769 426.316010,930.034119 424.181488,912.728699 
	C423.937958,910.754395 423.996307,908.742859 424.111084,906.080444 
	C424.958282,904.973816 425.609070,904.535339 426.564209,904.052246 
	C427.581573,903.610474 428.294556,903.213318 429.272156,902.727478 
	C430.059601,902.124084 430.582367,901.609253 431.077820,901.050049 
	C431.050507,901.005615 431.061798,901.109253 431.318268,901.033936 
	C431.751678,900.665894 431.928589,900.373169 432.051514,900.058960 
	C431.997528,900.037537 432.086334,900.112549 432.346375,900.048401 
	C432.774139,899.684082 432.941895,899.383850 433.080994,899.040894 
	C433.052368,898.998108 433.070557,899.099426 433.349304,899.034302 
	C433.875305,898.681641 434.122559,898.394043 434.611633,897.925171 
	C435.289948,896.857422 435.726440,895.971069 436.369446,894.851624 
	C436.368591,891.751892 436.161224,888.885132 435.919891,885.666687 
	C434.231018,882.340210 432.576111,879.365479 430.921204,876.390747 
M455.187012,884.811279 
	C453.885498,887.936035 452.583954,891.060852 451.030487,894.790527 
	C464.545776,894.790527 476.958771,894.790527 489.379852,894.790527 
	C488.913635,883.028748 484.000122,876.181763 474.726196,874.476868 
	C465.937103,872.861023 460.189636,877.450928 455.187012,884.811279 
z"/>
<path fill="#FBC79D" opacity="1.000000" stroke="none" 
	d="
M251.893402,913.866272 
	C245.580078,901.873535 244.268158,888.785706 244.246841,875.615662 
	C244.236542,869.250244 245.907959,862.882080 247.312088,856.258301 
	C255.228149,861.633972 262.650085,867.266541 270.038757,873.373962 
	C270.298676,879.322815 270.179749,884.855469 270.949036,890.261719 
	C278.275452,941.748352 333.329346,962.004639 375.040558,939.719727 
	C376.547058,938.914856 377.941437,936.476746 378.048767,934.718079 
	C378.565430,926.252686 378.621979,917.759155 379.274475,909.223022 
	C390.864868,909.012878 402.022552,908.855408 413.089905,909.081787 
	C407.282623,923.432495 398.558624,935.066589 386.946655,944.801941 
	C354.270447,972.197510 302.416809,970.551636 272.062073,940.531128 
	C265.759521,934.298035 260.620453,926.888550 254.945190,920.021179 
	C254.945190,920.021179 254.999390,920.000000 255.018646,919.703979 
	C254.673279,918.942871 254.308670,918.477661 253.944061,918.012451 
	C253.944077,918.012451 253.999619,918.000000 254.010010,917.705627 
	C253.662460,916.942627 253.304504,916.473999 252.946548,916.005310 
	C252.946564,916.005310 253.001755,916.002380 253.003616,915.694946 
	C252.634781,914.880432 252.264084,914.373352 251.893402,913.866272 
z"/>
<path fill="#96989A" opacity="1.000000" stroke="none" 
	d="
M413.180237,908.697876 
	C402.022552,908.855408 390.864868,909.012878 379.012329,909.156372 
	C377.956207,909.138672 377.594910,909.135071 376.794678,909.064453 
	C372.420959,908.448792 368.470367,907.993469 364.554565,907.332092 
	C356.070831,905.899231 347.604950,904.360779 338.867279,902.607239 
	C325.433929,897.882751 312.265015,893.416565 298.853149,888.705444 
	C289.097443,883.273315 279.584717,878.086243 270.072021,872.899109 
	C262.650085,867.266541 255.228149,861.633972 247.488129,855.882324 
	C242.665848,850.913696 237.952316,846.237000 233.743866,841.143066 
	C231.565979,838.507019 229.981430,835.256897 228.654114,832.065674 
	C224.897629,823.034119 227.567215,815.916321 236.908173,813.141296 
	C245.543625,810.575867 254.666733,809.651917 263.575073,808.005005 
	C263.690582,808.584473 263.806122,809.163940 263.921631,809.743408 
	C261.899719,810.192566 259.883820,810.671204 257.854889,811.086060 
	C245.083588,813.697205 241.492355,822.850281 249.103149,833.479065 
	C250.164749,834.961609 251.372910,836.339294 252.949677,838.224487 
	C257.178192,841.848145 260.970184,845.012939 264.961578,848.447937 
	C267.939789,850.495972 270.718628,852.273743 273.697083,854.351440 
	C282.196045,859.401978 290.495422,864.152527 299.114807,869.076294 
	C321.873108,880.387268 345.152405,889.059814 370.277435,893.501038 
	C384.211975,896.014526 397.830963,897.306702 411.597839,895.041260 
	C415.848480,894.341797 418.758667,893.030396 418.256531,887.861694 
	C418.078430,886.028320 419.171204,884.071472 419.683838,882.171021 
	C419.683838,885.266174 419.683838,888.361267 419.683838,891.365662 
	C424.796692,889.926453 427.901276,885.105896 426.868378,879.319519 
	C426.440002,876.919800 425.426331,874.624573 424.772766,871.714844 
	C425.003571,870.997009 425.140411,870.846008 425.277283,870.695068 
	C426.970093,872.466003 428.662933,874.236938 430.638489,876.199280 
	C432.576111,879.365479 434.231018,882.340210 435.640656,885.946533 
	C435.651215,889.413574 435.907074,892.249146 436.162933,895.084656 
	C435.726440,895.971069 435.289948,896.857422 434.322235,897.982910 
	C433.550842,898.514465 433.310699,898.806946 433.070557,899.099426 
	C433.070557,899.099426 433.052368,898.998108 432.837158,899.128174 
	C432.443420,899.542969 432.264862,899.827759 432.086304,900.112549 
	C432.086334,900.112549 431.997528,900.037537 431.806946,900.147766 
	C431.431458,900.541748 431.246613,900.825500 431.061768,901.109253 
	C431.061798,901.109253 431.050507,901.005615 430.760071,901.051392 
	C429.982269,901.670166 429.494873,902.243164 429.007507,902.816101 
	C428.294556,903.213318 427.581573,903.610474 426.135254,904.022827 
	C421.963409,905.404419 418.524902,906.770752 415.086395,908.137085 
	C415.086395,908.137085 415.046997,908.039062 414.815552,908.046143 
	C414.116180,908.268066 413.648193,908.482910 413.180237,908.697876 
z"/>
<path fill="#F58633" opacity="1.000000" stroke="none" 
	d="
M734.908447,917.997803 
	C734.908508,896.561279 734.908508,875.624207 734.908508,854.395508 
	C744.043945,854.395508 752.769165,854.395508 762.068604,854.395508 
	C762.068604,857.308167 762.078308,860.083923 762.067017,862.859558 
	C761.997925,879.836609 761.922913,896.813660 761.853699,913.790710 
	C761.847595,915.288696 761.820312,916.788879 761.884949,918.284546 
	C762.425232,930.778076 768.522705,935.614502 780.794189,933.319580 
	C781.418701,933.202759 782.066833,933.212219 783.008667,933.139343 
	C783.008667,939.412842 783.133240,945.530945 782.877014,951.632996 
	C782.837646,952.569824 781.132263,954.075745 780.046143,954.226196 
	C772.822021,955.226746 765.526611,956.792603 758.311584,956.539795 
	C745.624329,956.095337 735.971680,944.981812 735.052612,930.976807 
	C734.780640,926.831665 734.944336,922.657898 734.908447,917.997803 
z"/>
<path fill="#FCC79C" opacity="1.000000" stroke="none" 
	d="
M419.773346,881.711609 
	C419.171204,884.071472 418.078430,886.028320 418.256531,887.861694 
	C418.758667,893.030396 415.848480,894.341797 411.597839,895.041260 
	C397.830963,897.306702 384.211975,896.014526 370.576447,893.303772 
	C373.033691,891.252441 375.642700,889.746704 377.999969,887.916626 
	C391.238739,877.638672 399.214172,864.310608 398.711090,847.333679 
	C398.225433,830.944580 389.917267,818.083374 376.670563,808.953430 
	C351.358185,791.507629 324.217621,789.969788 296.766296,802.925598 
	C278.036316,811.765320 266.080872,826.484924 264.762207,848.177673 
	C260.970184,845.012939 257.178192,841.848145 253.248993,838.396667 
	C262.797729,820.422119 276.177979,806.576660 294.536499,797.734009 
	C345.628998,773.124573 408.147430,805.097290 417.856964,860.987427 
	C419.015656,867.657227 419.217499,874.493225 419.773346,881.711609 
z"/>
<path fill="#F37416" opacity="1.000000" stroke="none" 
	d="
M891.363342,773.734985 
	C890.838135,772.484924 890.052551,770.802307 890.052002,769.119446 
	C889.995728,587.905151 889.997437,406.690796 890.015320,225.476471 
	C890.015442,224.168182 890.284119,222.859940 890.735474,221.263947 
	C891.236206,225.130981 891.596680,229.285721 891.597351,233.440521 
	C891.625488,410.229462 891.622314,587.018433 891.615234,763.807373 
	C891.615112,766.972351 891.520203,770.137390 891.363342,773.734985 
z"/>
<path fill="#F58633" opacity="1.000000" stroke="none" 
	d="
M745.682983,840.171875 
	C736.224915,837.860168 730.667114,829.849182 732.203369,821.247620 
	C733.746094,812.609863 741.707886,806.821472 750.444702,807.985840 
	C758.920898,809.115417 764.819885,816.997314 763.947815,826.027771 
	C763.100891,834.798035 755.869324,840.538513 745.682983,840.171875 
z"/>
<path fill="#939699" opacity="1.000000" stroke="none" 
	d="
M413.089905,909.081726 
	C413.648193,908.482910 414.116180,908.268066 414.861206,908.072693 
	C406.710602,933.638794 389.835602,951.500061 365.189941,961.788696 
	C325.584656,978.322449 278.854034,962.561096 257.065887,925.667297 
	C256.145203,924.108276 255.487335,922.393982 254.826111,920.386597 
	C260.620453,926.888550 265.759521,934.298035 272.062073,940.531128 
	C302.416809,970.551636 354.270447,972.197510 386.946655,944.801941 
	C398.558624,935.066589 407.282623,923.432495 413.089905,909.081726 
z"/>
<path fill="#F58837" opacity="1.000000" stroke="none" 
	d="
M553.726624,924.583374 
	C552.827576,922.378540 551.134705,919.761108 551.120728,917.134705 
	C550.941467,883.517456 550.897583,849.898376 551.117249,816.281616 
	C551.149658,811.321106 550.053162,809.296875 544.823853,809.906616 
	C540.883179,810.366089 536.812378,810.323364 532.860229,809.915466 
	C527.865662,809.400024 526.838501,811.440674 526.892151,816.096558 
	C527.133728,837.063477 526.997498,858.034790 526.997498,879.004517 
	C526.997498,890.155090 527.003113,901.305664 526.995972,912.456238 
	C526.988525,924.002075 525.918457,935.701233 531.919067,946.751587 
	C527.012939,941.983826 525.378784,935.477173 525.349182,928.784363 
	C525.173889,889.175720 525.253845,849.565918 525.260132,809.956543 
	C525.260193,809.640198 525.427917,809.323792 525.630615,808.606689 
	C534.375000,808.606689 543.239868,808.606689 552.497864,808.606689 
	C552.585388,810.039185 552.750854,811.476929 552.749817,812.914490 
	C552.726013,846.032593 552.647827,879.150818 552.693237,912.268799 
	C552.698669,916.235168 553.357178,920.200684 553.726624,924.583374 
z"/>
<path fill="#F37416" opacity="1.000000" stroke="none" 
	d="
M737.553711,71.883018 
	C736.297729,72.309662 734.577515,72.957977 732.857056,72.958511 
	C582.896973,73.004974 432.936920,73.002724 282.976868,72.983833 
	C281.501129,72.983650 280.025452,72.717056 278.263000,72.265709 
	C279.470154,71.883682 280.964050,71.747009 282.457916,71.746925 
	C433.002869,71.738617 583.547791,71.740501 734.092773,71.744469 
	C735.091675,71.744499 736.090515,71.782196 737.553711,71.883018 
z"/>
<path fill="#F58837" opacity="1.000000" stroke="none" 
	d="
M598.002808,954.950562 
	C597.672546,939.512390 596.379456,924.009766 597.407593,908.662598 
	C597.942688,900.675171 602.573303,892.962158 605.715820,885.084900 
	C604.483887,892.944153 601.938293,900.792053 601.505920,908.754639 
	C600.742310,922.820923 601.278687,936.957031 601.232788,951.063782 
	C601.227478,952.695740 600.980225,954.326843 600.315613,955.786133 
	C599.191650,955.392761 598.597229,955.171692 598.002808,954.950562 
z"/>
<path fill="#F47B22" opacity="1.000000" stroke="none" 
	d="
M602.031799,871.163879 
	C599.739868,873.078735 599.155212,871.544495 599.046753,869.574829 
	C598.918762,867.250244 598.843506,864.898926 599.046997,862.585693 
	C599.343506,859.215271 598.256714,857.747009 594.620850,857.945007 
	C589.639832,858.216309 584.618164,858.247559 579.641663,857.936768 
	C575.758240,857.694336 574.912781,859.222778 574.937195,862.831482 
	C575.083496,884.479370 575.035278,906.128723 574.959717,927.777344 
	C574.953918,929.452881 574.238159,931.125854 573.463562,932.909119 
	C573.074768,907.626465 573.074768,882.234802 573.074768,856.591797 
	C582.631226,856.591797 591.540039,856.591797 601.273621,856.591797 
	C601.273621,860.951782 601.273621,865.203796 601.622559,869.732300 
	C601.971558,870.008850 602.019653,869.995728 601.686401,869.889771 
	C601.579285,870.243896 601.805542,870.703918 602.031799,871.163879 
z"/>
<path fill="#F58837" opacity="1.000000" stroke="none" 
	d="
M633.940674,883.463013 
	C634.766296,884.080566 635.991211,884.949707 636.474304,886.124084 
	C638.046936,889.946777 639.670166,893.806519 640.596985,897.808777 
	C640.971191,899.424744 639.106018,901.442200 639.091003,903.283691 
	C638.958191,919.558411 638.951294,935.835327 639.162903,952.108337 
	C639.175598,953.086243 641.340027,954.815674 642.560120,954.867981 
	C649.025330,955.145203 655.508728,954.997681 662.762207,955.006226 
	C663.954346,955.002869 664.370056,954.990662 664.785767,954.978394 
	C664.317505,955.510132 663.854065,956.500366 663.380066,956.505432 
	C654.769470,956.598694 646.157776,956.573425 636.997314,956.573425 
	C636.997314,952.372986 637.047241,948.601929 636.988770,944.832581 
	C636.718384,927.396606 636.508240,909.958679 636.039124,892.527832 
	C635.960876,889.620544 634.709534,886.744751 633.940674,883.463013 
z"/>
<path fill="#F37416" opacity="1.000000" stroke="none" 
	d="
M701.241089,895.475403 
	C701.855652,896.738953 702.915955,898.429626 702.929016,900.128235 
	C703.055298,916.617371 703.177795,933.110718 702.895386,949.595947 
	C702.817444,954.143921 704.247681,955.384460 708.561462,955.075439 
	C713.532898,954.719116 718.559326,954.800781 723.543091,955.057129 
	C727.078979,955.238953 728.089600,953.958679 728.064270,950.496643 
	C727.924316,931.342590 727.987122,912.186890 728.014465,893.031799 
	C728.017090,891.219666 728.256409,889.407959 728.682556,887.303284 
	C728.979248,909.907593 728.979248,932.804565 728.979248,956.007935 
	C720.053650,956.007935 711.174866,956.007935 701.200867,956.007935 
	C701.200867,935.972229 701.200867,915.939209 701.241089,895.475403 
z"/>
<path fill="#F37416" opacity="1.000000" stroke="none" 
	d="
M454.383423,911.113281 
	C455.705872,910.674255 457.416534,910.052551 459.129883,910.045044 
	C476.166962,909.970337 493.205505,910.081238 510.240479,909.877563 
	C512.147400,909.854736 514.035034,908.211060 516.333618,907.199036 
	C516.673584,908.367859 516.611511,909.656677 516.536377,911.215637 
	C495.781586,911.215637 475.277222,911.215637 454.383423,911.113281 
z"/>
<path fill="#F58837" opacity="1.000000" stroke="none" 
	d="
M531.955200,947.424561 
	C532.750488,947.430847 533.959656,947.491882 534.503418,948.124695 
	C540.227661,954.785400 547.825623,955.652344 555.802612,954.938782 
	C560.689209,954.501709 565.508484,953.331177 570.393127,952.839111 
	C571.644287,952.713135 573.028870,953.911316 574.655029,955.053467 
	C574.990906,955.804688 575.023987,956.003662 575.057068,956.202576 
	C572.158081,953.655579 569.063477,954.844421 565.802490,955.385193 
	C560.917847,956.195312 555.936951,956.627747 550.983704,956.774963 
	C543.219482,957.005737 536.751831,954.140991 531.955200,947.424561 
z"/>
<path fill="#F47B22" opacity="1.000000" stroke="none" 
	d="
M664.829285,954.513062 
	C664.370056,954.990662 663.954346,955.002869 663.225342,955.000854 
	C662.940613,940.415344 662.934509,925.843689 663.044678,911.272949 
	C663.057434,909.587585 663.716064,907.907166 664.458374,906.122437 
	C664.851990,922.029541 664.862427,938.038635 664.829285,954.513062 
z"/>
<path fill="#F58837" opacity="1.000000" stroke="none" 
	d="
M612.457886,879.039490 
	C615.163513,874.733887 619.859802,874.457092 624.327271,875.208252 
	C628.443298,875.900208 632.891602,877.107849 633.938904,882.730835 
	C628.114136,876.320496 622.698364,875.254761 612.457886,879.039490 
z"/>
<path fill="#F37416" opacity="1.000000" stroke="none" 
	d="
M575.520142,956.249268 
	C575.023987,956.003662 574.990906,955.804688 574.890747,955.310547 
	C582.237427,955.003967 589.651367,954.992676 597.534058,954.965942 
	C598.597229,955.171692 599.191650,955.392761 599.943237,955.899292 
	C592.061340,956.221741 584.022278,956.258850 575.520142,956.249268 
z"/>
<path fill="#939699" opacity="1.000000" stroke="none" 
	d="
M415.450867,908.032776 
	C418.524902,906.770752 421.963409,905.404419 425.830872,904.067505 
	C425.609070,904.535339 424.958282,904.973816 424.098755,905.614441 
	C421.198425,906.520569 418.506897,907.224487 415.450867,908.032776 
z"/>
<path fill="#F58837" opacity="1.000000" stroke="none" 
	d="
M606.314575,884.879883 
	C606.029297,881.496826 607.876160,879.554810 611.727600,879.057800 
	C610.263245,880.945679 608.419678,882.813416 606.314575,884.879883 
z"/>
<path fill="#F47B22" opacity="1.000000" stroke="none" 
	d="
M665.133911,902.649231 
	C665.042847,901.075806 665.053467,899.138733 665.410522,897.114746 
	C665.583252,898.780396 665.409424,900.532959 665.133911,902.649231 
z"/>
<path fill="#F47B22" opacity="1.000000" stroke="none" 
	d="
M605.440552,866.815186 
	C605.311218,867.430603 604.900391,868.166077 604.123779,868.913330 
	C604.225037,868.261780 604.692017,867.598450 605.440552,866.815186 
z"/>
<path fill="#F47B22" opacity="1.000000" stroke="none" 
	d="
M612.633667,859.861267 
	C612.423340,860.446960 611.922241,861.138245 611.051758,861.764160 
	C611.235840,861.121460 611.789307,860.544128 612.633667,859.861267 
z"/>
<path fill="#939699" opacity="1.000000" stroke="none" 
	d="
M251.662048,914.028198 
	C252.264084,914.373352 252.634781,914.880432 252.988785,915.718262 
	C252.458298,915.429443 251.944504,914.809814 251.662048,914.028198 
z"/>
<path fill="#F47B22" opacity="1.000000" stroke="none" 
	d="
M607.750366,864.169312 
	C607.769775,864.579773 607.532715,865.133545 606.982056,865.744019 
	C606.943604,865.304810 607.218750,864.808777 607.750366,864.169312 
z"/>
<path fill="#939699" opacity="1.000000" stroke="none" 
	d="
M253.813446,918.344666 
	C254.308670,918.477661 254.673279,918.942871 254.998260,919.724854 
	C254.533356,919.586731 254.108093,919.131836 253.813446,918.344666 
z"/>
<path fill="#939699" opacity="1.000000" stroke="none" 
	d="
M252.839066,916.340698 
	C253.304504,916.473999 253.662460,916.942627 253.991791,917.727539 
	C253.552643,917.587891 253.142120,917.131958 252.839066,916.340698 
z"/>
<path fill="#F47B22" opacity="1.000000" stroke="none" 
	d="
M610.523804,861.724670 
	C610.427734,862.095215 610.043762,862.515320 609.347534,862.972351 
	C609.435486,862.597595 609.835693,862.185913 610.523804,861.724670 
z"/>
<path fill="#96989A" opacity="1.000000" stroke="none" 
	d="
M424.648865,871.362305 
	C424.029236,871.166260 423.627472,870.755859 423.225708,870.345459 
	C423.778381,870.299805 424.331055,870.254150 425.080505,870.451782 
	C425.140411,870.846008 425.003571,870.997009 424.648865,871.362305 
z"/>
<path fill="#F47B22" opacity="1.000000" stroke="none" 
	d="
M606.502136,865.763611 
	C606.622986,866.038818 606.461060,866.377014 606.006348,866.771240 
	C605.882141,866.493774 606.050720,866.160217 606.502136,865.763611 
z"/>
<path fill="#FEF8F4" opacity="1.000000" stroke="none" 
	d="
M498.943604,616.477844 
	C498.943604,605.843262 498.943604,595.208618 498.943604,584.224731 
	C493.538239,584.224731 488.640198,584.224731 483.640930,584.224731 
	C482.188354,592.470764 480.794159,600.789429 479.228027,609.075623 
	C478.610687,612.341858 477.806732,615.602600 476.736145,618.746094 
	C475.252350,623.103088 473.382690,626.990845 477.818390,631.229248 
	C479.197937,632.547363 478.725250,637.083435 477.610107,639.441528 
	C475.812103,643.243469 471.995270,644.375793 467.948425,643.176331 
	C462.893250,651.198792 458.052612,659.132202 452.938538,666.885254 
	C450.561493,670.488892 447.735474,673.810913 444.955078,677.128235 
	C443.285278,679.120483 442.073456,680.606201 443.684052,683.581238 
	C445.489197,686.915771 444.453979,690.459534 441.424805,693.019653 
	C437.653717,696.206787 433.767822,695.624817 431.172516,693.715332 
	C418.022888,701.956116 405.483917,709.746582 393.063446,717.721497 
	C392.026428,718.387329 391.883148,720.351196 391.158691,721.617004 
	C389.599396,724.341431 388.512878,727.827759 386.162872,729.485046 
	C383.168427,731.596985 379.579254,730.415710 376.547241,727.896118 
	C375.307434,726.865845 373.141937,726.127930 371.605255,726.405823 
	C358.859161,728.710388 346.156982,731.260437 333.457550,733.816101 
	C332.305328,734.047974 330.561096,734.602966 330.290527,735.409851 
	C328.781097,739.911560 326.068115,742.531311 321.142548,742.273193 
	C316.098602,742.008911 314.094788,738.461121 313.298096,735.592529 
	C298.086060,732.092651 283.707581,728.737549 269.289703,725.561523 
	C268.201874,725.321960 266.547028,726.042175 265.648071,726.858398 
	C262.820496,729.425659 259.815002,730.739014 256.098877,729.164124 
	C252.290146,727.549866 250.679474,724.627686 250.670959,720.466248 
	C250.668381,719.208740 249.599747,717.488098 248.502243,716.769775 
	C236.834015,709.132324 225.061432,701.654297 213.255035,694.092468 
	C210.458389,694.092468 206.751785,694.908752 203.645294,693.891846 
	C199.493607,692.532654 197.937485,687.518005 199.838348,683.434204 
	C200.887589,681.179993 200.741974,679.882751 199.268814,677.771362 
	C191.758453,667.007324 184.629288,655.977783 177.185135,645.166260 
	C176.193970,643.726746 174.265167,642.316284 172.602097,642.080444 
	C168.796692,641.540771 165.833954,640.114929 164.380142,636.525574 
	C162.917450,632.914307 164.036194,629.830750 166.575592,626.894531 
	C167.556030,625.760925 168.036179,623.585693 167.756073,622.067322 
	C165.556656,610.144531 163.068512,598.275391 160.787170,586.367065 
	C160.229401,583.455505 160.105194,581.060242 156.442200,579.560547 
	C154.245117,578.661072 152.062683,574.634216 152.156876,572.097778 
	C152.251419,569.551880 154.666809,565.929077 156.994507,564.918091 
	C160.036865,563.596680 160.177856,561.740295 160.657440,559.335449 
	C163.222885,546.471313 165.930801,533.635132 168.398239,520.752625 
	C168.671814,519.324341 168.192368,517.267822 167.264816,516.186829 
	C164.770370,513.279663 163.439514,510.303619 165.065750,506.620941 
	C166.717926,502.879517 169.712769,501.312317 173.794159,501.075287 
	C175.188553,500.994263 176.943649,499.794159 177.780121,498.584229 
	C185.055771,488.060486 192.228256,477.462799 199.225464,466.752563 
	C200.064407,465.468414 200.241943,463.190552 199.741379,461.705139 
	C198.549591,458.168457 198.859772,455.124176 201.395355,452.443115 
	C204.089218,449.594666 207.601105,448.634918 210.944733,450.543396 
	C214.887421,452.793701 216.548645,449.684479 218.400208,447.812164 
	C219.750793,446.446472 220.972168,443.871582 220.654419,442.126434 
	C219.343903,434.928375 217.524063,427.814911 215.652924,420.733337 
	C215.225769,419.116760 213.962463,417.661682 212.884384,416.289093 
	C210.730316,413.546631 208.126877,411.111481 206.264313,408.194794 
	C201.632294,400.941406 203.458145,394.571930 211.744675,392.105438 
	C217.354218,390.435730 219.774979,387.126923 221.555252,382.228333 
	C223.144897,377.854340 225.445312,373.735565 226.983353,369.346954 
	C228.150238,366.017365 229.987595,364.739685 233.516602,364.711914 
	C240.670776,364.655731 247.819244,364.053070 254.974808,363.904877 
	C257.596344,363.850555 258.717285,363.207916 259.066101,360.337067 
	C263.302399,325.468689 267.700012,290.619995 272.036865,255.763794 
	C274.234985,238.097153 276.395020,220.425797 278.649445,202.130203 
	C274.464417,202.130203 270.430939,202.130203 266.550049,202.130203 
	C263.069489,186.357574 270.978455,173.569656 287.898621,167.722763 
	C289.725525,167.391327 290.871613,167.216919 292.017731,167.042526 
	C293.012451,167.099197 294.007202,167.205490 295.001923,167.205460 
	C380.687408,167.202042 466.372925,167.190414 552.939941,167.219452 
	C554.982605,167.319473 556.143677,167.379379 557.304810,167.439301 
	C560.584290,169.016281 564.138306,170.196564 567.093445,172.242081 
	C577.339905,179.334320 580.489807,189.440781 578.818298,201.880005 
	C574.759766,201.880005 570.827209,201.880005 566.331055,201.880005 
	C568.020508,213.862717 569.646301,225.321915 571.250366,236.784164 
	C577.085144,278.479431 583.011841,320.162506 588.588867,361.892242 
	C589.143616,366.043152 590.952087,366.536316 594.209961,366.982574 
	C639.936279,373.246063 685.361206,381.143097 729.652893,394.373322 
	C742.204956,398.122711 754.534180,402.959717 766.438599,408.442322 
	C779.183533,414.312073 788.843506,423.882294 794.184692,437.248993 
	C795.635559,440.879700 801.150330,443.070801 797.253357,448.797485 
	C792.043030,448.217865 786.030518,447.548981 780.018005,446.880096 
	C779.900208,447.653809 779.782410,448.427490 779.664551,449.201172 
	C785.722778,450.184509 791.780945,451.167877 797.849365,452.152893 
	C799.235535,454.982666 796.679932,459.342072 801.528931,460.602173 
	C801.964966,460.715515 801.586853,463.961914 801.586853,466.500275 
	C794.252563,465.613708 787.168152,464.757355 780.083801,463.901001 
	C779.915405,464.387817 779.747009,464.874603 779.578613,465.361420 
	C780.485779,465.891571 781.340637,466.738098 782.308960,466.898254 
	C787.069031,467.685394 791.853210,468.336578 796.640076,468.948425 
	C803.607544,469.839020 805.187500,471.928467 803.994995,479.676880 
	C796.088074,478.677765 788.141785,477.673706 780.195557,476.669647 
	C779.987427,477.077087 779.779236,477.484528 779.571106,477.891968 
	C780.359924,478.530182 781.069336,479.552673 781.952393,479.735229 
	C784.716064,480.306702 787.584900,480.376404 790.342896,480.967560 
	C815.207703,486.297485 839.100708,494.044678 858.896729,510.834229 
	C863.788574,514.983032 867.835144,520.240234 871.780396,525.365112 
	C876.817749,531.908325 876.710693,542.474426 870.935669,548.437988 
	C863.546143,556.068726 855.339783,562.908386 846.743958,570.275513 
	C838.446228,570.454529 830.889587,570.417847 823.334534,570.507751 
	C822.855164,570.513428 822.387512,571.502808 821.914429,572.034546 
	C832.298645,596.513367 834.377014,621.582031 826.904968,647.207520 
	C812.621826,696.191711 765.646606,728.026489 713.941711,723.905823 
	C664.487244,719.964417 623.173035,680.258545 616.826538,630.741516 
	C614.736389,614.433167 616.375793,598.538086 621.401245,582.236633 
	C621.274841,580.792603 620.918152,579.317322 620.543579,579.312744 
	C610.314880,579.187744 600.084351,579.212830 589.246521,579.212830 
	C589.246521,591.947937 589.246521,604.006958 589.246521,616.065918 
	C589.246521,616.065918 589.013550,616.151367 588.569580,616.291992 
	C558.398254,616.447693 528.670898,616.462769 498.943604,616.477844 
M522.055298,560.505615 
	C524.728638,560.843811 527.399048,561.443115 530.075928,561.473755 
	C540.175293,561.589417 550.276794,561.520203 560.801636,561.520203 
	C560.801636,554.877197 560.801636,548.918213 561.667542,542.756226 
	C563.284241,542.659241 564.900879,542.562256 566.642761,542.457764 
	C566.642761,539.246338 566.642761,536.362671 566.642761,533.351929 
	C549.638428,533.351929 532.946106,533.351929 516.117432,533.351929 
	C516.117432,536.537903 516.117432,539.425171 516.117432,542.341003 
	C518.367371,542.640320 520.311401,542.898926 522.213440,543.739990 
	C522.286377,543.920471 522.359253,544.100891 522.129211,545.138123 
	C522.155518,550.036499 522.181885,554.934937 522.055298,560.505615 
M561.509399,468.542847 
	C562.801758,469.025146 564.094116,469.507446 565.621155,470.077362 
	C565.722534,468.758392 565.817078,468.101227 565.817261,467.444031 
	C565.824768,435.747131 565.846130,404.050171 565.789917,372.353363 
	C565.784363,369.231049 565.297913,366.109589 565.040894,362.105499 
	C564.521606,356.973816 564.289612,351.793823 563.436401,346.718262 
	C557.973450,314.221252 552.476562,281.729187 546.775330,249.273331 
	C544.016724,233.569199 540.790283,217.947235 537.757507,202.193817 
	C490.387421,202.193817 443.339386,202.193817 396.394531,202.193817 
	C396.167145,202.797211 395.956177,203.095932 395.955902,203.394836 
	C395.913361,251.040909 395.862915,298.687073 395.975616,346.332825 
	C395.978790,347.678650 397.434540,349.520569 398.716431,350.270386 
	C402.588562,352.535309 406.747833,354.301819 410.726837,356.392609 
	C444.911194,374.355042 472.836212,398.660522 489.655762,434.251526 
	C490.232239,435.471375 491.494507,436.668427 492.730652,437.230560 
	C515.454529,447.563782 538.223328,457.798340 561.509399,468.542847 
M318.685272,494.118164 
	C316.532257,494.328369 314.372284,494.483704 312.227295,494.756927 
	C266.968231,500.522675 236.543137,542.383728 244.975327,587.270874 
	C252.247925,625.985046 287.683044,653.205017 327.112732,650.365784 
	C366.195709,647.551575 397.630127,616.339294 399.851074,578.141602 
	C402.582062,531.172119 366.867859,493.766418 318.685272,494.118164 
M703.663879,667.962708 
	C704.287476,668.196472 704.904846,668.448853 705.535645,668.661255 
	C727.430115,676.035950 751.493042,669.404175 765.738342,652.072815 
	C780.653503,633.926758 782.973267,609.268005 771.623596,589.513123 
	C759.934448,569.167480 737.703857,558.528442 714.541138,562.195007 
	C691.319885,565.870789 672.097778,585.487671 669.105469,608.564026 
	C665.753784,634.411804 678.865295,657.315796 703.663879,667.962708 
M375.894745,225.500031 
	C375.894745,217.733719 375.894745,209.967422 375.894745,202.233246 
	C348.514557,202.233246 321.807861,202.233246 294.832367,202.233246 
	C290.575958,251.358597 286.348694,300.147369 282.104065,349.136475 
	C313.733582,349.136475 344.632233,349.136475 375.894653,349.136475 
	C375.894653,308.049133 375.894653,267.274567 375.894745,225.500031 
M560.837585,595.630737 
	C560.837585,593.339050 560.837585,591.047363 560.837585,588.755920 
	C563.102417,588.504822 564.846375,588.311462 566.567749,588.120667 
	C566.567749,585.012878 566.567749,582.262878 566.567749,579.433838 
	C549.574585,579.433838 532.870972,579.433838 516.192505,579.433838 
	C516.192505,582.574341 516.192505,585.337952 516.192505,588.209900 
	C518.201599,588.473511 519.951965,588.703186 522.216675,589.000305 
	C522.216675,595.120056 522.216675,601.033447 522.216675,606.848022 
	C535.336243,606.848022 547.897156,606.848022 560.837463,606.848022 
	C560.837463,603.189697 560.837463,599.885071 560.837585,595.630737 
M610.240967,437.232422 
	C610.570618,437.777466 610.795837,438.435730 611.245483,438.850739 
	C619.679993,446.634979 624.265686,456.306458 625.405701,467.661530 
	C625.763245,471.223572 626.002380,474.797485 626.299744,478.414551 
	C629.588074,478.414551 632.503357,478.414551 635.384460,478.414551 
	C637.658020,456.215698 627.354614,441.007660 610.240967,437.232422 
M645.196350,439.954315 
	C645.011780,440.149231 644.791260,440.323364 644.660339,440.549438 
	C644.608521,440.638885 644.711365,440.894958 644.819092,440.988953 
	C652.832947,447.983490 657.310547,456.874298 658.718933,467.321594 
	C659.201721,470.903229 659.241699,474.544556 659.489563,478.241302 
	C662.594971,478.241302 665.442505,478.241302 668.240723,478.241302 
	C670.007935,459.019012 662.403809,446.186005 645.196350,439.954315 
M687.790955,456.972534 
	C689.404724,463.997681 691.018494,471.022827 692.687500,478.288513 
	C694.601013,478.288513 697.134949,478.288513 699.635132,478.288513 
	C700.900696,459.693634 691.635559,444.920471 679.123596,444.410065 
	C681.787659,448.220581 684.611389,452.259583 687.790955,456.972534 
M813.923279,531.245544 
	C813.060852,533.811401 812.198425,536.377197 811.147644,539.503479 
	C819.155090,539.503479 825.706665,539.503479 832.482910,539.503479 
	C832.482910,536.711853 832.482910,534.183533 832.482910,531.232971 
	C826.390015,531.232971 820.618469,531.232971 813.923279,531.245544 
M865.922485,533.140381 
	C866.574463,531.881775 868.105835,529.930298 867.743713,529.470703 
	C863.698547,524.337158 859.419373,519.381165 855.026550,514.537476 
	C854.497986,513.954712 852.927856,514.316650 851.840454,514.240784 
	C851.819824,515.476440 851.385803,516.898865 851.845886,517.917358 
	C854.714294,524.266785 858.959045,529.475464 865.922485,533.140381 
z"/>
<path fill="#F37416" opacity="1.000000" stroke="none" 
	d="
M499.122284,616.812012 
	C528.670898,616.462769 558.398254,616.447693 588.599243,616.412476 
	C587.825500,616.927185 586.579590,617.924927 585.330505,617.928894 
	C557.555542,618.017151 529.780212,618.003784 502.005035,617.959595 
	C501.103241,617.958191 500.202301,617.429199 499.122284,616.812012 
z"/>
<path fill="#F47B22" opacity="1.000000" stroke="none" 
	d="
M589.614746,615.923340 
	C589.246521,604.006958 589.246521,591.947937 589.246521,579.212830 
	C600.084351,579.212830 610.314880,579.187744 620.543579,579.312744 
	C620.918152,579.317322 621.274841,580.792603 621.423279,581.841919 
	C615.311646,581.735046 609.419678,581.128723 603.520874,581.052124 
	C591.003906,580.889404 591.002502,581.002441 591.002502,593.298706 
	C591.002502,599.262390 591.070374,605.227417 590.955750,611.188904 
	C590.926270,612.725220 590.322815,614.250427 589.614746,615.923340 
z"/>
<path fill="#F37416" opacity="1.000000" stroke="none" 
	d="
M822.388916,572.030579 
	C822.387512,571.502808 822.855164,570.513428 823.334534,570.507751 
	C830.889587,570.417847 838.446228,570.454529 846.463501,570.501770 
	C845.512085,571.028381 844.108887,571.902344 842.685608,571.936279 
	C836.081238,572.093933 829.471313,572.018555 822.388916,572.030579 
z"/>
<path fill="#F47B22" opacity="1.000000" stroke="none" 
	d="
M291.789825,166.757050 
	C290.871613,167.216919 289.725525,167.391327 288.138397,167.506531 
	C288.985565,167.122101 290.273743,166.796844 291.789825,166.757050 
z"/>
<path fill="#F47B22" opacity="1.000000" stroke="none" 
	d="
M557.084717,167.121658 
	C556.143677,167.379379 554.982605,167.319473 553.403198,167.147980 
	C554.278198,166.958923 555.571411,166.881470 557.084717,167.121658 
z"/>
<path fill="#FFFFFF" opacity="1.000000" stroke="none" 
	d="
M602.083618,870.858521 
	C601.805542,870.703918 601.579285,870.243896 601.677979,869.865967 
	C602.047119,870.149841 602.091309,870.351501 602.083618,870.858521 
z"/>
<path fill="#FEFDFD" opacity="1.000000" stroke="none" 
	d="
M455.384521,884.499268 
	C460.189636,877.450928 465.937103,872.861023 474.726196,874.476868 
	C484.000122,876.181763 488.913635,883.028748 489.379852,894.790527 
	C476.958771,894.790527 464.545776,894.790527 451.030487,894.790527 
	C452.583954,891.060852 453.885498,887.936035 455.384521,884.499268 
z"/>
<path fill="#939699" opacity="1.000000" stroke="none" 
	d="
M436.369446,894.851624 
	C435.907074,892.249146 435.651215,889.413574 435.674622,886.298218 
	C436.161224,888.885132 436.368591,891.751892 436.369446,894.851624 
z"/>
<path fill="#939699" opacity="1.000000" stroke="none" 
	d="
M429.272156,902.727478 
	C429.494873,902.243164 429.982269,901.670166 430.787384,901.095825 
	C430.582367,901.609253 430.059601,902.124084 429.272156,902.727478 
z"/>
<path fill="#939699" opacity="1.000000" stroke="none" 
	d="
M431.318237,901.033936 
	C431.246613,900.825500 431.431458,900.541748 431.860901,900.169189 
	C431.928589,900.373169 431.751678,900.665894 431.318237,901.033936 
z"/>
<path fill="#939699" opacity="1.000000" stroke="none" 
	d="
M432.346375,900.048401 
	C432.264862,899.827759 432.443420,899.542969 432.865784,899.170959 
	C432.941895,899.383850 432.774139,899.684082 432.346375,900.048401 
z"/>
<path fill="#939699" opacity="1.000000" stroke="none" 
	d="
M433.349304,899.034302 
	C433.310699,898.806946 433.550842,898.514465 434.080383,898.164185 
	C434.122559,898.394043 433.875305,898.681641 433.349304,899.034302 
z"/>
<path fill="#F58633" opacity="1.000000" stroke="none" 
	d="
M270.038757,873.373962 
	C279.584717,878.086243 289.097443,883.273315 298.878357,889.094910 
	C300.046265,892.554871 300.945953,895.380432 301.879211,898.568237 
	C305.646271,904.307922 308.439240,910.809937 313.282501,914.860474 
	C330.620636,929.361023 361.588379,926.206482 377.233612,909.131470 
	C377.594910,909.135071 377.956207,909.138672 378.579651,909.208984 
	C378.621979,917.759155 378.565430,926.252686 378.048767,934.718079 
	C377.941437,936.476746 376.547058,938.914856 375.040558,939.719727 
	C333.329346,962.004639 278.275452,941.748352 270.949036,890.261719 
	C270.179749,884.855469 270.298676,879.322815 270.038757,873.373962 
z"/>
<path fill="#FEFDFD" opacity="1.000000" stroke="none" 
	d="
M264.961578,848.447937 
	C266.080872,826.484924 278.036316,811.765320 296.766296,802.925598 
	C324.217621,789.969788 351.358185,791.507629 376.670563,808.953430 
	C389.917267,818.083374 398.225433,830.944580 398.711090,847.333679 
	C399.214172,864.310608 391.238739,877.638672 377.999969,887.916626 
	C375.642700,889.746704 373.033691,891.252441 370.241913,893.105164 
	C345.152405,889.059814 321.873108,880.387268 299.170074,868.681641 
	C302.640137,847.245178 315.160156,834.006409 334.719421,831.447449 
	C341.354187,830.579407 348.251038,831.714966 355.340637,832.105103 
	C359.362946,833.636230 363.072723,834.997131 366.792572,836.276489 
	C366.802612,836.194885 366.704254,836.326599 366.853333,836.605957 
	C368.312958,837.631226 369.623535,838.377197 370.952209,839.080750 
	C370.970276,839.038330 370.884338,839.072021 371.072571,839.351807 
	C373.422882,841.354309 375.584961,843.077087 377.928375,844.944458 
	C378.287445,842.115906 378.611572,839.562256 379.029816,836.615112 
	C379.083069,835.147888 379.042206,834.074158 379.117798,832.614868 
	C379.380890,828.920044 379.173431,825.546875 379.756989,822.316589 
	C380.636383,817.448853 378.365784,815.310120 373.791748,814.214478 
	C359.411713,808.072449 344.707489,806.079285 329.601562,808.186890 
	C301.687775,812.081360 282.856903,827.335754 273.497498,854.051514 
	C270.718628,852.273743 267.939789,850.495972 264.961578,848.447937 
z"/>
<path fill="#F58633" opacity="1.000000" stroke="none" 
	d="
M379.001343,833.000488 
	C379.042206,834.074158 379.083069,835.147888 378.686584,836.677551 
	C377.636475,838.487732 377.023712,839.841919 376.545776,840.898071 
	C374.684326,840.297668 372.784332,839.684814 370.884338,839.072021 
	C370.884338,839.072021 370.970276,839.038330 370.932037,838.719971 
	C369.497284,837.709961 368.100769,837.018311 366.704254,836.326599 
	C366.704254,836.326599 366.802612,836.194885 366.748077,835.902100 
	C362.805084,834.384521 358.916595,833.159729 355.028137,831.934875 
	C348.251038,831.714966 341.354187,830.579407 334.719421,831.447449 
	C315.160156,834.006409 302.640137,847.245178 298.850037,868.508484 
	C290.495422,864.152527 282.196045,859.401978 273.697083,854.351440 
	C282.856903,827.335754 301.687775,812.081360 329.601562,808.186890 
	C344.707489,806.079285 359.411713,808.072449 373.906555,814.592529 
	C377.500122,816.788879 378.266998,819.386475 378.096527,822.885620 
	C377.933319,826.234558 378.663696,829.627136 379.001343,833.000488 
z"/>
<path fill="#FBC79D" opacity="1.000000" stroke="none" 
	d="
M376.794678,909.064453 
	C361.588379,926.206482 330.620636,929.361023 313.282501,914.860474 
	C308.439240,910.809937 305.646271,904.307922 302.277191,898.477722 
	C314.544464,901.602722 326.612335,903.936035 339.131744,902.865540 
	C347.604950,904.360779 356.070831,905.899231 364.554565,907.332092 
	C368.470367,907.993469 372.420959,908.448792 376.794678,909.064453 
z"/>
<path fill="#FEFDFD" opacity="1.000000" stroke="none" 
	d="
M338.867279,902.607239 
	C326.612335,903.936035 314.544464,901.602722 302.243652,898.115417 
	C300.945953,895.380432 300.046265,892.554871 299.121338,889.339844 
	C312.265015,893.416565 325.433929,897.882751 338.867279,902.607239 
z"/>
<path fill="#F58634" opacity="1.000000" stroke="none" 
	d="
M560.982544,468.053772 
	C538.223328,457.798340 515.454529,447.563782 492.730652,437.230560 
	C491.494507,436.668427 490.232239,435.471375 489.655762,434.251526 
	C472.836212,398.660522 444.911194,374.355042 410.726837,356.392609 
	C406.747833,354.301819 402.588562,352.535309 398.716431,350.270386 
	C397.434540,349.520569 395.978790,347.678650 395.975616,346.332825 
	C395.862915,298.687073 395.913361,251.040909 395.955902,203.394836 
	C395.956177,203.095932 396.167145,202.797211 396.394531,202.193817 
	C443.339386,202.193817 490.387421,202.193817 537.757507,202.193817 
	C540.790283,217.947235 544.016724,233.569199 546.775330,249.273331 
	C552.476562,281.729187 557.973450,314.221252 563.436401,346.718262 
	C564.289612,351.793823 564.521606,356.973816 564.744629,362.844788 
	C564.309753,365.386475 564.051758,367.188812 564.050293,368.991302 
	C564.025024,399.865814 564.010132,430.740387 564.067505,461.614807 
	C564.072693,464.375702 564.135193,466.918976 560.982544,468.053772 
z"/>
<path fill="#F58634" opacity="1.000000" stroke="none" 
	d="
M319.154602,494.116394 
	C366.867859,493.766418 402.582062,531.172119 399.851074,578.141602 
	C397.630127,616.339294 366.195709,647.551575 327.112732,650.365784 
	C287.683044,653.205017 252.247925,625.985046 244.975327,587.270874 
	C236.543137,542.383728 266.968231,500.522675 312.227295,494.756927 
	C314.372284,494.483704 316.532257,494.328369 319.154602,494.116394 
z"/>
<path fill="#F58634" opacity="1.000000" stroke="none" 
	d="
M703.304199,667.819336 
	C678.865295,657.315796 665.753784,634.411804 669.105469,608.564026 
	C672.097778,585.487671 691.319885,565.870789 714.541138,562.195007 
	C737.703857,558.528442 759.934448,569.167480 771.623596,589.513123 
	C782.973267,609.268005 780.653503,633.926758 765.738342,652.072815 
	C751.493042,669.404175 727.430115,676.035950 705.535645,668.661255 
	C704.904846,668.448853 704.287476,668.196472 703.304199,667.819336 
z"/>
<path fill="#F58634" opacity="1.000000" stroke="none" 
	d="
M375.894714,226.000015 
	C375.894653,267.274567 375.894653,308.049133 375.894653,349.136475 
	C344.632233,349.136475 313.733582,349.136475 282.104065,349.136475 
	C286.348694,300.147369 290.575958,251.358597 294.832367,202.233246 
	C321.807861,202.233246 348.514557,202.233246 375.894745,202.233246 
	C375.894745,209.967422 375.894745,217.733719 375.894714,226.000015 
M374.000000,262.500000 
	C373.999878,244.846161 373.961273,227.192154 374.038116,209.538651 
	C374.050720,206.647903 373.730408,204.910553 370.077576,204.932739 
	C347.428223,205.070328 324.777313,204.944000 302.127563,205.044724 
	C296.351501,205.070404 294.449524,208.088760 296.391876,213.520218 
	C296.712860,214.417770 297.376343,215.192856 297.881561,216.024551 
	C297.429169,216.015198 296.976776,216.005844 296.524414,215.996490 
	C295.696259,222.046524 294.614929,228.075714 294.114502,234.152710 
	C293.656830,239.710571 294.140320,245.348801 293.632263,250.898819 
	C293.132080,256.363464 291.712769,261.738098 291.049164,267.195129 
	C290.191956,274.244141 289.505554,281.325226 289.090729,288.412689 
	C288.822205,293.001038 289.667816,297.420502 288.322906,302.230927 
	C286.877625,307.400391 287.956573,313.274109 287.916931,318.840424 
	C287.913452,319.330200 287.854004,319.842377 287.701569,320.304932 
	C285.073669,328.276733 284.927521,336.339478 286.382568,344.583466 
	C287.381317,344.757477 288.018005,344.964996 288.654877,344.965515 
	C315.801727,344.988007 342.948975,344.919983 370.095001,345.073792 
	C374.309448,345.097687 374.019836,342.733063 374.016724,339.944458 
	C373.988251,314.462982 373.999969,288.981506 374.000000,262.500000 
z"/>
<path fill="#F58634" opacity="1.000000" stroke="none" 
	d="
M560.837524,596.105591 
	C560.837463,599.885071 560.837463,603.189697 560.837463,606.848022 
	C547.897156,606.848022 535.336243,606.848022 522.216675,606.848022 
	C522.216675,601.033447 522.216675,595.120056 522.216675,589.000305 
	C519.951965,588.703186 518.201599,588.473511 516.192505,588.209900 
	C516.192505,585.337952 516.192505,582.574341 516.192505,579.433838 
	C532.870972,579.433838 549.574585,579.433838 566.567749,579.433838 
	C566.567749,582.262878 566.567749,585.012878 566.567749,588.120667 
	C564.846375,588.311462 563.102417,588.504822 560.837585,588.755920 
	C560.837585,591.047363 560.837585,593.339050 560.837524,596.105591 
z"/>
<path fill="#F58735" opacity="1.000000" stroke="none" 
	d="
M522.255493,543.157593 
	C520.311401,542.898926 518.367371,542.640320 516.117432,542.341003 
	C516.117432,539.425171 516.117432,536.537903 516.117432,533.351929 
	C532.946106,533.351929 549.638428,533.351929 566.642761,533.351929 
	C566.642761,536.362671 566.642761,539.246338 566.642761,542.457764 
	C564.900879,542.562256 563.284241,542.659241 560.859741,542.986755 
	C559.700195,547.377136 559.097778,551.535828 559.079163,555.697144 
	C559.065247,558.811096 558.270569,560.123779 554.903015,560.055847 
	C544.007751,559.835754 533.106873,559.886780 522.208191,559.833313 
	C522.181885,554.934937 522.155518,550.036499 522.541870,544.574707 
	C522.721497,543.726685 522.488525,543.442139 522.255493,543.157593 
z"/>
<path fill="#F58837" opacity="1.000000" stroke="none" 
	d="
M610.577759,437.087524 
	C627.354614,441.007660 637.658020,456.215698 635.384460,478.414551 
	C632.503357,478.414551 629.588074,478.414551 626.299744,478.414551 
	C626.002380,474.797485 625.763245,471.223572 625.405701,467.661530 
	C624.265686,456.306458 619.679993,446.634979 611.245483,438.850739 
	C610.795837,438.435730 610.570618,437.777466 610.577759,437.087524 
z"/>
<path fill="#F58837" opacity="1.000000" stroke="none" 
	d="
M645.543579,439.986633 
	C662.403809,446.186005 670.007935,459.019012 668.240723,478.241302 
	C665.442505,478.241302 662.594971,478.241302 659.489563,478.241302 
	C659.241699,474.544556 659.201721,470.903229 658.718933,467.321594 
	C657.310547,456.874298 652.832947,447.983490 644.819092,440.988953 
	C644.711365,440.894958 644.608521,440.638885 644.660339,440.549438 
	C644.791260,440.323364 645.011780,440.149231 645.543579,439.986633 
z"/>
<path fill="#F58837" opacity="1.000000" stroke="none" 
	d="
M687.613037,456.635559 
	C684.611389,452.259583 681.787659,448.220581 679.123596,444.410065 
	C691.635559,444.920471 700.900696,459.693634 699.635132,478.288513 
	C697.134949,478.288513 694.601013,478.288513 692.687500,478.288513 
	C691.018494,471.022827 689.404724,463.997681 687.613037,456.635559 
z"/>
<path fill="#F69147" opacity="1.000000" stroke="none" 
	d="
M561.245972,468.298340 
	C564.135193,466.918976 564.072693,464.375702 564.067505,461.614807 
	C564.010132,430.740387 564.025024,399.865814 564.050293,368.991302 
	C564.051758,367.188812 564.309753,365.386475 564.741455,363.285889 
	C565.297913,366.109589 565.784363,369.231049 565.789917,372.353363 
	C565.846130,404.050171 565.824768,435.747131 565.817261,467.444031 
	C565.817078,468.101227 565.722534,468.758392 565.621155,470.077362 
	C564.094116,469.507446 562.801758,469.025146 561.245972,468.298340 
z"/>
<path fill="#F68D40" opacity="1.000000" stroke="none" 
	d="
M814.385132,531.239258 
	C820.618469,531.232971 826.390015,531.232971 832.482910,531.232971 
	C832.482910,534.183533 832.482910,536.711853 832.482910,539.503479 
	C825.706665,539.503479 819.155090,539.503479 811.147644,539.503479 
	C812.198425,536.377197 813.060852,533.811401 814.385132,531.239258 
z"/>
<path fill="#F58634" opacity="1.000000" stroke="none" 
	d="
M865.534729,533.030151 
	C858.959045,529.475464 854.714294,524.266785 851.845886,517.917358 
	C851.385803,516.898865 851.819824,515.476440 851.840454,514.240784 
	C852.927856,514.316650 854.497986,513.954712 855.026550,514.537476 
	C859.419373,519.381165 863.698547,524.337158 867.743713,529.470703 
	C868.105835,529.930298 866.574463,531.881775 865.534729,533.030151 
z"/>
<path fill="#F47B22" opacity="1.000000" stroke="none" 
	d="
M522.131714,560.169434 
	C533.106873,559.886780 544.007751,559.835754 554.903015,560.055847 
	C558.270569,560.123779 559.065247,558.811096 559.079163,555.697144 
	C559.097778,551.535828 559.700195,547.377136 560.426758,543.088257 
	C560.801636,548.918213 560.801636,554.877197 560.801636,561.520203 
	C550.276794,561.520203 540.175293,561.589417 530.075928,561.473755 
	C527.399048,561.443115 524.728638,560.843811 522.131714,560.169434 
z"/>
<path fill="#F47B22" opacity="1.000000" stroke="none" 
	d="
M522.234497,543.448792 
	C522.488525,543.442139 522.721497,543.726685 522.693359,544.146240 
	C522.359253,544.100891 522.286377,543.920471 522.234497,543.448792 
z"/>
<path fill="#F47B22" opacity="1.000000" stroke="none" 
	d="
M379.117798,832.614868 
	C378.663696,829.627136 377.933319,826.234558 378.096527,822.885620 
	C378.266998,819.386475 377.500122,816.788879 374.180481,814.781250 
	C378.365784,815.310120 380.636383,817.448853 379.756989,822.316589 
	C379.173431,825.546875 379.380890,828.920044 379.117798,832.614868 
z"/>
<path fill="#F47B22" opacity="1.000000" stroke="none" 
	d="
M371.072571,839.351746 
	C372.784332,839.684814 374.684326,840.297668 376.545776,840.898071 
	C377.023712,839.841919 377.636475,838.487732 378.592499,837.071045 
	C378.611572,839.562256 378.287445,842.115906 377.928375,844.944458 
	C375.584961,843.077087 373.422882,841.354309 371.072571,839.351746 
z"/>
<path fill="#F47B22" opacity="1.000000" stroke="none" 
	d="
M355.340637,832.105103 
	C358.916595,833.159729 362.805084,834.384521 366.738037,835.983765 
	C363.072723,834.997131 359.362946,833.636230 355.340637,832.105103 
z"/>
<path fill="#F47B22" opacity="1.000000" stroke="none" 
	d="
M366.853333,836.605957 
	C368.100769,837.018311 369.497284,837.709961 370.913971,838.762390 
	C369.623535,838.377197 368.312958,837.631226 366.853333,836.605957 
z"/>
<path fill="#F58634" opacity="1.000000" stroke="none" 
	d="
M374.000000,263.000000 
	C373.999969,288.981506 373.988251,314.462982 374.016724,339.944458 
	C374.019836,342.733063 374.309448,345.097687 370.095001,345.073792 
	C342.948975,344.919983 315.801727,344.988007 288.654877,344.965515 
	C288.018005,344.964996 287.381317,344.757477 286.382568,344.583466 
	C284.927521,336.339478 285.073669,328.276733 287.701569,320.304932 
	C287.854004,319.842377 287.913452,319.330200 287.916931,318.840424 
	C287.956573,313.274109 286.877625,307.400391 288.322906,302.230927 
	C289.667816,297.420502 288.822205,293.001038 289.090729,288.412689 
	C289.505554,281.325226 290.191956,274.244141 291.049164,267.195129 
	C291.712769,261.738098 293.132080,256.363464 293.632263,250.898819 
	C294.140320,245.348801 293.656830,239.710571 294.114502,234.152710 
	C294.614929,228.075714 295.696259,222.046524 296.524414,215.996490 
	C296.976776,216.005844 297.429169,216.015198 297.881561,216.024551 
	C297.376343,215.192856 296.712860,214.417770 296.391876,213.520218 
	C294.449524,208.088760 296.351501,205.070404 302.127563,205.044724 
	C324.777313,204.944000 347.428223,205.070328 370.077576,204.932739 
	C373.730408,204.910553 374.050720,206.647903 374.038116,209.538651 
	C373.961273,227.192154 373.999878,244.846161 374.000000,263.000000 
z"/>
</svg>